ISO-10303-21;
HEADER;
/* Generated by software containing ST-Developer
 * from STEP Tools, Inc. (www.steptools.com) 
 */

FILE_DESCRIPTION(
/* description */ (''),
/* implementation_level */ '2;1');

FILE_NAME(
/* name */ 'Bottom.step',
/* time_stamp */ '2026-10-04T18:28:35+03:00',
/* author */ (''),
/* organization */ (''),
/* preprocessor_version */ 'ST-DEVELOPER v20.2',
/* originating_system */ 'Autodesk Translation Framework v15.15.0.0',
/* authorisation */ '');

FILE_SCHEMA (('AUTOMOTIVE_DESIGN { 1 0 10303 214 3 1 1 }'));
ENDSEC;

DATA;
#10=MECHANICAL_DESIGN_GEOMETRIC_PRESENTATION_REPRESENTATION('',(#65,#66),
#1625);
#11=SHAPE_REPRESENTATION_RELATIONSHIP('SRR','None',#1632,#12);
#12=ADVANCED_BREP_SHAPE_REPRESENTATION('',(#67,#68),#1624);
#13=ELLIPSE('',#1009,1.10420179664134,1.09999997541308);
#14=ELLIPSE('',#1011,1.95744868325294,1.95);
#15=ELLIPSE('',#1013,1.95744868325294,1.95);
#16=ELLIPSE('',#1014,1.95744868325294,1.95);
#17=ELLIPSE('',#1015,1.95744868325294,1.95);
#18=ELLIPSE('',#1017,1.10420179664134,1.09999997541308);
#19=ELLIPSE('',#1051,1.25472545878445,1.25);
#20=ELLIPSE('',#1054,1.25472545878445,1.25);
#21=ELLIPSE('',#1058,1.25472545878445,1.25);
#22=ELLIPSE('',#1061,1.25472545878445,1.25);
#23=CYLINDRICAL_SURFACE('',#1008,1.09999997541308);
#24=CYLINDRICAL_SURFACE('',#1010,1.95);
#25=CYLINDRICAL_SURFACE('',#1016,1.09999997541308);
#26=CYLINDRICAL_SURFACE('',#1018,1.95);
#27=CYLINDRICAL_SURFACE('',#1020,1.95);
#28=CYLINDRICAL_SURFACE('',#1023,1.09999997541308);
#29=CYLINDRICAL_SURFACE('',#1026,1.95);
#30=CYLINDRICAL_SURFACE('',#1029,1.09999997541308);
#31=CYLINDRICAL_SURFACE('',#1049,1.25);
#32=CYLINDRICAL_SURFACE('',#1053,1.25);
#33=CYLINDRICAL_SURFACE('',#1057,1.25);
#34=CYLINDRICAL_SURFACE('',#1060,1.25);
#35=FACE_BOUND('',#130,.T.);
#36=FACE_BOUND('',#132,.T.);
#37=FACE_BOUND('',#134,.T.);
#38=FACE_BOUND('',#136,.T.);
#39=FACE_BOUND('',#140,.T.);
#40=FACE_BOUND('',#141,.T.);
#41=FACE_BOUND('',#142,.T.);
#42=FACE_BOUND('',#143,.T.);
#43=FACE_BOUND('',#150,.T.);
#44=FACE_BOUND('',#154,.T.);
#45=CIRCLE('',#997,1.95);
#46=CIRCLE('',#998,1.09999997541308);
#47=CIRCLE('',#1000,1.95);
#48=CIRCLE('',#1001,1.09999997541308);
#49=CIRCLE('',#1003,1.95);
#50=CIRCLE('',#1004,1.09999997541308);
#51=CIRCLE('',#1006,1.95);
#52=CIRCLE('',#1007,1.09999997541308);
#53=CIRCLE('',#1021,1.95);
#54=CIRCLE('',#1022,1.95);
#55=CIRCLE('',#1024,1.09999997541308);
#56=CIRCLE('',#1027,1.95);
#57=CIRCLE('',#1028,1.95);
#58=CIRCLE('',#1030,1.09999997541308);
#59=CIRCLE('',#1042,1.25);
#60=CIRCLE('',#1043,1.25);
#61=CIRCLE('',#1046,1.25);
#62=CIRCLE('',#1047,1.25);
#63=CIRCLE('',#1050,1.25000012690667);
#64=CIRCLE('',#1055,1.25000012690667);
#65=STYLED_ITEM('',(#1641),#67);
#66=STYLED_ITEM('',(#1641),#68);
#67=MANIFOLD_SOLID_BREP('Body1',#975);
#68=MANIFOLD_SOLID_BREP('Body2',#976);
#69=FACE_OUTER_BOUND('',#123,.T.);
#70=FACE_OUTER_BOUND('',#124,.T.);
#71=FACE_OUTER_BOUND('',#125,.T.);
#72=FACE_OUTER_BOUND('',#126,.T.);
#73=FACE_OUTER_BOUND('',#127,.T.);
#74=FACE_OUTER_BOUND('',#128,.T.);
#75=FACE_OUTER_BOUND('',#129,.T.);
#76=FACE_OUTER_BOUND('',#131,.T.);
#77=FACE_OUTER_BOUND('',#133,.T.);
#78=FACE_OUTER_BOUND('',#135,.T.);
#79=FACE_OUTER_BOUND('',#137,.T.);
#80=FACE_OUTER_BOUND('',#138,.T.);
#81=FACE_OUTER_BOUND('',#139,.T.);
#82=FACE_OUTER_BOUND('',#144,.T.);
#83=FACE_OUTER_BOUND('',#145,.T.);
#84=FACE_OUTER_BOUND('',#146,.T.);
#85=FACE_OUTER_BOUND('',#147,.T.);
#86=FACE_OUTER_BOUND('',#148,.T.);
#87=FACE_OUTER_BOUND('',#149,.T.);
#88=FACE_OUTER_BOUND('',#151,.T.);
#89=FACE_OUTER_BOUND('',#152,.T.);
#90=FACE_OUTER_BOUND('',#153,.T.);
#91=FACE_OUTER_BOUND('',#155,.T.);
#92=FACE_OUTER_BOUND('',#156,.T.);
#93=FACE_OUTER_BOUND('',#157,.T.);
#94=FACE_OUTER_BOUND('',#158,.T.);
#95=FACE_OUTER_BOUND('',#159,.T.);
#96=FACE_OUTER_BOUND('',#160,.T.);
#97=FACE_OUTER_BOUND('',#161,.T.);
#98=FACE_OUTER_BOUND('',#162,.T.);
#99=FACE_OUTER_BOUND('',#163,.T.);
#100=FACE_OUTER_BOUND('',#164,.T.);
#101=FACE_OUTER_BOUND('',#165,.T.);
#102=FACE_OUTER_BOUND('',#166,.T.);
#103=FACE_OUTER_BOUND('',#167,.T.);
#104=FACE_OUTER_BOUND('',#168,.T.);
#105=FACE_OUTER_BOUND('',#169,.T.);
#106=FACE_OUTER_BOUND('',#170,.T.);
#107=FACE_OUTER_BOUND('',#171,.T.);
#108=FACE_OUTER_BOUND('',#172,.T.);
#109=FACE_OUTER_BOUND('',#173,.T.);
#110=FACE_OUTER_BOUND('',#174,.T.);
#111=FACE_OUTER_BOUND('',#175,.T.);
#112=FACE_OUTER_BOUND('',#176,.T.);
#113=FACE_OUTER_BOUND('',#177,.T.);
#114=FACE_OUTER_BOUND('',#178,.T.);
#115=FACE_OUTER_BOUND('',#179,.T.);
#116=FACE_OUTER_BOUND('',#180,.T.);
#117=FACE_OUTER_BOUND('',#181,.T.);
#118=FACE_OUTER_BOUND('',#182,.T.);
#119=FACE_OUTER_BOUND('',#183,.T.);
#120=FACE_OUTER_BOUND('',#184,.T.);
#121=FACE_OUTER_BOUND('',#185,.T.);
#122=FACE_OUTER_BOUND('',#186,.T.);
#123=EDGE_LOOP('',(#613,#614,#615,#616));
#124=EDGE_LOOP('',(#617,#618,#619,#620));
#125=EDGE_LOOP('',(#621,#622,#623,#624));
#126=EDGE_LOOP('',(#625,#626,#627,#628));
#127=EDGE_LOOP('',(#629,#630,#631,#632));
#128=EDGE_LOOP('',(#633,#634,#635,#636));
#129=EDGE_LOOP('',(#637));
#130=EDGE_LOOP('',(#638));
#131=EDGE_LOOP('',(#639));
#132=EDGE_LOOP('',(#640));
#133=EDGE_LOOP('',(#641));
#134=EDGE_LOOP('',(#642));
#135=EDGE_LOOP('',(#643));
#136=EDGE_LOOP('',(#644));
#137=EDGE_LOOP('',(#645,#646,#647,#648));
#138=EDGE_LOOP('',(#649,#650,#651,#652));
#139=EDGE_LOOP('',(#653,#654,#655,#656));
#140=EDGE_LOOP('',(#657));
#141=EDGE_LOOP('',(#658,#659));
#142=EDGE_LOOP('',(#660,#661));
#143=EDGE_LOOP('',(#662));
#144=EDGE_LOOP('',(#663,#664,#665,#666));
#145=EDGE_LOOP('',(#667,#668,#669,#670));
#146=EDGE_LOOP('',(#671));
#147=EDGE_LOOP('',(#672,#673,#674,#675,#676,#677));
#148=EDGE_LOOP('',(#678,#679,#680,#681));
#149=EDGE_LOOP('',(#682,#683,#684));
#150=EDGE_LOOP('',(#685));
#151=EDGE_LOOP('',(#686,#687,#688,#689,#690,#691));
#152=EDGE_LOOP('',(#692,#693,#694,#695));
#153=EDGE_LOOP('',(#696,#697,#698));
#154=EDGE_LOOP('',(#699));
#155=EDGE_LOOP('',(#700,#701,#702,#703,#704,#705));
#156=EDGE_LOOP('',(#706,#707,#708,#709));
#157=EDGE_LOOP('',(#710,#711,#712,#713,#714,#715,#716,#717));
#158=EDGE_LOOP('',(#718,#719,#720,#721,#722,#723));
#159=EDGE_LOOP('',(#724,#725,#726,#727));
#160=EDGE_LOOP('',(#728,#729,#730,#731));
#161=EDGE_LOOP('',(#732,#733,#734,#735));
#162=EDGE_LOOP('',(#736,#737,#738,#739));
#163=EDGE_LOOP('',(#740,#741,#742,#743,#744,#745));
#164=EDGE_LOOP('',(#746,#747,#748,#749,#750,#751));
#165=EDGE_LOOP('',(#752,#753,#754,#755));
#166=EDGE_LOOP('',(#756,#757,#758,#759,#760,#761));
#167=EDGE_LOOP('',(#762,#763,#764,#765));
#168=EDGE_LOOP('',(#766,#767,#768,#769,#770));
#169=EDGE_LOOP('',(#771,#772,#773,#774));
#170=EDGE_LOOP('',(#775,#776,#777,#778,#779));
#171=EDGE_LOOP('',(#780,#781,#782,#783));
#172=EDGE_LOOP('',(#784,#785,#786,#787));
#173=EDGE_LOOP('',(#788,#789,#790,#791));
#174=EDGE_LOOP('',(#792,#793,#794,#795));
#175=EDGE_LOOP('',(#796,#797,#798,#799,#800,#801));
#176=EDGE_LOOP('',(#802,#803,#804,#805));
#177=EDGE_LOOP('',(#806,#807,#808,#809));
#178=EDGE_LOOP('',(#810,#811,#812,#813,#814,#815));
#179=EDGE_LOOP('',(#816,#817,#818,#819));
#180=EDGE_LOOP('',(#820));
#181=EDGE_LOOP('',(#821,#822,#823,#824,#825,#826,#827,#828,#829,#830,#831,
#832));
#182=EDGE_LOOP('',(#833,#834,#835,#836,#837,#838,#839,#840));
#183=EDGE_LOOP('',(#841,#842,#843,#844,#845,#846,#847));
#184=EDGE_LOOP('',(#848,#849,#850,#851,#852,#853,#854,#855,#856,#857));
#185=EDGE_LOOP('',(#858,#859,#860,#861,#862,#863,#864,#865,#866,#867,#868,
#869));
#186=EDGE_LOOP('',(#870,#871,#872,#873,#874,#875,#876,#877,#878));
#187=LINE('',#1351,#290);
#188=LINE('',#1353,#291);
#189=LINE('',#1355,#292);
#190=LINE('',#1356,#293);
#191=LINE('',#1359,#294);
#192=LINE('',#1361,#295);
#193=LINE('',#1362,#296);
#194=LINE('',#1365,#297);
#195=LINE('',#1366,#298);
#196=LINE('',#1369,#299);
#197=LINE('',#1370,#300);
#198=LINE('',#1372,#301);
#199=LINE('',#1397,#302);
#200=LINE('',#1401,#303);
#201=LINE('',#1405,#304);
#202=LINE('',#1407,#305);
#203=LINE('',#1409,#306);
#204=LINE('',#1410,#307);
#205=LINE('',#1416,#308);
#206=LINE('',#1420,#309);
#207=LINE('',#1424,#310);
#208=LINE('',#1426,#311);
#209=LINE('',#1431,#312);
#210=LINE('',#1436,#313);
#211=LINE('',#1441,#314);
#212=LINE('',#1446,#315);
#213=LINE('',#1450,#316);
#214=LINE('',#1452,#317);
#215=LINE('',#1454,#318);
#216=LINE('',#1456,#319);
#217=LINE('',#1457,#320);
#218=LINE('',#1461,#321);
#219=LINE('',#1463,#322);
#220=LINE('',#1465,#323);
#221=LINE('',#1466,#324);
#222=LINE('',#1469,#325);
#223=LINE('',#1471,#326);
#224=LINE('',#1472,#327);
#225=LINE('',#1474,#328);
#226=LINE('',#1476,#329);
#227=LINE('',#1477,#330);
#228=LINE('',#1480,#331);
#229=LINE('',#1482,#332);
#230=LINE('',#1484,#333);
#231=LINE('',#1485,#334);
#232=LINE('',#1489,#335);
#233=LINE('',#1491,#336);
#234=LINE('',#1493,#337);
#235=LINE('',#1494,#338);
#236=LINE('',#1497,#339);
#237=LINE('',#1499,#340);
#238=LINE('',#1500,#341);
#239=LINE('',#1503,#342);
#240=LINE('',#1504,#343);
#241=LINE('',#1506,#344);
#242=LINE('',#1507,#345);
#243=LINE('',#1511,#346);
#244=LINE('',#1513,#347);
#245=LINE('',#1515,#348);
#246=LINE('',#1517,#349);
#247=LINE('',#1519,#350);
#248=LINE('',#1520,#351);
#249=LINE('',#1523,#352);
#250=LINE('',#1525,#353);
#251=LINE('',#1529,#354);
#252=LINE('',#1533,#355);
#253=LINE('',#1535,#356);
#254=LINE('',#1536,#357);
#255=LINE('',#1540,#358);
#256=LINE('',#1544,#359);
#257=LINE('',#1545,#360);
#258=LINE('',#1549,#361);
#259=LINE('',#1551,#362);
#260=LINE('',#1552,#363);
#261=LINE('',#1557,#364);
#262=LINE('',#1561,#365);
#263=LINE('',#1562,#366);
#264=LINE('',#1567,#367);
#265=LINE('',#1571,#368);
#266=LINE('',#1572,#369);
#267=LINE('',#1576,#370);
#268=LINE('',#1579,#371);
#269=LINE('',#1580,#372);
#270=LINE('',#1581,#373);
#271=LINE('',#1586,#374);
#272=LINE('',#1588,#375);
#273=LINE('',#1589,#376);
#274=LINE('',#1592,#377);
#275=LINE('',#1594,#378);
#276=LINE('',#1595,#379);
#277=LINE('',#1598,#380);
#278=LINE('',#1600,#381);
#279=LINE('',#1601,#382);
#280=LINE('',#1603,#383);
#281=LINE('',#1604,#384);
#282=LINE('',#1606,#385);
#283=LINE('',#1610,#386);
#284=LINE('',#1611,#387);
#285=LINE('',#1612,#388);
#286=LINE('',#1614,#389);
#287=LINE('',#1615,#390);
#288=LINE('',#1617,#391);
#289=LINE('',#1618,#392);
#290=VECTOR('',#1078,10.);
#291=VECTOR('',#1079,10.);
#292=VECTOR('',#1080,10.);
#293=VECTOR('',#1081,10.);
#294=VECTOR('',#1084,10.);
#295=VECTOR('',#1085,10.);
#296=VECTOR('',#1086,10.);
#297=VECTOR('',#1089,10.);
#298=VECTOR('',#1090,10.);
#299=VECTOR('',#1093,10.);
#300=VECTOR('',#1094,10.);
#301=VECTOR('',#1097,10.);
#302=VECTOR('',#1128,1.09999997541308);
#303=VECTOR('',#1133,1.95);
#304=VECTOR('',#1136,10.);
#305=VECTOR('',#1137,10.);
#306=VECTOR('',#1138,10.);
#307=VECTOR('',#1139,10.);
#308=VECTOR('',#1144,10.);
#309=VECTOR('',#1147,10.);
#310=VECTOR('',#1152,1.09999997541308);
#311=VECTOR('',#1155,1.95);
#312=VECTOR('',#1162,1.95);
#313=VECTOR('',#1169,1.09999997541308);
#314=VECTOR('',#1176,1.95);
#315=VECTOR('',#1183,1.09999997541308);
#316=VECTOR('',#1188,10.);
#317=VECTOR('',#1189,10.);
#318=VECTOR('',#1190,10.);
#319=VECTOR('',#1191,10.);
#320=VECTOR('',#1192,10.);
#321=VECTOR('',#1195,10.);
#322=VECTOR('',#1196,10.);
#323=VECTOR('',#1197,10.);
#324=VECTOR('',#1198,10.);
#325=VECTOR('',#1201,10.);
#326=VECTOR('',#1202,10.);
#327=VECTOR('',#1203,10.);
#328=VECTOR('',#1204,10.);
#329=VECTOR('',#1205,10.);
#330=VECTOR('',#1206,10.);
#331=VECTOR('',#1209,10.);
#332=VECTOR('',#1210,10.);
#333=VECTOR('',#1211,10.);
#334=VECTOR('',#1212,10.);
#335=VECTOR('',#1215,10.);
#336=VECTOR('',#1216,10.);
#337=VECTOR('',#1217,10.);
#338=VECTOR('',#1218,10.);
#339=VECTOR('',#1221,10.);
#340=VECTOR('',#1222,10.);
#341=VECTOR('',#1223,10.);
#342=VECTOR('',#1226,10.);
#343=VECTOR('',#1227,10.);
#344=VECTOR('',#1230,10.);
#345=VECTOR('',#1231,10.);
#346=VECTOR('',#1234,10.);
#347=VECTOR('',#1235,10.);
#348=VECTOR('',#1236,10.);
#349=VECTOR('',#1237,10.);
#350=VECTOR('',#1238,10.);
#351=VECTOR('',#1239,10.);
#352=VECTOR('',#1242,10.);
#353=VECTOR('',#1243,10.);
#354=VECTOR('',#1246,10.);
#355=VECTOR('',#1251,10.);
#356=VECTOR('',#1252,10.);
#357=VECTOR('',#1253,10.);
#358=VECTOR('',#1256,10.);
#359=VECTOR('',#1259,10.);
#360=VECTOR('',#1260,10.);
#361=VECTOR('',#1265,10.);
#362=VECTOR('',#1266,10.);
#363=VECTOR('',#1267,10.);
#364=VECTOR('',#1272,10.);
#365=VECTOR('',#1277,10.);
#366=VECTOR('',#1278,10.);
#367=VECTOR('',#1283,10.);
#368=VECTOR('',#1288,10.);
#369=VECTOR('',#1289,10.);
#370=VECTOR('',#1294,10.);
#371=VECTOR('',#1297,10.);
#372=VECTOR('',#1298,10.);
#373=VECTOR('',#1299,10.);
#374=VECTOR('',#1306,10.);
#375=VECTOR('',#1307,10.);
#376=VECTOR('',#1308,10.);
#377=VECTOR('',#1311,10.);
#378=VECTOR('',#1312,10.);
#379=VECTOR('',#1313,10.);
#380=VECTOR('',#1316,10.);
#381=VECTOR('',#1317,10.);
#382=VECTOR('',#1318,10.);
#383=VECTOR('',#1321,10.);
#384=VECTOR('',#1322,10.);
#385=VECTOR('',#1325,10.);
#386=VECTOR('',#1330,10.);
#387=VECTOR('',#1331,10.);
#388=VECTOR('',#1332,10.);
#389=VECTOR('',#1335,10.);
#390=VECTOR('',#1336,10.);
#391=VECTOR('',#1339,10.);
#392=VECTOR('',#1340,10.);
#393=VERTEX_POINT('',#1349);
#394=VERTEX_POINT('',#1350);
#395=VERTEX_POINT('',#1352);
#396=VERTEX_POINT('',#1354);
#397=VERTEX_POINT('',#1358);
#398=VERTEX_POINT('',#1360);
#399=VERTEX_POINT('',#1364);
#400=VERTEX_POINT('',#1368);
#401=VERTEX_POINT('',#1375);
#402=VERTEX_POINT('',#1377);
#403=VERTEX_POINT('',#1380);
#404=VERTEX_POINT('',#1382);
#405=VERTEX_POINT('',#1385);
#406=VERTEX_POINT('',#1387);
#407=VERTEX_POINT('',#1390);
#408=VERTEX_POINT('',#1392);
#409=VERTEX_POINT('',#1395);
#410=VERTEX_POINT('',#1399);
#411=VERTEX_POINT('',#1403);
#412=VERTEX_POINT('',#1404);
#413=VERTEX_POINT('',#1406);
#414=VERTEX_POINT('',#1408);
#415=VERTEX_POINT('',#1411);
#416=VERTEX_POINT('',#1413);
#417=VERTEX_POINT('',#1414);
#418=VERTEX_POINT('',#1417);
#419=VERTEX_POINT('',#1418);
#420=VERTEX_POINT('',#1422);
#421=VERTEX_POINT('',#1429);
#422=VERTEX_POINT('',#1434);
#423=VERTEX_POINT('',#1439);
#424=VERTEX_POINT('',#1444);
#425=VERTEX_POINT('',#1449);
#426=VERTEX_POINT('',#1451);
#427=VERTEX_POINT('',#1453);
#428=VERTEX_POINT('',#1455);
#429=VERTEX_POINT('',#1459);
#430=VERTEX_POINT('',#1460);
#431=VERTEX_POINT('',#1462);
#432=VERTEX_POINT('',#1464);
#433=VERTEX_POINT('',#1468);
#434=VERTEX_POINT('',#1470);
#435=VERTEX_POINT('',#1473);
#436=VERTEX_POINT('',#1475);
#437=VERTEX_POINT('',#1479);
#438=VERTEX_POINT('',#1481);
#439=VERTEX_POINT('',#1483);
#440=VERTEX_POINT('',#1487);
#441=VERTEX_POINT('',#1488);
#442=VERTEX_POINT('',#1490);
#443=VERTEX_POINT('',#1492);
#444=VERTEX_POINT('',#1496);
#445=VERTEX_POINT('',#1498);
#446=VERTEX_POINT('',#1502);
#447=VERTEX_POINT('',#1509);
#448=VERTEX_POINT('',#1510);
#449=VERTEX_POINT('',#1512);
#450=VERTEX_POINT('',#1514);
#451=VERTEX_POINT('',#1516);
#452=VERTEX_POINT('',#1518);
#453=VERTEX_POINT('',#1522);
#454=VERTEX_POINT('',#1524);
#455=VERTEX_POINT('',#1526);
#456=VERTEX_POINT('',#1528);
#457=VERTEX_POINT('',#1532);
#458=VERTEX_POINT('',#1534);
#459=VERTEX_POINT('',#1538);
#460=VERTEX_POINT('',#1539);
#461=VERTEX_POINT('',#1541);
#462=VERTEX_POINT('',#1543);
#463=VERTEX_POINT('',#1548);
#464=VERTEX_POINT('',#1550);
#465=VERTEX_POINT('',#1554);
#466=VERTEX_POINT('',#1555);
#467=VERTEX_POINT('',#1560);
#468=VERTEX_POINT('',#1564);
#469=VERTEX_POINT('',#1565);
#470=VERTEX_POINT('',#1570);
#471=VERTEX_POINT('',#1574);
#472=VERTEX_POINT('',#1578);
#473=VERTEX_POINT('',#1585);
#474=VERTEX_POINT('',#1587);
#475=VERTEX_POINT('',#1591);
#476=VERTEX_POINT('',#1593);
#477=VERTEX_POINT('',#1597);
#478=VERTEX_POINT('',#1599);
#479=VERTEX_POINT('',#1609);
#480=EDGE_CURVE('',#393,#394,#187,.T.);
#481=EDGE_CURVE('',#395,#394,#188,.T.);
#482=EDGE_CURVE('',#396,#395,#189,.T.);
#483=EDGE_CURVE('',#393,#396,#190,.T.);
#484=EDGE_CURVE('',#397,#395,#191,.T.);
#485=EDGE_CURVE('',#397,#398,#192,.T.);
#486=EDGE_CURVE('',#398,#396,#193,.T.);
#487=EDGE_CURVE('',#399,#398,#194,.T.);
#488=EDGE_CURVE('',#393,#399,#195,.T.);
#489=EDGE_CURVE('',#394,#400,#196,.T.);
#490=EDGE_CURVE('',#400,#397,#197,.T.);
#491=EDGE_CURVE('',#399,#400,#198,.T.);
#492=EDGE_CURVE('',#401,#401,#45,.T.);
#493=EDGE_CURVE('',#402,#402,#46,.T.);
#494=EDGE_CURVE('',#403,#403,#47,.T.);
#495=EDGE_CURVE('',#404,#404,#48,.T.);
#496=EDGE_CURVE('',#405,#405,#49,.T.);
#497=EDGE_CURVE('',#406,#406,#50,.T.);
#498=EDGE_CURVE('',#407,#407,#51,.T.);
#499=EDGE_CURVE('',#408,#408,#52,.T.);
#500=EDGE_CURVE('',#409,#409,#13,.T.);
#501=EDGE_CURVE('',#409,#402,#199,.T.);
#502=EDGE_CURVE('',#410,#410,#14,.T.);
#503=EDGE_CURVE('',#410,#401,#200,.T.);
#504=EDGE_CURVE('',#411,#412,#201,.T.);
#505=EDGE_CURVE('',#412,#413,#202,.T.);
#506=EDGE_CURVE('',#413,#414,#203,.T.);
#507=EDGE_CURVE('',#411,#414,#204,.T.);
#508=EDGE_CURVE('',#415,#415,#15,.T.);
#509=EDGE_CURVE('',#416,#417,#16,.T.);
#510=EDGE_CURVE('',#417,#416,#205,.T.);
#511=EDGE_CURVE('',#418,#419,#17,.T.);
#512=EDGE_CURVE('',#419,#418,#206,.T.);
#513=EDGE_CURVE('',#420,#420,#18,.T.);
#514=EDGE_CURVE('',#420,#406,#207,.T.);
#515=EDGE_CURVE('',#415,#405,#208,.T.);
#516=EDGE_CURVE('',#421,#416,#53,.T.);
#517=EDGE_CURVE('',#421,#403,#209,.T.);
#518=EDGE_CURVE('',#417,#421,#54,.T.);
#519=EDGE_CURVE('',#422,#422,#55,.T.);
#520=EDGE_CURVE('',#422,#404,#210,.T.);
#521=EDGE_CURVE('',#423,#418,#56,.T.);
#522=EDGE_CURVE('',#423,#407,#211,.T.);
#523=EDGE_CURVE('',#419,#423,#57,.T.);
#524=EDGE_CURVE('',#424,#424,#58,.T.);
#525=EDGE_CURVE('',#424,#408,#212,.T.);
#526=EDGE_CURVE('',#425,#411,#213,.T.);
#527=EDGE_CURVE('',#426,#425,#214,.T.);
#528=EDGE_CURVE('',#426,#427,#215,.T.);
#529=EDGE_CURVE('',#427,#428,#216,.T.);
#530=EDGE_CURVE('',#412,#428,#217,.T.);
#531=EDGE_CURVE('',#429,#430,#218,.T.);
#532=EDGE_CURVE('',#431,#430,#219,.T.);
#533=EDGE_CURVE('',#432,#431,#220,.T.);
#534=EDGE_CURVE('',#429,#432,#221,.T.);
#535=EDGE_CURVE('',#433,#430,#222,.T.);
#536=EDGE_CURVE('',#433,#434,#223,.T.);
#537=EDGE_CURVE('',#428,#434,#224,.T.);
#538=EDGE_CURVE('',#427,#435,#225,.T.);
#539=EDGE_CURVE('',#435,#436,#226,.T.);
#540=EDGE_CURVE('',#431,#436,#227,.T.);
#541=EDGE_CURVE('',#429,#437,#228,.T.);
#542=EDGE_CURVE('',#437,#438,#229,.T.);
#543=EDGE_CURVE('',#438,#439,#230,.T.);
#544=EDGE_CURVE('',#433,#439,#231,.T.);
#545=EDGE_CURVE('',#440,#441,#232,.T.);
#546=EDGE_CURVE('',#442,#440,#233,.T.);
#547=EDGE_CURVE('',#443,#442,#234,.T.);
#548=EDGE_CURVE('',#441,#443,#235,.T.);
#549=EDGE_CURVE('',#444,#443,#236,.T.);
#550=EDGE_CURVE('',#445,#444,#237,.T.);
#551=EDGE_CURVE('',#441,#445,#238,.T.);
#552=EDGE_CURVE('',#436,#446,#239,.T.);
#553=EDGE_CURVE('',#446,#432,#240,.T.);
#554=EDGE_CURVE('',#445,#438,#241,.T.);
#555=EDGE_CURVE('',#439,#444,#242,.T.);
#556=EDGE_CURVE('',#447,#448,#243,.T.);
#557=EDGE_CURVE('',#449,#448,#244,.T.);
#558=EDGE_CURVE('',#450,#449,#245,.T.);
#559=EDGE_CURVE('',#451,#450,#246,.T.);
#560=EDGE_CURVE('',#452,#451,#247,.T.);
#561=EDGE_CURVE('',#447,#452,#248,.T.);
#562=EDGE_CURVE('',#448,#453,#249,.T.);
#563=EDGE_CURVE('',#454,#453,#250,.T.);
#564=EDGE_CURVE('',#454,#455,#59,.F.);
#565=EDGE_CURVE('',#455,#456,#251,.T.);
#566=EDGE_CURVE('',#456,#449,#60,.F.);
#567=EDGE_CURVE('',#457,#447,#252,.T.);
#568=EDGE_CURVE('',#458,#452,#253,.T.);
#569=EDGE_CURVE('',#458,#457,#254,.T.);
#570=EDGE_CURVE('',#459,#460,#255,.T.);
#571=EDGE_CURVE('',#460,#461,#61,.F.);
#572=EDGE_CURVE('',#462,#461,#256,.T.);
#573=EDGE_CURVE('',#451,#462,#257,.T.);
#574=EDGE_CURVE('',#450,#459,#62,.F.);
#575=EDGE_CURVE('',#463,#455,#258,.T.);
#576=EDGE_CURVE('',#464,#463,#259,.T.);
#577=EDGE_CURVE('',#456,#464,#260,.T.);
#578=EDGE_CURVE('',#465,#466,#63,.T.);
#579=EDGE_CURVE('',#466,#449,#261,.T.);
#580=EDGE_CURVE('',#464,#465,#19,.T.);
#581=EDGE_CURVE('',#450,#467,#262,.T.);
#582=EDGE_CURVE('',#467,#466,#263,.T.);
#583=EDGE_CURVE('',#468,#469,#20,.F.);
#584=EDGE_CURVE('',#468,#459,#264,.T.);
#585=EDGE_CURVE('',#469,#467,#64,.F.);
#586=EDGE_CURVE('',#460,#470,#265,.T.);
#587=EDGE_CURVE('',#470,#468,#266,.T.);
#588=EDGE_CURVE('',#470,#471,#21,.T.);
#589=EDGE_CURVE('',#471,#461,#267,.T.);
#590=EDGE_CURVE('',#454,#472,#268,.T.);
#591=EDGE_CURVE('',#461,#454,#269,.T.);
#592=EDGE_CURVE('',#472,#471,#270,.T.);
#593=EDGE_CURVE('',#472,#463,#22,.T.);
#594=EDGE_CURVE('',#473,#446,#271,.T.);
#595=EDGE_CURVE('',#474,#473,#272,.T.);
#596=EDGE_CURVE('',#474,#437,#273,.T.);
#597=EDGE_CURVE('',#475,#474,#274,.T.);
#598=EDGE_CURVE('',#476,#473,#275,.T.);
#599=EDGE_CURVE('',#476,#475,#276,.T.);
#600=EDGE_CURVE('',#477,#475,#277,.T.);
#601=EDGE_CURVE('',#478,#476,#278,.T.);
#602=EDGE_CURVE('',#478,#477,#279,.T.);
#603=EDGE_CURVE('',#453,#477,#280,.T.);
#604=EDGE_CURVE('',#462,#478,#281,.T.);
#605=EDGE_CURVE('',#434,#413,#282,.T.);
#606=EDGE_CURVE('',#414,#479,#283,.T.);
#607=EDGE_CURVE('',#465,#479,#284,.T.);
#608=EDGE_CURVE('',#425,#469,#285,.T.);
#609=EDGE_CURVE('',#479,#442,#286,.T.);
#610=EDGE_CURVE('',#426,#442,#287,.T.);
#611=EDGE_CURVE('',#457,#440,#288,.T.);
#612=EDGE_CURVE('',#435,#458,#289,.T.);
#613=ORIENTED_EDGE('',*,*,#480,.T.);
#614=ORIENTED_EDGE('',*,*,#481,.F.);
#615=ORIENTED_EDGE('',*,*,#482,.F.);
#616=ORIENTED_EDGE('',*,*,#483,.F.);
#617=ORIENTED_EDGE('',*,*,#482,.T.);
#618=ORIENTED_EDGE('',*,*,#484,.F.);
#619=ORIENTED_EDGE('',*,*,#485,.T.);
#620=ORIENTED_EDGE('',*,*,#486,.T.);
#621=ORIENTED_EDGE('',*,*,#483,.T.);
#622=ORIENTED_EDGE('',*,*,#486,.F.);
#623=ORIENTED_EDGE('',*,*,#487,.F.);
#624=ORIENTED_EDGE('',*,*,#488,.F.);
#625=ORIENTED_EDGE('',*,*,#481,.T.);
#626=ORIENTED_EDGE('',*,*,#489,.T.);
#627=ORIENTED_EDGE('',*,*,#490,.T.);
#628=ORIENTED_EDGE('',*,*,#484,.T.);
#629=ORIENTED_EDGE('',*,*,#489,.F.);
#630=ORIENTED_EDGE('',*,*,#480,.F.);
#631=ORIENTED_EDGE('',*,*,#488,.T.);
#632=ORIENTED_EDGE('',*,*,#491,.T.);
#633=ORIENTED_EDGE('',*,*,#491,.F.);
#634=ORIENTED_EDGE('',*,*,#487,.T.);
#635=ORIENTED_EDGE('',*,*,#485,.F.);
#636=ORIENTED_EDGE('',*,*,#490,.F.);
#637=ORIENTED_EDGE('',*,*,#492,.F.);
#638=ORIENTED_EDGE('',*,*,#493,.F.);
#639=ORIENTED_EDGE('',*,*,#494,.F.);
#640=ORIENTED_EDGE('',*,*,#495,.F.);
#641=ORIENTED_EDGE('',*,*,#496,.F.);
#642=ORIENTED_EDGE('',*,*,#497,.F.);
#643=ORIENTED_EDGE('',*,*,#498,.F.);
#644=ORIENTED_EDGE('',*,*,#499,.F.);
#645=ORIENTED_EDGE('',*,*,#500,.F.);
#646=ORIENTED_EDGE('',*,*,#501,.T.);
#647=ORIENTED_EDGE('',*,*,#493,.T.);
#648=ORIENTED_EDGE('',*,*,#501,.F.);
#649=ORIENTED_EDGE('',*,*,#502,.F.);
#650=ORIENTED_EDGE('',*,*,#503,.T.);
#651=ORIENTED_EDGE('',*,*,#492,.T.);
#652=ORIENTED_EDGE('',*,*,#503,.F.);
#653=ORIENTED_EDGE('',*,*,#504,.T.);
#654=ORIENTED_EDGE('',*,*,#505,.T.);
#655=ORIENTED_EDGE('',*,*,#506,.T.);
#656=ORIENTED_EDGE('',*,*,#507,.F.);
#657=ORIENTED_EDGE('',*,*,#508,.T.);
#658=ORIENTED_EDGE('',*,*,#509,.T.);
#659=ORIENTED_EDGE('',*,*,#510,.T.);
#660=ORIENTED_EDGE('',*,*,#511,.T.);
#661=ORIENTED_EDGE('',*,*,#512,.T.);
#662=ORIENTED_EDGE('',*,*,#502,.T.);
#663=ORIENTED_EDGE('',*,*,#513,.F.);
#664=ORIENTED_EDGE('',*,*,#514,.T.);
#665=ORIENTED_EDGE('',*,*,#497,.T.);
#666=ORIENTED_EDGE('',*,*,#514,.F.);
#667=ORIENTED_EDGE('',*,*,#508,.F.);
#668=ORIENTED_EDGE('',*,*,#515,.T.);
#669=ORIENTED_EDGE('',*,*,#496,.T.);
#670=ORIENTED_EDGE('',*,*,#515,.F.);
#671=ORIENTED_EDGE('',*,*,#500,.T.);
#672=ORIENTED_EDGE('',*,*,#509,.F.);
#673=ORIENTED_EDGE('',*,*,#516,.F.);
#674=ORIENTED_EDGE('',*,*,#517,.T.);
#675=ORIENTED_EDGE('',*,*,#494,.T.);
#676=ORIENTED_EDGE('',*,*,#517,.F.);
#677=ORIENTED_EDGE('',*,*,#518,.F.);
#678=ORIENTED_EDGE('',*,*,#519,.F.);
#679=ORIENTED_EDGE('',*,*,#520,.T.);
#680=ORIENTED_EDGE('',*,*,#495,.T.);
#681=ORIENTED_EDGE('',*,*,#520,.F.);
#682=ORIENTED_EDGE('',*,*,#510,.F.);
#683=ORIENTED_EDGE('',*,*,#518,.T.);
#684=ORIENTED_EDGE('',*,*,#516,.T.);
#685=ORIENTED_EDGE('',*,*,#519,.T.);
#686=ORIENTED_EDGE('',*,*,#511,.F.);
#687=ORIENTED_EDGE('',*,*,#521,.F.);
#688=ORIENTED_EDGE('',*,*,#522,.T.);
#689=ORIENTED_EDGE('',*,*,#498,.T.);
#690=ORIENTED_EDGE('',*,*,#522,.F.);
#691=ORIENTED_EDGE('',*,*,#523,.F.);
#692=ORIENTED_EDGE('',*,*,#524,.F.);
#693=ORIENTED_EDGE('',*,*,#525,.T.);
#694=ORIENTED_EDGE('',*,*,#499,.T.);
#695=ORIENTED_EDGE('',*,*,#525,.F.);
#696=ORIENTED_EDGE('',*,*,#512,.F.);
#697=ORIENTED_EDGE('',*,*,#523,.T.);
#698=ORIENTED_EDGE('',*,*,#521,.T.);
#699=ORIENTED_EDGE('',*,*,#524,.T.);
#700=ORIENTED_EDGE('',*,*,#504,.F.);
#701=ORIENTED_EDGE('',*,*,#526,.F.);
#702=ORIENTED_EDGE('',*,*,#527,.F.);
#703=ORIENTED_EDGE('',*,*,#528,.T.);
#704=ORIENTED_EDGE('',*,*,#529,.T.);
#705=ORIENTED_EDGE('',*,*,#530,.F.);
#706=ORIENTED_EDGE('',*,*,#531,.T.);
#707=ORIENTED_EDGE('',*,*,#532,.F.);
#708=ORIENTED_EDGE('',*,*,#533,.F.);
#709=ORIENTED_EDGE('',*,*,#534,.F.);
#710=ORIENTED_EDGE('',*,*,#532,.T.);
#711=ORIENTED_EDGE('',*,*,#535,.F.);
#712=ORIENTED_EDGE('',*,*,#536,.T.);
#713=ORIENTED_EDGE('',*,*,#537,.F.);
#714=ORIENTED_EDGE('',*,*,#529,.F.);
#715=ORIENTED_EDGE('',*,*,#538,.T.);
#716=ORIENTED_EDGE('',*,*,#539,.T.);
#717=ORIENTED_EDGE('',*,*,#540,.F.);
#718=ORIENTED_EDGE('',*,*,#541,.T.);
#719=ORIENTED_EDGE('',*,*,#542,.T.);
#720=ORIENTED_EDGE('',*,*,#543,.T.);
#721=ORIENTED_EDGE('',*,*,#544,.F.);
#722=ORIENTED_EDGE('',*,*,#535,.T.);
#723=ORIENTED_EDGE('',*,*,#531,.F.);
#724=ORIENTED_EDGE('',*,*,#545,.F.);
#725=ORIENTED_EDGE('',*,*,#546,.F.);
#726=ORIENTED_EDGE('',*,*,#547,.F.);
#727=ORIENTED_EDGE('',*,*,#548,.F.);
#728=ORIENTED_EDGE('',*,*,#548,.T.);
#729=ORIENTED_EDGE('',*,*,#549,.F.);
#730=ORIENTED_EDGE('',*,*,#550,.F.);
#731=ORIENTED_EDGE('',*,*,#551,.F.);
#732=ORIENTED_EDGE('',*,*,#552,.T.);
#733=ORIENTED_EDGE('',*,*,#553,.T.);
#734=ORIENTED_EDGE('',*,*,#533,.T.);
#735=ORIENTED_EDGE('',*,*,#540,.T.);
#736=ORIENTED_EDGE('',*,*,#554,.F.);
#737=ORIENTED_EDGE('',*,*,#550,.T.);
#738=ORIENTED_EDGE('',*,*,#555,.F.);
#739=ORIENTED_EDGE('',*,*,#543,.F.);
#740=ORIENTED_EDGE('',*,*,#556,.T.);
#741=ORIENTED_EDGE('',*,*,#557,.F.);
#742=ORIENTED_EDGE('',*,*,#558,.F.);
#743=ORIENTED_EDGE('',*,*,#559,.F.);
#744=ORIENTED_EDGE('',*,*,#560,.F.);
#745=ORIENTED_EDGE('',*,*,#561,.F.);
#746=ORIENTED_EDGE('',*,*,#562,.T.);
#747=ORIENTED_EDGE('',*,*,#563,.F.);
#748=ORIENTED_EDGE('',*,*,#564,.T.);
#749=ORIENTED_EDGE('',*,*,#565,.T.);
#750=ORIENTED_EDGE('',*,*,#566,.T.);
#751=ORIENTED_EDGE('',*,*,#557,.T.);
#752=ORIENTED_EDGE('',*,*,#567,.T.);
#753=ORIENTED_EDGE('',*,*,#561,.T.);
#754=ORIENTED_EDGE('',*,*,#568,.F.);
#755=ORIENTED_EDGE('',*,*,#569,.T.);
#756=ORIENTED_EDGE('',*,*,#570,.T.);
#757=ORIENTED_EDGE('',*,*,#571,.T.);
#758=ORIENTED_EDGE('',*,*,#572,.F.);
#759=ORIENTED_EDGE('',*,*,#573,.F.);
#760=ORIENTED_EDGE('',*,*,#559,.T.);
#761=ORIENTED_EDGE('',*,*,#574,.T.);
#762=ORIENTED_EDGE('',*,*,#575,.F.);
#763=ORIENTED_EDGE('',*,*,#576,.F.);
#764=ORIENTED_EDGE('',*,*,#577,.F.);
#765=ORIENTED_EDGE('',*,*,#565,.F.);
#766=ORIENTED_EDGE('',*,*,#578,.T.);
#767=ORIENTED_EDGE('',*,*,#579,.T.);
#768=ORIENTED_EDGE('',*,*,#566,.F.);
#769=ORIENTED_EDGE('',*,*,#577,.T.);
#770=ORIENTED_EDGE('',*,*,#580,.T.);
#771=ORIENTED_EDGE('',*,*,#581,.F.);
#772=ORIENTED_EDGE('',*,*,#558,.T.);
#773=ORIENTED_EDGE('',*,*,#579,.F.);
#774=ORIENTED_EDGE('',*,*,#582,.F.);
#775=ORIENTED_EDGE('',*,*,#583,.F.);
#776=ORIENTED_EDGE('',*,*,#584,.T.);
#777=ORIENTED_EDGE('',*,*,#574,.F.);
#778=ORIENTED_EDGE('',*,*,#581,.T.);
#779=ORIENTED_EDGE('',*,*,#585,.F.);
#780=ORIENTED_EDGE('',*,*,#586,.F.);
#781=ORIENTED_EDGE('',*,*,#570,.F.);
#782=ORIENTED_EDGE('',*,*,#584,.F.);
#783=ORIENTED_EDGE('',*,*,#587,.F.);
#784=ORIENTED_EDGE('',*,*,#571,.F.);
#785=ORIENTED_EDGE('',*,*,#586,.T.);
#786=ORIENTED_EDGE('',*,*,#588,.T.);
#787=ORIENTED_EDGE('',*,*,#589,.T.);
#788=ORIENTED_EDGE('',*,*,#590,.F.);
#789=ORIENTED_EDGE('',*,*,#591,.F.);
#790=ORIENTED_EDGE('',*,*,#589,.F.);
#791=ORIENTED_EDGE('',*,*,#592,.F.);
#792=ORIENTED_EDGE('',*,*,#564,.F.);
#793=ORIENTED_EDGE('',*,*,#590,.T.);
#794=ORIENTED_EDGE('',*,*,#593,.T.);
#795=ORIENTED_EDGE('',*,*,#575,.T.);
#796=ORIENTED_EDGE('',*,*,#534,.T.);
#797=ORIENTED_EDGE('',*,*,#553,.F.);
#798=ORIENTED_EDGE('',*,*,#594,.F.);
#799=ORIENTED_EDGE('',*,*,#595,.F.);
#800=ORIENTED_EDGE('',*,*,#596,.T.);
#801=ORIENTED_EDGE('',*,*,#541,.F.);
#802=ORIENTED_EDGE('',*,*,#597,.T.);
#803=ORIENTED_EDGE('',*,*,#595,.T.);
#804=ORIENTED_EDGE('',*,*,#598,.F.);
#805=ORIENTED_EDGE('',*,*,#599,.T.);
#806=ORIENTED_EDGE('',*,*,#600,.T.);
#807=ORIENTED_EDGE('',*,*,#599,.F.);
#808=ORIENTED_EDGE('',*,*,#601,.F.);
#809=ORIENTED_EDGE('',*,*,#602,.T.);
#810=ORIENTED_EDGE('',*,*,#603,.T.);
#811=ORIENTED_EDGE('',*,*,#602,.F.);
#812=ORIENTED_EDGE('',*,*,#604,.F.);
#813=ORIENTED_EDGE('',*,*,#572,.T.);
#814=ORIENTED_EDGE('',*,*,#591,.T.);
#815=ORIENTED_EDGE('',*,*,#563,.T.);
#816=ORIENTED_EDGE('',*,*,#530,.T.);
#817=ORIENTED_EDGE('',*,*,#537,.T.);
#818=ORIENTED_EDGE('',*,*,#605,.T.);
#819=ORIENTED_EDGE('',*,*,#505,.F.);
#820=ORIENTED_EDGE('',*,*,#513,.T.);
#821=ORIENTED_EDGE('',*,*,#526,.T.);
#822=ORIENTED_EDGE('',*,*,#507,.T.);
#823=ORIENTED_EDGE('',*,*,#606,.T.);
#824=ORIENTED_EDGE('',*,*,#607,.F.);
#825=ORIENTED_EDGE('',*,*,#580,.F.);
#826=ORIENTED_EDGE('',*,*,#576,.T.);
#827=ORIENTED_EDGE('',*,*,#593,.F.);
#828=ORIENTED_EDGE('',*,*,#592,.T.);
#829=ORIENTED_EDGE('',*,*,#588,.F.);
#830=ORIENTED_EDGE('',*,*,#587,.T.);
#831=ORIENTED_EDGE('',*,*,#583,.T.);
#832=ORIENTED_EDGE('',*,*,#608,.F.);
#833=ORIENTED_EDGE('',*,*,#609,.T.);
#834=ORIENTED_EDGE('',*,*,#610,.F.);
#835=ORIENTED_EDGE('',*,*,#527,.T.);
#836=ORIENTED_EDGE('',*,*,#608,.T.);
#837=ORIENTED_EDGE('',*,*,#585,.T.);
#838=ORIENTED_EDGE('',*,*,#582,.T.);
#839=ORIENTED_EDGE('',*,*,#578,.F.);
#840=ORIENTED_EDGE('',*,*,#607,.T.);
#841=ORIENTED_EDGE('',*,*,#538,.F.);
#842=ORIENTED_EDGE('',*,*,#528,.F.);
#843=ORIENTED_EDGE('',*,*,#610,.T.);
#844=ORIENTED_EDGE('',*,*,#546,.T.);
#845=ORIENTED_EDGE('',*,*,#611,.F.);
#846=ORIENTED_EDGE('',*,*,#569,.F.);
#847=ORIENTED_EDGE('',*,*,#612,.F.);
#848=ORIENTED_EDGE('',*,*,#612,.T.);
#849=ORIENTED_EDGE('',*,*,#568,.T.);
#850=ORIENTED_EDGE('',*,*,#560,.T.);
#851=ORIENTED_EDGE('',*,*,#573,.T.);
#852=ORIENTED_EDGE('',*,*,#604,.T.);
#853=ORIENTED_EDGE('',*,*,#601,.T.);
#854=ORIENTED_EDGE('',*,*,#598,.T.);
#855=ORIENTED_EDGE('',*,*,#594,.T.);
#856=ORIENTED_EDGE('',*,*,#552,.F.);
#857=ORIENTED_EDGE('',*,*,#539,.F.);
#858=ORIENTED_EDGE('',*,*,#551,.T.);
#859=ORIENTED_EDGE('',*,*,#554,.T.);
#860=ORIENTED_EDGE('',*,*,#542,.F.);
#861=ORIENTED_EDGE('',*,*,#596,.F.);
#862=ORIENTED_EDGE('',*,*,#597,.F.);
#863=ORIENTED_EDGE('',*,*,#600,.F.);
#864=ORIENTED_EDGE('',*,*,#603,.F.);
#865=ORIENTED_EDGE('',*,*,#562,.F.);
#866=ORIENTED_EDGE('',*,*,#556,.F.);
#867=ORIENTED_EDGE('',*,*,#567,.F.);
#868=ORIENTED_EDGE('',*,*,#611,.T.);
#869=ORIENTED_EDGE('',*,*,#545,.T.);
#870=ORIENTED_EDGE('',*,*,#549,.T.);
#871=ORIENTED_EDGE('',*,*,#547,.T.);
#872=ORIENTED_EDGE('',*,*,#609,.F.);
#873=ORIENTED_EDGE('',*,*,#606,.F.);
#874=ORIENTED_EDGE('',*,*,#506,.F.);
#875=ORIENTED_EDGE('',*,*,#605,.F.);
#876=ORIENTED_EDGE('',*,*,#536,.F.);
#877=ORIENTED_EDGE('',*,*,#544,.T.);
#878=ORIENTED_EDGE('',*,*,#555,.T.);
#879=PLANE('',#990);
#880=PLANE('',#991);
#881=PLANE('',#992);
#882=PLANE('',#993);
#883=PLANE('',#994);
#884=PLANE('',#995);
#885=PLANE('',#996);
#886=PLANE('',#999);
#887=PLANE('',#1002);
#888=PLANE('',#1005);
#889=PLANE('',#1012);
#890=PLANE('',#1019);
#891=PLANE('',#1025);
#892=PLANE('',#1031);
#893=PLANE('',#1032);
#894=PLANE('',#1033);
#895=PLANE('',#1034);
#896=PLANE('',#1035);
#897=PLANE('',#1036);
#898=PLANE('',#1037);
#899=PLANE('',#1038);
#900=PLANE('',#1039);
#901=PLANE('',#1040);
#902=PLANE('',#1041);
#903=PLANE('',#1044);
#904=PLANE('',#1045);
#905=PLANE('',#1048);
#906=PLANE('',#1052);
#907=PLANE('',#1056);
#908=PLANE('',#1059);
#909=PLANE('',#1062);
#910=PLANE('',#1063);
#911=PLANE('',#1064);
#912=PLANE('',#1065);
#913=PLANE('',#1066);
#914=PLANE('',#1067);
#915=PLANE('',#1068);
#916=PLANE('',#1069);
#917=PLANE('',#1070);
#918=PLANE('',#1071);
#919=PLANE('',#1072);
#920=PLANE('',#1073);
#921=ADVANCED_FACE('',(#69),#879,.F.);
#922=ADVANCED_FACE('',(#70),#880,.T.);
#923=ADVANCED_FACE('',(#71),#881,.T.);
#924=ADVANCED_FACE('',(#72),#882,.T.);
#925=ADVANCED_FACE('',(#73),#883,.F.);
#926=ADVANCED_FACE('',(#74),#884,.T.);
#927=ADVANCED_FACE('',(#75,#35),#885,.F.);
#928=ADVANCED_FACE('',(#76,#36),#886,.F.);
#929=ADVANCED_FACE('',(#77,#37),#887,.F.);
#930=ADVANCED_FACE('',(#78,#38),#888,.F.);
#931=ADVANCED_FACE('',(#79),#23,.F.);
#932=ADVANCED_FACE('',(#80),#24,.T.);
#933=ADVANCED_FACE('',(#81,#39,#40,#41,#42),#889,.T.);
#934=ADVANCED_FACE('',(#82),#25,.F.);
#935=ADVANCED_FACE('',(#83),#26,.T.);
#936=ADVANCED_FACE('',(#84),#890,.T.);
#937=ADVANCED_FACE('',(#85),#27,.T.);
#938=ADVANCED_FACE('',(#86),#28,.F.);
#939=ADVANCED_FACE('',(#87,#43),#891,.T.);
#940=ADVANCED_FACE('',(#88),#29,.T.);
#941=ADVANCED_FACE('',(#89),#30,.F.);
#942=ADVANCED_FACE('',(#90,#44),#892,.T.);
#943=ADVANCED_FACE('',(#91),#893,.T.);
#944=ADVANCED_FACE('',(#92),#894,.F.);
#945=ADVANCED_FACE('',(#93),#895,.F.);
#946=ADVANCED_FACE('',(#94),#896,.T.);
#947=ADVANCED_FACE('',(#95),#897,.T.);
#948=ADVANCED_FACE('',(#96),#898,.F.);
#949=ADVANCED_FACE('',(#97),#899,.T.);
#950=ADVANCED_FACE('',(#98),#900,.T.);
#951=ADVANCED_FACE('',(#99),#901,.F.);
#952=ADVANCED_FACE('',(#100),#902,.F.);
#953=ADVANCED_FACE('',(#101),#903,.T.);
#954=ADVANCED_FACE('',(#102),#904,.F.);
#955=ADVANCED_FACE('',(#103),#905,.F.);
#956=ADVANCED_FACE('',(#104),#31,.F.);
#957=ADVANCED_FACE('',(#105),#906,.F.);
#958=ADVANCED_FACE('',(#106),#32,.F.);
#959=ADVANCED_FACE('',(#107),#907,.F.);
#960=ADVANCED_FACE('',(#108),#33,.F.);
#961=ADVANCED_FACE('',(#109),#908,.F.);
#962=ADVANCED_FACE('',(#110),#34,.F.);
#963=ADVANCED_FACE('',(#111),#909,.T.);
#964=ADVANCED_FACE('',(#112),#910,.T.);
#965=ADVANCED_FACE('',(#113),#911,.T.);
#966=ADVANCED_FACE('',(#114),#912,.T.);
#967=ADVANCED_FACE('',(#115),#913,.T.);
#968=ADVANCED_FACE('',(#116),#914,.T.);
#969=ADVANCED_FACE('',(#117),#915,.T.);
#970=ADVANCED_FACE('',(#118),#916,.T.);
#971=ADVANCED_FACE('',(#119),#917,.T.);
#972=ADVANCED_FACE('',(#120),#918,.T.);
#973=ADVANCED_FACE('',(#121),#919,.T.);
#974=ADVANCED_FACE('',(#122),#920,.T.);
#975=CLOSED_SHELL('',(#921,#922,#923,#924,#925,#926));
#976=CLOSED_SHELL('',(#927,#928,#929,#930,#931,#932,#933,#934,#935,#936,
#937,#938,#939,#940,#941,#942,#943,#944,#945,#946,#947,#948,#949,#950,#951,
#952,#953,#954,#955,#956,#957,#958,#959,#960,#961,#962,#963,#964,#965,#966,
#967,#968,#969,#970,#971,#972,#973,#974));
#977=DERIVED_UNIT_ELEMENT(#979,1.);
#978=DERIVED_UNIT_ELEMENT(#1627,-3.);
#979=(
MASS_UNIT()
NAMED_UNIT(*)
SI_UNIT(.KILO.,.GRAM.)
);
#980=DERIVED_UNIT((#977,#978));
#981=MEASURE_REPRESENTATION_ITEM('density measure',
POSITIVE_RATIO_MEASURE(7850.),#980);
#982=PROPERTY_DEFINITION_REPRESENTATION(#987,#984);
#983=PROPERTY_DEFINITION_REPRESENTATION(#988,#985);
#984=REPRESENTATION('material name',(#986),#1624);
#985=REPRESENTATION('density',(#981),#1624);
#986=DESCRIPTIVE_REPRESENTATION_ITEM('Steel','Steel');
#987=PROPERTY_DEFINITION('material property','material name',#1634);
#988=PROPERTY_DEFINITION('material property','density of part',#1634);
#989=AXIS2_PLACEMENT_3D('',#1347,#1074,#1075);
#990=AXIS2_PLACEMENT_3D('',#1348,#1076,#1077);
#991=AXIS2_PLACEMENT_3D('',#1357,#1082,#1083);
#992=AXIS2_PLACEMENT_3D('',#1363,#1087,#1088);
#993=AXIS2_PLACEMENT_3D('',#1367,#1091,#1092);
#994=AXIS2_PLACEMENT_3D('',#1371,#1095,#1096);
#995=AXIS2_PLACEMENT_3D('',#1373,#1098,#1099);
#996=AXIS2_PLACEMENT_3D('',#1374,#1100,#1101);
#997=AXIS2_PLACEMENT_3D('',#1376,#1102,#1103);
#998=AXIS2_PLACEMENT_3D('',#1378,#1104,#1105);
#999=AXIS2_PLACEMENT_3D('',#1379,#1106,#1107);
#1000=AXIS2_PLACEMENT_3D('',#1381,#1108,#1109);
#1001=AXIS2_PLACEMENT_3D('',#1383,#1110,#1111);
#1002=AXIS2_PLACEMENT_3D('',#1384,#1112,#1113);
#1003=AXIS2_PLACEMENT_3D('',#1386,#1114,#1115);
#1004=AXIS2_PLACEMENT_3D('',#1388,#1116,#1117);
#1005=AXIS2_PLACEMENT_3D('',#1389,#1118,#1119);
#1006=AXIS2_PLACEMENT_3D('',#1391,#1120,#1121);
#1007=AXIS2_PLACEMENT_3D('',#1393,#1122,#1123);
#1008=AXIS2_PLACEMENT_3D('',#1394,#1124,#1125);
#1009=AXIS2_PLACEMENT_3D('',#1396,#1126,#1127);
#1010=AXIS2_PLACEMENT_3D('',#1398,#1129,#1130);
#1011=AXIS2_PLACEMENT_3D('',#1400,#1131,#1132);
#1012=AXIS2_PLACEMENT_3D('',#1402,#1134,#1135);
#1013=AXIS2_PLACEMENT_3D('',#1412,#1140,#1141);
#1014=AXIS2_PLACEMENT_3D('',#1415,#1142,#1143);
#1015=AXIS2_PLACEMENT_3D('',#1419,#1145,#1146);
#1016=AXIS2_PLACEMENT_3D('',#1421,#1148,#1149);
#1017=AXIS2_PLACEMENT_3D('',#1423,#1150,#1151);
#1018=AXIS2_PLACEMENT_3D('',#1425,#1153,#1154);
#1019=AXIS2_PLACEMENT_3D('',#1427,#1156,#1157);
#1020=AXIS2_PLACEMENT_3D('',#1428,#1158,#1159);
#1021=AXIS2_PLACEMENT_3D('',#1430,#1160,#1161);
#1022=AXIS2_PLACEMENT_3D('',#1432,#1163,#1164);
#1023=AXIS2_PLACEMENT_3D('',#1433,#1165,#1166);
#1024=AXIS2_PLACEMENT_3D('',#1435,#1167,#1168);
#1025=AXIS2_PLACEMENT_3D('',#1437,#1170,#1171);
#1026=AXIS2_PLACEMENT_3D('',#1438,#1172,#1173);
#1027=AXIS2_PLACEMENT_3D('',#1440,#1174,#1175);
#1028=AXIS2_PLACEMENT_3D('',#1442,#1177,#1178);
#1029=AXIS2_PLACEMENT_3D('',#1443,#1179,#1180);
#1030=AXIS2_PLACEMENT_3D('',#1445,#1181,#1182);
#1031=AXIS2_PLACEMENT_3D('',#1447,#1184,#1185);
#1032=AXIS2_PLACEMENT_3D('',#1448,#1186,#1187);
#1033=AXIS2_PLACEMENT_3D('',#1458,#1193,#1194);
#1034=AXIS2_PLACEMENT_3D('',#1467,#1199,#1200);
#1035=AXIS2_PLACEMENT_3D('',#1478,#1207,#1208);
#1036=AXIS2_PLACEMENT_3D('',#1486,#1213,#1214);
#1037=AXIS2_PLACEMENT_3D('',#1495,#1219,#1220);
#1038=AXIS2_PLACEMENT_3D('',#1501,#1224,#1225);
#1039=AXIS2_PLACEMENT_3D('',#1505,#1228,#1229);
#1040=AXIS2_PLACEMENT_3D('',#1508,#1232,#1233);
#1041=AXIS2_PLACEMENT_3D('',#1521,#1240,#1241);
#1042=AXIS2_PLACEMENT_3D('',#1527,#1244,#1245);
#1043=AXIS2_PLACEMENT_3D('',#1530,#1247,#1248);
#1044=AXIS2_PLACEMENT_3D('',#1531,#1249,#1250);
#1045=AXIS2_PLACEMENT_3D('',#1537,#1254,#1255);
#1046=AXIS2_PLACEMENT_3D('',#1542,#1257,#1258);
#1047=AXIS2_PLACEMENT_3D('',#1546,#1261,#1262);
#1048=AXIS2_PLACEMENT_3D('',#1547,#1263,#1264);
#1049=AXIS2_PLACEMENT_3D('',#1553,#1268,#1269);
#1050=AXIS2_PLACEMENT_3D('',#1556,#1270,#1271);
#1051=AXIS2_PLACEMENT_3D('',#1558,#1273,#1274);
#1052=AXIS2_PLACEMENT_3D('',#1559,#1275,#1276);
#1053=AXIS2_PLACEMENT_3D('',#1563,#1279,#1280);
#1054=AXIS2_PLACEMENT_3D('',#1566,#1281,#1282);
#1055=AXIS2_PLACEMENT_3D('',#1568,#1284,#1285);
#1056=AXIS2_PLACEMENT_3D('',#1569,#1286,#1287);
#1057=AXIS2_PLACEMENT_3D('',#1573,#1290,#1291);
#1058=AXIS2_PLACEMENT_3D('',#1575,#1292,#1293);
#1059=AXIS2_PLACEMENT_3D('',#1577,#1295,#1296);
#1060=AXIS2_PLACEMENT_3D('',#1582,#1300,#1301);
#1061=AXIS2_PLACEMENT_3D('',#1583,#1302,#1303);
#1062=AXIS2_PLACEMENT_3D('',#1584,#1304,#1305);
#1063=AXIS2_PLACEMENT_3D('',#1590,#1309,#1310);
#1064=AXIS2_PLACEMENT_3D('',#1596,#1314,#1315);
#1065=AXIS2_PLACEMENT_3D('',#1602,#1319,#1320);
#1066=AXIS2_PLACEMENT_3D('',#1605,#1323,#1324);
#1067=AXIS2_PLACEMENT_3D('',#1607,#1326,#1327);
#1068=AXIS2_PLACEMENT_3D('',#1608,#1328,#1329);
#1069=AXIS2_PLACEMENT_3D('',#1613,#1333,#1334);
#1070=AXIS2_PLACEMENT_3D('',#1616,#1337,#1338);
#1071=AXIS2_PLACEMENT_3D('',#1619,#1341,#1342);
#1072=AXIS2_PLACEMENT_3D('',#1620,#1343,#1344);
#1073=AXIS2_PLACEMENT_3D('',#1621,#1345,#1346);
#1074=DIRECTION('axis',(0.,0.,1.));
#1075=DIRECTION('refdir',(1.,0.,0.));
#1076=DIRECTION('center_axis',(0.,0.0871557427476545,-0.996194698091746));
#1077=DIRECTION('ref_axis',(0.,-0.996194698091746,-0.0871557427476545));
#1078=DIRECTION('',(1.,0.,0.));
#1079=DIRECTION('',(0.,-0.996194698091746,-0.0871557427476545));
#1080=DIRECTION('',(1.,0.,0.));
#1081=DIRECTION('',(0.,0.996194698091746,0.0871557427476545));
#1082=DIRECTION('center_axis',(0.,1.,0.));
#1083=DIRECTION('ref_axis',(0.,0.,1.));
#1084=DIRECTION('',(0.,0.,1.));
#1085=DIRECTION('',(-1.,0.,0.));
#1086=DIRECTION('',(0.,0.,1.));
#1087=DIRECTION('center_axis',(-1.,0.,0.));
#1088=DIRECTION('ref_axis',(0.,0.,1.));
#1089=DIRECTION('',(0.,1.,0.));
#1090=DIRECTION('',(0.,0.,-1.));
#1091=DIRECTION('center_axis',(1.,0.,0.));
#1092=DIRECTION('ref_axis',(0.,0.,-1.));
#1093=DIRECTION('',(0.,0.,-1.));
#1094=DIRECTION('',(0.,1.,0.));
#1095=DIRECTION('center_axis',(0.,1.,0.));
#1096=DIRECTION('ref_axis',(0.,0.,1.));
#1097=DIRECTION('',(1.,0.,0.));
#1098=DIRECTION('center_axis',(0.,0.,-1.));
#1099=DIRECTION('ref_axis',(-1.,0.,0.));
#1100=DIRECTION('center_axis',(-3.8156366520317E-57,-0.996194698069653,
-0.087155743000173));
#1101=DIRECTION('ref_axis',(1.,2.62391265658384E-48,-2.99914588588514E-47));
#1102=DIRECTION('center_axis',(-3.8156366520317E-57,-0.996194698069653,
-0.087155743000173));
#1103=DIRECTION('ref_axis',(1.,2.62391266038496E-48,-2.99914588585189E-47));
#1104=DIRECTION('center_axis',(3.8156366520317E-57,0.996194698069653,0.087155743000173));
#1105=DIRECTION('ref_axis',(1.,2.62391266038496E-48,-2.99914588585189E-47));
#1106=DIRECTION('center_axis',(-3.8156366520317E-57,-0.996194698069653,
-0.087155743000173));
#1107=DIRECTION('ref_axis',(1.,2.62391265658384E-48,-2.99914588588514E-47));
#1108=DIRECTION('center_axis',(-3.8156366520317E-57,-0.996194698069653,
-0.087155743000173));
#1109=DIRECTION('ref_axis',(1.,2.62391266038496E-48,-2.99914588585189E-47));
#1110=DIRECTION('center_axis',(3.8156366520317E-57,0.996194698069653,0.087155743000173));
#1111=DIRECTION('ref_axis',(1.,2.62391266038496E-48,-2.99914588585189E-47));
#1112=DIRECTION('center_axis',(-3.8156366520317E-57,-0.996194698069653,
-0.087155743000173));
#1113=DIRECTION('ref_axis',(1.,2.62391265658384E-48,-2.99914588588514E-47));
#1114=DIRECTION('center_axis',(-3.8156366520317E-57,-0.996194698069653,
-0.087155743000173));
#1115=DIRECTION('ref_axis',(1.,2.62391266038496E-48,-2.99914588585189E-47));
#1116=DIRECTION('center_axis',(3.8156366520317E-57,0.996194698069653,0.087155743000173));
#1117=DIRECTION('ref_axis',(1.,2.62391266038496E-48,-2.99914588585189E-47));
#1118=DIRECTION('center_axis',(-3.8156366520317E-57,-0.996194698069653,
-0.087155743000173));
#1119=DIRECTION('ref_axis',(1.,2.62391265658384E-48,-2.99914588588514E-47));
#1120=DIRECTION('center_axis',(-3.8156366520317E-57,-0.996194698069653,
-0.087155743000173));
#1121=DIRECTION('ref_axis',(1.,2.62391266038496E-48,-2.99914588585189E-47));
#1122=DIRECTION('center_axis',(3.8156366520317E-57,0.996194698069653,0.087155743000173));
#1123=DIRECTION('ref_axis',(1.,2.62391266038496E-48,-2.99914588585189E-47));
#1124=DIRECTION('center_axis',(0.,-0.996194698069653,-0.087155743000173));
#1125=DIRECTION('ref_axis',(1.,2.62391266038496E-48,-2.99914588585189E-47));
#1126=DIRECTION('center_axis',(0.,1.,0.));
#1127=DIRECTION('ref_axis',(2.99914588585189E-47,0.,1.));
#1128=DIRECTION('',(0.,0.996194698069653,0.087155743000173));
#1129=DIRECTION('center_axis',(0.,-0.996194698069653,-0.087155743000173));
#1130=DIRECTION('ref_axis',(1.,2.62391266038496E-48,-2.99914588585189E-47));
#1131=DIRECTION('center_axis',(0.,-1.,0.));
#1132=DIRECTION('ref_axis',(2.99914588585189E-47,0.,1.));
#1133=DIRECTION('',(0.,0.996194698069653,0.087155743000173));
#1134=DIRECTION('center_axis',(0.,1.,0.));
#1135=DIRECTION('ref_axis',(0.,0.,-1.));
#1136=DIRECTION('',(0.,0.,1.));
#1137=DIRECTION('',(1.,0.,0.));
#1138=DIRECTION('',(0.,0.,-1.));
#1139=DIRECTION('',(1.,0.,0.));
#1140=DIRECTION('center_axis',(0.,-1.,0.));
#1141=DIRECTION('ref_axis',(2.99914588585189E-47,0.,1.));
#1142=DIRECTION('center_axis',(0.,-1.,0.));
#1143=DIRECTION('ref_axis',(2.99914588585189E-47,0.,1.));
#1144=DIRECTION('',(1.,0.,-4.37795206682379E-56));
#1145=DIRECTION('center_axis',(0.,-1.,0.));
#1146=DIRECTION('ref_axis',(2.99914588585189E-47,0.,1.));
#1147=DIRECTION('',(1.,0.,-4.37795206682379E-56));
#1148=DIRECTION('center_axis',(0.,-0.996194698069653,-0.087155743000173));
#1149=DIRECTION('ref_axis',(1.,2.62391266038496E-48,-2.99914588585189E-47));
#1150=DIRECTION('center_axis',(0.,1.,0.));
#1151=DIRECTION('ref_axis',(2.99914588585189E-47,0.,1.));
#1152=DIRECTION('',(0.,0.996194698069653,0.087155743000173));
#1153=DIRECTION('center_axis',(0.,-0.996194698069653,-0.087155743000173));
#1154=DIRECTION('ref_axis',(1.,2.62391266038496E-48,-2.99914588585189E-47));
#1155=DIRECTION('',(0.,0.996194698069653,0.087155743000173));
#1156=DIRECTION('center_axis',(0.,1.,0.));
#1157=DIRECTION('ref_axis',(0.,0.,-1.));
#1158=DIRECTION('center_axis',(0.,-0.996194698069653,-0.0871557430001731));
#1159=DIRECTION('ref_axis',(1.,2.62391266038496E-48,-2.99914588585189E-47));
#1160=DIRECTION('center_axis',(-3.8156366520317E-57,-0.996194698069653,
-0.087155743000173));
#1161=DIRECTION('ref_axis',(1.,2.62391265658384E-48,-2.99914588588514E-47));
#1162=DIRECTION('',(0.,0.996194698069653,0.0871557430001731));
#1163=DIRECTION('center_axis',(-3.8156366520317E-57,-0.996194698069653,
-0.087155743000173));
#1164=DIRECTION('ref_axis',(1.,2.62391265658384E-48,-2.99914588588514E-47));
#1165=DIRECTION('center_axis',(0.,-0.996194698069653,-0.0871557430001731));
#1166=DIRECTION('ref_axis',(1.,2.62391266038496E-48,-2.99914588585189E-47));
#1167=DIRECTION('center_axis',(3.8156366520317E-57,0.996194698069653,0.087155743000173));
#1168=DIRECTION('ref_axis',(1.,2.62391265658384E-48,-2.99914588588514E-47));
#1169=DIRECTION('',(0.,0.996194698069653,0.0871557430001731));
#1170=DIRECTION('center_axis',(-3.8156366520317E-57,-0.996194698069653,
-0.087155743000173));
#1171=DIRECTION('ref_axis',(1.,2.62391265658384E-48,-2.99914588588514E-47));
#1172=DIRECTION('center_axis',(0.,-0.996194698069653,-0.0871557430001731));
#1173=DIRECTION('ref_axis',(1.,2.62391266038496E-48,-2.99914588585189E-47));
#1174=DIRECTION('center_axis',(-3.8156366520317E-57,-0.996194698069653,
-0.087155743000173));
#1175=DIRECTION('ref_axis',(1.,2.62391265658384E-48,-2.99914588588514E-47));
#1176=DIRECTION('',(0.,0.996194698069653,0.0871557430001731));
#1177=DIRECTION('center_axis',(-3.8156366520317E-57,-0.996194698069653,
-0.087155743000173));
#1178=DIRECTION('ref_axis',(1.,2.62391265658384E-48,-2.99914588588514E-47));
#1179=DIRECTION('center_axis',(0.,-0.996194698069653,-0.0871557430001731));
#1180=DIRECTION('ref_axis',(1.,2.62391266038496E-48,-2.99914588585189E-47));
#1181=DIRECTION('center_axis',(3.81563665203171E-57,0.996194698069653,0.087155743000173));
#1182=DIRECTION('ref_axis',(1.,2.62391265658384E-48,-2.99914588588514E-47));
#1183=DIRECTION('',(0.,0.996194698069653,0.0871557430001731));
#1184=DIRECTION('center_axis',(-3.8156366520317E-57,-0.996194698069653,
-0.087155743000173));
#1185=DIRECTION('ref_axis',(1.,2.62391265658384E-48,-2.99914588588514E-47));
#1186=DIRECTION('center_axis',(1.,0.,0.));
#1187=DIRECTION('ref_axis',(0.,0.,-1.));
#1188=DIRECTION('',(0.,-1.,0.));
#1189=DIRECTION('',(0.,-0.996194698091746,-0.0871557427476579));
#1190=DIRECTION('',(0.,-0.0871557427476581,0.996194698091746));
#1191=DIRECTION('',(0.,-0.996194698091746,-0.0871557427476579));
#1192=DIRECTION('',(0.,1.,0.));
#1193=DIRECTION('center_axis',(-0.380279495173745,-0.921352199988202,-0.0806078726136683));
#1194=DIRECTION('ref_axis',(0.924871615712366,-0.378832416885091,-0.0331435418535722));
#1195=DIRECTION('',(0.207362719143517,0.,-0.978264127273104));
#1196=DIRECTION('',(0.924871615712366,-0.378832416885091,-0.0331435418535722));
#1197=DIRECTION('',(0.,0.0871557427476574,-0.996194698091746));
#1198=DIRECTION('',(-0.924871615712366,0.378832416885091,0.0331435418535721));
#1199=DIRECTION('center_axis',(0.,-0.0871557427476581,0.996194698091746));
#1200=DIRECTION('ref_axis',(0.,-0.996194698091746,-0.0871557427476581));
#1201=DIRECTION('',(-1.,0.,0.));
#1202=DIRECTION('',(0.,-0.996194698091746,-0.0871557427476581));
#1203=DIRECTION('',(1.,0.,0.));
#1204=DIRECTION('',(-1.,0.,0.));
#1205=DIRECTION('',(0.,0.996194698091746,0.0871557427476569));
#1206=DIRECTION('',(-1.,0.,0.));
#1207=DIRECTION('center_axis',(0.,1.,0.));
#1208=DIRECTION('ref_axis',(0.,0.,1.));
#1209=DIRECTION('',(1.,0.,0.));
#1210=DIRECTION('',(0.,0.,-1.));
#1211=DIRECTION('',(-1.,0.,0.));
#1212=DIRECTION('',(0.,0.,-1.));
#1213=DIRECTION('center_axis',(0.,0.926050903000379,0.377398628842477));
#1214=DIRECTION('ref_axis',(0.,0.377398628842477,-0.926050903000379));
#1215=DIRECTION('',(0.,-0.377398628842477,0.926050903000379));
#1216=DIRECTION('',(1.,0.,0.));
#1217=DIRECTION('',(0.,0.377398628842477,-0.926050903000379));
#1218=DIRECTION('',(-1.,0.,0.));
#1219=DIRECTION('center_axis',(0.,-0.996194698091746,-0.0871557427476545));
#1220=DIRECTION('ref_axis',(0.,-0.0871557427476545,0.996194698091746));
#1221=DIRECTION('',(0.,0.0871557427476545,-0.996194698091746));
#1222=DIRECTION('',(-1.,0.,0.));
#1223=DIRECTION('',(0.,-0.0871557427476545,0.996194698091746));
#1224=DIRECTION('center_axis',(0.,0.996194698091746,0.0871557427476568));
#1225=DIRECTION('ref_axis',(0.,-0.0871557427476568,0.996194698091746));
#1226=DIRECTION('',(0.,-0.0871557427476574,0.996194698091746));
#1227=DIRECTION('',(1.,0.,0.));
#1228=DIRECTION('center_axis',(0.,0.996194577377723,0.0871571225042458));
#1229=DIRECTION('ref_axis',(0.,0.0871571225042458,-0.996194577377723));
#1230=DIRECTION('',(0.,-0.0871571225042458,0.996194577377723));
#1231=DIRECTION('',(0.,0.0871571225042458,-0.996194577377723));
#1232=DIRECTION('center_axis',(0.,6.86054389659629E-17,1.));
#1233=DIRECTION('ref_axis',(0.,-1.,6.86054389659629E-17));
#1234=DIRECTION('',(0.,-1.,6.86054389659629E-17));
#1235=DIRECTION('',(1.,0.,0.));
#1236=DIRECTION('',(1.,0.,0.));
#1237=DIRECTION('',(1.,0.,0.));
#1238=DIRECTION('',(0.,-1.,6.86054389659629E-17));
#1239=DIRECTION('',(-1.,0.,0.));
#1240=DIRECTION('center_axis',(0.,-0.0867068372015887,0.996233870324884));
#1241=DIRECTION('ref_axis',(0.,-0.996233870324884,-0.0867068372015887));
#1242=DIRECTION('',(0.,-0.996233870324884,-0.0867068372015887));
#1243=DIRECTION('',(1.,0.,0.));
#1244=DIRECTION('center_axis',(0.,0.0867068372015887,-0.996233870324884));
#1245=DIRECTION('ref_axis',(0.707106781186547,-0.704443725354445,-0.061310992560481));
#1246=DIRECTION('',(0.,0.996233870324884,0.0867068372015887));
#1247=DIRECTION('center_axis',(0.,0.0867068372015887,-0.996233870324884));
#1248=DIRECTION('ref_axis',(0.707106781186547,0.704443725354446,0.0613109925604809));
#1249=DIRECTION('center_axis',(0.,0.0871557427476541,-0.996194698091746));
#1250=DIRECTION('ref_axis',(0.,-0.996194698091746,-0.0871557427476541));
#1251=DIRECTION('',(0.,-0.996194698091746,-0.0871557427476541));
#1252=DIRECTION('',(0.,-0.996194698091746,-0.0871557427476541));
#1253=DIRECTION('',(1.,0.,0.));
#1254=DIRECTION('center_axis',(0.,-0.0867068372015887,0.996233870324884));
#1255=DIRECTION('ref_axis',(0.,-0.996233870324884,-0.0867068372015887));
#1256=DIRECTION('',(0.,-0.996233870324884,-0.0867068372015887));
#1257=DIRECTION('center_axis',(0.,0.0867068372015887,-0.996233870324884));
#1258=DIRECTION('ref_axis',(-0.707106781186547,-0.704443725354445,-0.061310992560481));
#1259=DIRECTION('',(1.,0.,0.));
#1260=DIRECTION('',(0.,-0.996233870324884,-0.0867068372015887));
#1261=DIRECTION('center_axis',(0.,0.0867068372015887,-0.996233870324884));
#1262=DIRECTION('ref_axis',(-0.707106781186548,0.704443725354445,0.061310992560481));
#1263=DIRECTION('center_axis',(1.,0.,0.));
#1264=DIRECTION('ref_axis',(0.,0.996233870324884,0.0867068372015887));
#1265=DIRECTION('',(0.,0.0867068372015881,-0.996233870324884));
#1266=DIRECTION('',(0.,-1.,0.));
#1267=DIRECTION('',(0.,-0.0867068372015881,0.996233870324884));
#1268=DIRECTION('center_axis',(0.,-0.0867068372015881,0.996233870324884));
#1269=DIRECTION('ref_axis',(0.707106781186547,0.704443725354446,0.0613109925604809));
#1270=DIRECTION('center_axis',(0.,-0.0871557427476582,0.996194698091746));
#1271=DIRECTION('ref_axis',(-5.46772571663349E-10,0.996194698091746,0.0871557427476582));
#1272=DIRECTION('',(0.,0.0867068372015881,-0.996233870324884));
#1273=DIRECTION('center_axis',(0.,0.,1.));
#1274=DIRECTION('ref_axis',(-1.21664595882073E-15,1.,0.));
#1275=DIRECTION('center_axis',(-2.45271305958716E-16,0.996233870324884,
0.0867068372015881));
#1276=DIRECTION('ref_axis',(-1.,-2.44181436327421E-16,-2.31756646835997E-17));
#1277=DIRECTION('',(0.,-0.0867068372015881,0.996233870324884));
#1278=DIRECTION('',(1.,2.44337999396606E-16,2.13768050158071E-17));
#1279=DIRECTION('center_axis',(0.,-0.0867068372015881,0.996233870324884));
#1280=DIRECTION('ref_axis',(-0.707106781186548,0.704443725354445,0.061310992560481));
#1281=DIRECTION('center_axis',(0.,0.,1.));
#1282=DIRECTION('ref_axis',(-1.52080744852591E-14,1.,0.));
#1283=DIRECTION('',(0.,0.0867068372015881,-0.996233870324884));
#1284=DIRECTION('center_axis',(0.,-0.0871557427476582,0.996194698091746));
#1285=DIRECTION('ref_axis',(-5.55111455954701E-16,0.996194698091746,0.0871557427476582));
#1286=DIRECTION('center_axis',(-1.,0.,0.));
#1287=DIRECTION('ref_axis',(0.,-0.996233870324884,-0.0867068372015887));
#1288=DIRECTION('',(0.,-0.0867068372015881,0.996233870324884));
#1289=DIRECTION('',(0.,1.,0.));
#1290=DIRECTION('center_axis',(0.,-0.0867068372015881,0.996233870324884));
#1291=DIRECTION('ref_axis',(-0.707106781186547,-0.704443725354445,-0.061310992560481));
#1292=DIRECTION('center_axis',(0.,0.,1.));
#1293=DIRECTION('ref_axis',(3.31812534223836E-16,-1.,0.));
#1294=DIRECTION('',(0.,0.0867068372015881,-0.996233870324884));
#1295=DIRECTION('center_axis',(-1.20370621524202E-33,-0.996233870324884,
-0.0867068372015881));
#1296=DIRECTION('ref_axis',(1.,-1.6614608746862E-19,1.90896548761633E-18));
#1297=DIRECTION('',(0.,-0.0867068372015881,0.996233870324884));
#1298=DIRECTION('',(1.,0.,0.));
#1299=DIRECTION('',(-1.,1.20825666652899E-33,0.));
#1300=DIRECTION('center_axis',(0.,-0.0867068372015881,0.996233870324884));
#1301=DIRECTION('ref_axis',(0.707106781186547,-0.704443725354445,-0.061310992560481));
#1302=DIRECTION('center_axis',(0.,0.,1.));
#1303=DIRECTION('ref_axis',(-3.31812534223836E-16,-1.,0.));
#1304=DIRECTION('center_axis',(0.,-0.0871557427476578,0.996194698091746));
#1305=DIRECTION('ref_axis',(0.,-0.996194698091746,-0.0871557427476578));
#1306=DIRECTION('',(0.,0.996194698091746,0.0871557427476578));
#1307=DIRECTION('',(-1.,0.,0.));
#1308=DIRECTION('',(0.,0.996194698091746,0.0871557427476578));
#1309=DIRECTION('center_axis',(0.,0.,1.));
#1310=DIRECTION('ref_axis',(0.,1.,0.));
#1311=DIRECTION('',(0.,1.,0.));
#1312=DIRECTION('',(0.,1.,0.));
#1313=DIRECTION('',(1.,0.,0.));
#1314=DIRECTION('center_axis',(0.,-1.,0.));
#1315=DIRECTION('ref_axis',(0.,0.,1.));
#1316=DIRECTION('',(0.,0.,1.));
#1317=DIRECTION('',(0.,0.,1.));
#1318=DIRECTION('',(1.,0.,0.));
#1319=DIRECTION('center_axis',(0.,0.,-1.));
#1320=DIRECTION('ref_axis',(0.,-1.,0.));
#1321=DIRECTION('',(0.,-1.,0.));
#1322=DIRECTION('',(0.,-1.,0.));
#1323=DIRECTION('center_axis',(0.,0.,-1.));
#1324=DIRECTION('ref_axis',(0.,-1.,0.));
#1325=DIRECTION('',(0.,-1.,0.));
#1326=DIRECTION('center_axis',(0.,1.,0.));
#1327=DIRECTION('ref_axis',(0.,0.,-1.));
#1328=DIRECTION('center_axis',(0.,0.,1.));
#1329=DIRECTION('ref_axis',(0.,1.,0.));
#1330=DIRECTION('',(0.,1.,0.));
#1331=DIRECTION('',(1.,0.,0.));
#1332=DIRECTION('',(1.,0.,0.));
#1333=DIRECTION('center_axis',(0.,-0.0871557427476579,0.996194698091746));
#1334=DIRECTION('ref_axis',(0.,0.996194698091746,0.0871557427476579));
#1335=DIRECTION('',(0.,0.996194698091746,0.0871557427476579));
#1336=DIRECTION('',(1.,0.,0.));
#1337=DIRECTION('center_axis',(0.,0.996194698091746,0.0871557427476581));
#1338=DIRECTION('ref_axis',(0.,-0.0871557427476581,0.996194698091746));
#1339=DIRECTION('',(0.,-0.0871557427476585,0.996194698091746));
#1340=DIRECTION('',(0.,0.0871557427476581,-0.996194698091746));
#1341=DIRECTION('center_axis',(-1.,0.,0.));
#1342=DIRECTION('ref_axis',(0.,0.,1.));
#1343=DIRECTION('center_axis',(1.,0.,0.));
#1344=DIRECTION('ref_axis',(0.,0.,-1.));
#1345=DIRECTION('center_axis',(-1.,0.,0.));
#1346=DIRECTION('ref_axis',(0.,0.,1.));
#1347=CARTESIAN_POINT('',(0.,0.,0.));
#1348=CARTESIAN_POINT('Origin',(42.3999990522861,26.8080000447035,2.33617130355737));
#1349=CARTESIAN_POINT('',(41.1999990791082,26.8078990327662,2.33616246615798));
#1350=CARTESIAN_POINT('',(42.3999990522862,26.8078990327662,2.33616246615798));
#1351=CARTESIAN_POINT('',(-46.2,26.8078990327662,2.33616246615798));
#1352=CARTESIAN_POINT('',(42.3999990522861,26.8080000447035,2.33617130355737));
#1353=CARTESIAN_POINT('',(42.3999990522861,15.6838028477921,1.36293015800081));
#1354=CARTESIAN_POINT('',(41.1999990522861,26.8080000447035,2.33617130355737));
#1355=CARTESIAN_POINT('',(42.0999990589917,26.8080000447035,2.33617130355737));
#1356=CARTESIAN_POINT('',(41.1999990791082,15.5882963522101,1.35457442234429));
#1357=CARTESIAN_POINT('Origin',(41.7999990656972,26.8080000447035,3.39999992400408));
#1358=CARTESIAN_POINT('',(42.3999990522861,26.8080000447035,2.29999994859099));
#1359=CARTESIAN_POINT('',(42.3999990522861,26.8080000447035,4.49999989941716));
#1360=CARTESIAN_POINT('',(41.1999990791082,26.8080000447035,2.29999994859099));
#1361=CARTESIAN_POINT('',(42.3999990522861,26.8080000447035,2.29999994859099));
#1362=CARTESIAN_POINT('',(41.1999990791082,26.8080000447035,2.29999994859099));
#1363=CARTESIAN_POINT('Origin',(41.1999990791082,4.20000004470348,2.29999994859099));
#1364=CARTESIAN_POINT('',(41.1999990791082,26.8078990327662,2.29999994859099));
#1365=CARTESIAN_POINT('',(41.1999990791082,4.20000004470348,2.29999994859099));
#1366=CARTESIAN_POINT('',(41.1999990791082,26.8078990327662,2.31808120737449));
#1367=CARTESIAN_POINT('Origin',(42.3999990522861,4.20000004470348,4.49999989941716));
#1368=CARTESIAN_POINT('',(42.3999990522861,26.8078990327662,2.29999994859099));
#1369=CARTESIAN_POINT('',(42.3999990522861,26.8078990327662,2.81578928026158));
#1370=CARTESIAN_POINT('',(42.3999990522861,4.20000004470348,2.29999994859099));
#1371=CARTESIAN_POINT('Origin',(-46.2,26.8078990327662,1.13157866110599));
#1372=CARTESIAN_POINT('',(-1.41000047385693,26.8078990327662,2.29999994859099));
#1373=CARTESIAN_POINT('Origin',(42.3999990522861,4.20000004470348,2.29999994859099));
#1374=CARTESIAN_POINT('Origin',(-23.3000032790005,10.0145690601692,21.5483246751191));
#1375=CARTESIAN_POINT('',(-25.2500032790005,10.0145690601692,21.5483246751191));
#1376=CARTESIAN_POINT('Origin',(-23.3000032790005,10.0145690601692,21.5483246751191));
#1377=CARTESIAN_POINT('',(-24.4000032544136,10.0145690601692,21.5483246751191));
#1378=CARTESIAN_POINT('Origin',(-23.3000032790005,10.0145690601692,21.5483246751191));
#1379=CARTESIAN_POINT('Origin',(-23.2000032812357,8.34989440607425,40.5756429829558));
#1380=CARTESIAN_POINT('',(-25.1500032812357,8.34989440607425,40.5756429829558));
#1381=CARTESIAN_POINT('Origin',(-23.2000032812357,8.34989440607425,40.5756429829558));
#1382=CARTESIAN_POINT('',(-24.3000032566488,8.34989440607425,40.5756429829558));
#1383=CARTESIAN_POINT('Origin',(-23.2000032812357,8.34989440607425,40.5756429829558));
#1384=CARTESIAN_POINT('Origin',(-4.17404905457314,10.0178248467449,21.5111108643806));
#1385=CARTESIAN_POINT('',(-6.12404905457314,10.0178248467449,21.5111108643806));
#1386=CARTESIAN_POINT('Origin',(-4.17404905457314,10.0178248467449,21.5111108643806));
#1387=CARTESIAN_POINT('',(-5.27404902998622,10.0178248467449,21.5111108643806));
#1388=CARTESIAN_POINT('Origin',(-4.17404905457314,10.0178248467449,21.5111108643806));
#1389=CARTESIAN_POINT('Origin',(-4.16740526536209,8.35395345066322,40.5292478911401));
#1390=CARTESIAN_POINT('',(-6.11740526536209,8.35395345066321,40.5292478911401));
#1391=CARTESIAN_POINT('Origin',(-4.16740526536209,8.35395345066322,40.5292478911401));
#1392=CARTESIAN_POINT('',(-5.26740524077518,8.35395345066321,40.5292478911401));
#1393=CARTESIAN_POINT('Origin',(-4.16740526536209,8.35395345066322,40.5292478911401));
#1394=CARTESIAN_POINT('Origin',(-23.3000032790005,16.9879319466567,22.1584148761203));
#1395=CARTESIAN_POINT('',(-24.4000032544136,4.20000004470348,21.0396158014916));
#1396=CARTESIAN_POINT('Origin',(-23.3000032790005,4.20000004470348,21.0396158014916));
#1397=CARTESIAN_POINT('',(-24.4000032544136,16.9879319466567,22.1584148761203));
#1398=CARTESIAN_POINT('Origin',(-23.3000032790005,16.9879319466567,22.1584148761203));
#1399=CARTESIAN_POINT('',(-25.2500032790005,4.20000004470348,21.0396158014916));
#1400=CARTESIAN_POINT('Origin',(-23.3000032790005,4.20000004470348,21.0396158014916));
#1401=CARTESIAN_POINT('',(-25.2500032790005,16.9879319466567,22.1584148761203));
#1402=CARTESIAN_POINT('Origin',(0.,4.20000004470348,61.0747994506508));
#1403=CARTESIAN_POINT('',(-44.2,4.20000004470348,1.00000001490116));
#1404=CARTESIAN_POINT('',(-44.2,4.20000004470348,61.0747994506508));
#1405=CARTESIAN_POINT('',(-44.2,4.20000004470348,46.3624104049671));
#1406=CARTESIAN_POINT('',(41.1999990522861,4.20000004470348,61.0747994506508));
#1407=CARTESIAN_POINT('',(0.,4.20000004470348,61.0747994506508));
#1408=CARTESIAN_POINT('',(41.1999990522861,4.20000004470348,1.00000001490116));
#1409=CARTESIAN_POINT('',(41.1999990522861,4.20000004470348,31.3623997161984));
#1410=CARTESIAN_POINT('',(0.,4.20000004470348,1.00000001490116));
#1411=CARTESIAN_POINT('',(-6.12404905457314,4.20000004470348,21.002117146336));
#1412=CARTESIAN_POINT('Origin',(-4.17404905457314,4.20000004470348,21.002117146336));
#1413=CARTESIAN_POINT('',(-22.7380372477666,4.20000004470348,42.1142995961687));
#1414=CARTESIAN_POINT('',(-23.6619693147048,4.20000004470348,42.1142995961687));
#1415=CARTESIAN_POINT('Origin',(-23.2000032812357,4.20000004470348,40.2125742704457));
#1416=CARTESIAN_POINT('',(-11.6000016406178,4.20000004470348,42.1142995961687));
#1417=CARTESIAN_POINT('',(-3.9809054168326,4.20000004470348,42.1142995961687));
#1418=CARTESIAN_POINT('',(-4.35390511389158,4.20000004470348,42.1142995961687));
#1419=CARTESIAN_POINT('Origin',(-4.16740526536209,4.20000004470348,40.1658240582427));
#1420=CARTESIAN_POINT('',(-2.08370263268105,4.20000004470348,42.1142995961687));
#1421=CARTESIAN_POINT('Origin',(-4.17404905457314,16.9911877332325,22.1212010653818));
#1422=CARTESIAN_POINT('',(-5.27404902998622,4.20000004470348,21.002117146336));
#1423=CARTESIAN_POINT('Origin',(-4.17404905457314,4.20000004470348,21.002117146336));
#1424=CARTESIAN_POINT('',(-5.27404902998622,16.9911877332325,22.1212010653818));
#1425=CARTESIAN_POINT('Origin',(-4.17404905457314,16.9911877332325,22.1212010653818));
#1426=CARTESIAN_POINT('',(-6.12404905457314,16.9911877332325,22.1212010653818));
#1427=CARTESIAN_POINT('Origin',(0.,4.20000004470348,61.0747994506508));
#1428=CARTESIAN_POINT('Origin',(-23.2000032812357,15.3232572925618,41.185733183957));
#1429=CARTESIAN_POINT('',(-25.1500032812357,4.36511561379563,40.2270200109551));
#1430=CARTESIAN_POINT('Origin',(-23.2000032812357,4.36511561379563,40.2270200109551));
#1431=CARTESIAN_POINT('',(-25.1500032812357,15.3232572925618,41.185733183957));
#1432=CARTESIAN_POINT('Origin',(-23.2000032812357,4.36511561379563,40.2270200109551));
#1433=CARTESIAN_POINT('Origin',(-23.2000032812357,15.3232572925618,41.185733183957));
#1434=CARTESIAN_POINT('',(-24.3000032566488,4.36511561379563,40.2270200109551));
#1435=CARTESIAN_POINT('Origin',(-23.2000032812357,4.36511561379563,40.2270200109551));
#1436=CARTESIAN_POINT('',(-24.3000032566488,15.3232572925618,41.185733183957));
#1437=CARTESIAN_POINT('Origin',(-23.2000032812357,4.36511561379563,40.2270200109551));
#1438=CARTESIAN_POINT('Origin',(-4.16740526536209,15.3273163371508,41.1393380921413));
#1439=CARTESIAN_POINT('',(-6.11740526536209,4.3691746583846,40.1806249191394));
#1440=CARTESIAN_POINT('Origin',(-4.16740526536209,4.3691746583846,40.1806249191394));
#1441=CARTESIAN_POINT('',(-6.11740526536209,15.3273163371508,41.1393380921413));
#1442=CARTESIAN_POINT('Origin',(-4.16740526536209,4.3691746583846,40.1806249191394));
#1443=CARTESIAN_POINT('Origin',(-4.16740526536209,15.3273163371508,41.1393380921413));
#1444=CARTESIAN_POINT('',(-5.26740524077518,4.3691746583846,40.1806249191394));
#1445=CARTESIAN_POINT('Origin',(-4.16740526536209,4.3691746583846,40.1806249191394));
#1446=CARTESIAN_POINT('',(-5.26740524077518,15.3273163371508,41.1393380921413));
#1447=CARTESIAN_POINT('Origin',(-4.16740526536209,4.3691746583846,40.1806249191394));
#1448=CARTESIAN_POINT('Origin',(-44.2,15.4516560930863,31.6500213592835));
#1449=CARTESIAN_POINT('',(-44.2,11.535492329915,1.00000001490116));
#1450=CARTESIAN_POINT('',(-44.2,9.82582806889488,1.00000001490116));
#1451=CARTESIAN_POINT('',(-44.2,26.7033121414691,2.32701229881606));
#1452=CARTESIAN_POINT('',(-44.2,18.9550978014812,1.64913138149812));
#1453=CARTESIAN_POINT('',(-44.2,21.4563518637491,62.3000427036658));
#1454=CARTESIAN_POINT('',(-44.2,21.351764972452,63.4954763413759));
#1455=CARTESIAN_POINT('',(-44.2,7.45175739818163,61.0747994506508));
#1456=CARTESIAN_POINT('',(-44.2,14.5999996736646,61.7001896138923));
#1457=CARTESIAN_POINT('',(-44.2,11.7385495767758,61.0747994506508));
#1458=CARTESIAN_POINT('Origin',(15.,21.4567942286276,62.3000814055778));
#1459=CARTESIAN_POINT('',(31.4846642820808,14.5999996736646,62.9047734189443));
#1460=CARTESIAN_POINT('',(31.74,14.5999996736646,61.7001896138923));
#1461=CARTESIAN_POINT('',(31.1970719734248,14.5999996736646,64.2615324352221));
#1462=CARTESIAN_POINT('',(15.,21.4567942286276,62.3000814055778));
#1463=CARTESIAN_POINT('',(-9.54454194826506,31.5103713842385,63.179655434577));
#1464=CARTESIAN_POINT('',(15.,21.3522073373304,63.4955150432879));
#1465=CARTESIAN_POINT('',(15.,21.3522073373304,63.4955150432879));
#1466=CARTESIAN_POINT('',(-9.54454194826508,31.4057844929412,64.3750890722871));
#1467=CARTESIAN_POINT('Origin',(-45.22,14.5956418865272,61.6998083569197));
#1468=CARTESIAN_POINT('',(41.1999990522861,14.5999996736646,61.7001896138923));
#1469=CARTESIAN_POINT('',(-45.22,14.5999996736646,61.7001896138923));
#1470=CARTESIAN_POINT('',(41.1999990522861,7.45175739818163,61.0747994506508));
#1471=CARTESIAN_POINT('',(41.1999990522862,11.9915194486385,61.471977165171));
#1472=CARTESIAN_POINT('',(0.,7.45175739818163,61.0747994506508));
#1473=CARTESIAN_POINT('',(-46.2,21.4563518637491,62.3000427036658));
#1474=CARTESIAN_POINT('',(-45.22,21.4563518637491,62.3000427036658));
#1475=CARTESIAN_POINT('',(-46.2,21.4567942286276,62.3000814055778));
#1476=CARTESIAN_POINT('',(-46.2,14.7045865649618,61.7093397812342));
#1477=CARTESIAN_POINT('',(-46.2,21.4567942286276,62.3000814055778));
#1478=CARTESIAN_POINT('Origin',(-45.22,14.5999996736646,61.6499986220151));
#1479=CARTESIAN_POINT('',(42.4,14.5999996736646,62.9047734189443));
#1480=CARTESIAN_POINT('',(-45.22,14.5999996736646,62.9047734189443));
#1481=CARTESIAN_POINT('',(42.3999990522861,14.5999996736646,61.4999986253679));
#1482=CARTESIAN_POINT('',(42.3999990522861,14.5999996736646,61.7001896138923));
#1483=CARTESIAN_POINT('',(41.1999990522861,14.5999996736646,61.4999986253679));
#1484=CARTESIAN_POINT('',(-1.41000047385693,14.5999996736646,61.4999986253679));
#1485=CARTESIAN_POINT('',(41.1999990522861,14.5999996736646,61.7001896138923));
#1486=CARTESIAN_POINT('Origin',(42.3999990522861,17.8835665121675,23.9686738737377));
#1487=CARTESIAN_POINT('',(42.3999990522862,26.7033121414691,2.32701229881606));
#1488=CARTESIAN_POINT('',(42.3999990522861,17.8835665121675,23.9686738737377));
#1489=CARTESIAN_POINT('',(42.3999990522861,26.7033121414691,2.32701229881606));
#1490=CARTESIAN_POINT('',(41.1999990522861,26.7033121414691,2.32701229881606));
#1491=CARTESIAN_POINT('',(-46.2,26.7033121414691,2.32701229881606));
#1492=CARTESIAN_POINT('',(41.1999990522861,17.8835665121675,23.9686738737377));
#1493=CARTESIAN_POINT('',(41.1999990522861,26.7033121414691,2.32701229881606));
#1494=CARTESIAN_POINT('',(42.3999990522861,17.8835665121675,23.9686738737378));
#1495=CARTESIAN_POINT('Origin',(42.3999990522861,19.8295799362371,1.72563865474523));
#1496=CARTESIAN_POINT('',(41.1999990522861,14.6874895343068,60.5000008943386));
#1497=CARTESIAN_POINT('',(41.1999990791082,19.7452836287305,2.68914985847513));
#1498=CARTESIAN_POINT('',(42.3999990522861,14.6874895343068,60.5000008943386));
#1499=CARTESIAN_POINT('',(41.7999990656972,14.6874896213511,60.4999998994172));
#1500=CARTESIAN_POINT('',(42.3999990522861,19.6497771331485,3.78079409823169));
#1501=CARTESIAN_POINT('Origin',(-46.2,21.4567942286276,62.3000814055778));
#1502=CARTESIAN_POINT('',(-46.2,21.3522073373304,63.4955150432879));
#1503=CARTESIAN_POINT('',(-46.2,21.3522073373304,63.4955150432879));
#1504=CARTESIAN_POINT('',(-45.22,21.3522073373304,63.4955150432879));
#1505=CARTESIAN_POINT('Origin',(42.3999990522861,14.5999996736646,61.4999986253679));
#1506=CARTESIAN_POINT('',(42.3999990522861,14.6874895343068,60.5000008943386));
#1507=CARTESIAN_POINT('',(41.1999990522861,14.6874895343068,60.5000008943386));
#1508=CARTESIAN_POINT('Origin',(-45.22,17.0931182360529,0.281645472754246));
#1509=CARTESIAN_POINT('',(42.4,17.0931182360529,0.281645472754244));
#1510=CARTESIAN_POINT('',(42.4,12.036016344066,0.281645472754244));
#1511=CARTESIAN_POINT('',(42.4,16.0246806102182,0.281645472754246));
#1512=CARTESIAN_POINT('',(31.6499992646277,12.036016344066,0.281645472754246));
#1513=CARTESIAN_POINT('',(0.,12.036016344066,0.281645472754246));
#1514=CARTESIAN_POINT('',(25.0969792198612,12.036016344066,0.281645472754246));
#1515=CARTESIAN_POINT('',(0.,12.036016344066,0.281645472754246));
#1516=CARTESIAN_POINT('',(-46.2,12.036016344066,0.281645472754246));
#1517=CARTESIAN_POINT('',(0.,12.036016344066,0.281645472754246));
#1518=CARTESIAN_POINT('',(-46.2,17.0931182360529,0.281645472754246));
#1519=CARTESIAN_POINT('',(-46.2,16.0246806102182,0.281645472754244));
#1520=CARTESIAN_POINT('',(-22.61,17.0931182360529,0.281645472754246));
#1521=CARTESIAN_POINT('Origin',(-45.22,12.036016344066,0.281645472754246));
#1522=CARTESIAN_POINT('',(42.4,8.79999980330467,0.));
#1523=CARTESIAN_POINT('',(42.4,14.830139748008,0.524830943880354));
#1524=CARTESIAN_POINT('',(31.6499992646277,8.79999980330467,0.));
#1525=CARTESIAN_POINT('',(0.,8.79999980330467,0.));
#1526=CARTESIAN_POINT('',(32.8999992646277,10.0452921412108,0.108383546501986));
#1527=CARTESIAN_POINT('Origin',(31.6499992646277,10.0452921412108,0.108383546501987));
#1528=CARTESIAN_POINT('',(32.8999992646277,10.7907240061599,0.17326192625226));
#1529=CARTESIAN_POINT('',(32.8999992646277,10.4180080736854,0.140822736377123));
#1530=CARTESIAN_POINT('Origin',(31.6499992646277,10.7907240061599,0.173261926252261));
#1531=CARTESIAN_POINT('Origin',(0.,26.9124859240634,1.14072882844789));
#1532=CARTESIAN_POINT('',(42.4,26.8078990327662,1.13157866110597));
#1533=CARTESIAN_POINT('',(42.4,22.2943779809257,0.736696736484335));
#1534=CARTESIAN_POINT('',(-46.2,26.8078990327662,1.13157866110597));
#1535=CARTESIAN_POINT('',(-46.2,26.9124859240634,1.14072882844789));
#1536=CARTESIAN_POINT('',(0.,26.8078990327662,1.13157866110597));
#1537=CARTESIAN_POINT('Origin',(-45.22,12.036016344066,0.281645472754246));
#1538=CARTESIAN_POINT('',(23.8469792198612,10.7907240061599,0.17326192625226));
#1539=CARTESIAN_POINT('',(23.8469792198612,10.0452921412108,0.108383546501986));
#1540=CARTESIAN_POINT('',(23.8469792198612,12.036016344066,0.281645472754246));
#1541=CARTESIAN_POINT('',(25.0969792198612,8.79999980330467,0.));
#1542=CARTESIAN_POINT('Origin',(25.0969792198612,10.0452921412108,0.108383546501987));
#1543=CARTESIAN_POINT('',(-46.2,8.79999980330467,0.));
#1544=CARTESIAN_POINT('',(0.,8.79999980330467,0.));
#1545=CARTESIAN_POINT('',(-46.2,14.830139748008,0.524830943880352));
#1546=CARTESIAN_POINT('Origin',(25.0969792198612,10.7907240061599,0.173261926252261));
#1547=CARTESIAN_POINT('Origin',(32.8999992646277,8.79999980330467,3.46944695195361E-17));
#1548=CARTESIAN_POINT('',(32.8999992646277,9.9676906399222,1.00000001490116));
#1549=CARTESIAN_POINT('',(32.8999992646277,10.0452921412108,0.108383546501985));
#1550=CARTESIAN_POINT('',(32.8999992646277,10.7187691700556,1.00000001490116));
#1551=CARTESIAN_POINT('',(32.8999992646277,6.49999992400408,1.00000001490116));
#1552=CARTESIAN_POINT('',(32.8999992646277,10.7907240061599,0.17326192625226));
#1553=CARTESIAN_POINT('Origin',(31.6499992646277,10.7907240061599,0.17326192625226));
#1554=CARTESIAN_POINT('',(32.5989345167122,11.535492329915,1.00000001490116));
#1555=CARTESIAN_POINT('',(31.6499992646277,11.9701846456577,1.03803066465048));
#1556=CARTESIAN_POINT('Origin',(31.6499992646277,10.7249411466192,0.92908597515526));
#1557=CARTESIAN_POINT('',(31.6499992646277,12.036016344066,0.281645472754245));
#1558=CARTESIAN_POINT('Origin',(31.6499992646277,10.7187691700556,1.00000001490116));
#1559=CARTESIAN_POINT('Origin',(32.8999992646277,12.036016344066,0.281645472754246));
#1560=CARTESIAN_POINT('',(25.0969792198612,11.9701846456577,1.03803066465048));
#1561=CARTESIAN_POINT('',(25.0969792198612,12.036016344066,0.281645472754246));
#1562=CARTESIAN_POINT('',(16.4499996323138,11.9701846456577,1.03803066465048));
#1563=CARTESIAN_POINT('Origin',(25.0969792198612,10.7907240061599,0.173261926252261));
#1564=CARTESIAN_POINT('',(23.8469792198612,10.7187691700556,1.00000001490116));
#1565=CARTESIAN_POINT('',(24.1480439677766,11.535492329915,1.00000001490116));
#1566=CARTESIAN_POINT('Origin',(25.0969792198612,10.7187691700556,1.00000001490116));
#1567=CARTESIAN_POINT('',(23.8469792198612,10.7907240061599,0.173261926252261));
#1568=CARTESIAN_POINT('Origin',(25.0969792198612,10.7249411466192,0.92908597515526));
#1569=CARTESIAN_POINT('Origin',(23.8469792198612,12.036016344066,0.281645472754246));
#1570=CARTESIAN_POINT('',(23.8469792198612,9.9676906399222,1.00000001490116));
#1571=CARTESIAN_POINT('',(23.8469792198612,10.0452921412108,0.108383546501986));
#1572=CARTESIAN_POINT('',(23.8469792198612,8.11800819438476,1.00000001490116));
#1573=CARTESIAN_POINT('Origin',(25.0969792198612,10.0452921412108,0.108383546501986));
#1574=CARTESIAN_POINT('',(25.0969792198612,8.71296518113775,1.00000001490116));
#1575=CARTESIAN_POINT('Origin',(25.0969792198612,9.9676906399222,1.00000001490116));
#1576=CARTESIAN_POINT('',(25.0969792198612,8.79999980330467,1.14491749414469E-15));
#1577=CARTESIAN_POINT('Origin',(23.8469792198612,8.79999980330467,1.21495975253986E-16));
#1578=CARTESIAN_POINT('',(31.6499992646277,8.71296518113775,1.00000001490116));
#1579=CARTESIAN_POINT('',(31.6499992646277,8.79999980330467,5.20417042793042E-17));
#1580=CARTESIAN_POINT('',(0.,8.79999980330467,0.));
#1581=CARTESIAN_POINT('',(11.9234896099306,8.71296518113775,1.00000001490116));
#1582=CARTESIAN_POINT('Origin',(31.6499992646277,10.0452921412108,0.108383546501985));
#1583=CARTESIAN_POINT('Origin',(31.6499992646277,9.9676906399222,1.00000001490116));
#1584=CARTESIAN_POINT('Origin',(-45.22,14.49105499523,62.8952419946298));
#1585=CARTESIAN_POINT('',(-46.2,7.39936426669145,62.2747994506508));
#1586=CARTESIAN_POINT('',(-46.2,14.49105499523,62.8952419946298));
#1587=CARTESIAN_POINT('',(42.4,7.39936426669145,62.2747994506508));
#1588=CARTESIAN_POINT('',(-22.61,7.39936426669149,62.2747994506508));
#1589=CARTESIAN_POINT('',(42.4,13.355595486352,62.7959021597103));
#1590=CARTESIAN_POINT('Origin',(0.,3.00000004470348,62.2747994506508));
#1591=CARTESIAN_POINT('',(42.4,3.00000004470348,62.2747994506508));
#1592=CARTESIAN_POINT('',(42.4,8.97812151454347,62.2747994506508));
#1593=CARTESIAN_POINT('',(-46.2,3.00000004470348,62.2747994506508));
#1594=CARTESIAN_POINT('',(-46.2,3.00000004470348,62.2747994506508));
#1595=CARTESIAN_POINT('',(0.,3.00000004470348,62.2747994506508));
#1596=CARTESIAN_POINT('Origin',(0.,3.00000004470348,0.));
#1597=CARTESIAN_POINT('',(42.4,3.00000004470348,0.));
#1598=CARTESIAN_POINT('',(42.4,3.00000004470348,15.7113580649313));
#1599=CARTESIAN_POINT('',(-46.2,3.00000004470348,0.));
#1600=CARTESIAN_POINT('',(-46.2,3.00000004470348,61.0747994506508));
#1601=CARTESIAN_POINT('',(0.,3.00000004470348,0.));
#1602=CARTESIAN_POINT('Origin',(0.,8.79999980330467,0.));
#1603=CARTESIAN_POINT('',(42.4,11.8781213938441,0.));
#1604=CARTESIAN_POINT('',(-46.2,3.00000004470348,0.));
#1605=CARTESIAN_POINT('Origin',(0.,8.02544306046524,61.0747994506508));
#1606=CARTESIAN_POINT('',(41.1999990522861,8.71272145982464,61.0747994506508));
#1607=CARTESIAN_POINT('Origin',(0.,4.20000004470348,61.0747994506508));
#1608=CARTESIAN_POINT('Origin',(0.,4.20000004470348,1.00000001490116));
#1609=CARTESIAN_POINT('',(41.1999990522861,11.535492329915,1.00000001490116));
#1610=CARTESIAN_POINT('',(41.1999990522861,9.74863992492163,1.00000001490116));
#1611=CARTESIAN_POINT('',(0.,11.535492329915,1.00000001490116));
#1612=CARTESIAN_POINT('',(0.,11.535492329915,1.00000001490116));
#1613=CARTESIAN_POINT('Origin',(0.,19.8271269974912,1.72542405041262));
#1614=CARTESIAN_POINT('',(41.1999990522861,21.5337330884984,1.87473273648005));
#1615=CARTESIAN_POINT('',(-46.2,26.7033121414691,2.32701229881606));
#1616=CARTESIAN_POINT('Origin',(-45.22,26.7033121414691,2.32701229881606));
#1617=CARTESIAN_POINT('',(42.3999990522862,26.5235093383804,4.38216774230256));
#1618=CARTESIAN_POINT('',(-46.2,21.351764972452,63.4954763413759));
#1619=CARTESIAN_POINT('Origin',(-46.2,14.9562429843835,31.4227161298626));
#1620=CARTESIAN_POINT('Origin',(42.3999990522861,4.20000004470348,4.49999989941716));
#1621=CARTESIAN_POINT('Origin',(41.1999990791082,4.20000004470348,2.29999994859099));
#1622=UNCERTAINTY_MEASURE_WITH_UNIT(LENGTH_MEASURE(0.01),#1626,
'DISTANCE_ACCURACY_VALUE',
'Maximum model space distance between geometric entities at asserted c
onnectivities');
#1623=UNCERTAINTY_MEASURE_WITH_UNIT(LENGTH_MEASURE(0.01),#1626,
'DISTANCE_ACCURACY_VALUE',
'Maximum model space distance between geometric entities at asserted c
onnectivities');
#1624=(
GEOMETRIC_REPRESENTATION_CONTEXT(3)
GLOBAL_UNCERTAINTY_ASSIGNED_CONTEXT((#1622))
GLOBAL_UNIT_ASSIGNED_CONTEXT((#1626,#1628,#1629))
REPRESENTATION_CONTEXT('','3D')
);
#1625=(
GEOMETRIC_REPRESENTATION_CONTEXT(3)
GLOBAL_UNCERTAINTY_ASSIGNED_CONTEXT((#1623))
GLOBAL_UNIT_ASSIGNED_CONTEXT((#1626,#1628,#1629))
REPRESENTATION_CONTEXT('','3D')
);
#1626=(
LENGTH_UNIT()
NAMED_UNIT(*)
SI_UNIT(.MILLI.,.METRE.)
);
#1627=(
LENGTH_UNIT()
NAMED_UNIT(*)
SI_UNIT($,.METRE.)
);
#1628=(
NAMED_UNIT(*)
PLANE_ANGLE_UNIT()
SI_UNIT($,.RADIAN.)
);
#1629=(
NAMED_UNIT(*)
SI_UNIT($,.STERADIAN.)
SOLID_ANGLE_UNIT()
);
#1630=SHAPE_DEFINITION_REPRESENTATION(#1631,#1632);
#1631=PRODUCT_DEFINITION_SHAPE('',$,#1634);
#1632=SHAPE_REPRESENTATION('',(#989),#1624);
#1633=PRODUCT_DEFINITION_CONTEXT('part definition',#1638,'design');
#1634=PRODUCT_DEFINITION('2026-10-04-14-00-34-804','Bottom',#1635,#1633);
#1635=PRODUCT_DEFINITION_FORMATION('',$,#1640);
#1636=PRODUCT_RELATED_PRODUCT_CATEGORY('Bottom','Bottom',(#1640));
#1637=APPLICATION_PROTOCOL_DEFINITION('international standard',
'automotive_design',2009,#1638);
#1638=APPLICATION_CONTEXT(
'Core Data for Automotive Mechanical Design Process');
#1639=PRODUCT_CONTEXT('part definition',#1638,'mechanical');
#1640=PRODUCT('2026-10-04-14-00-34-804','Bottom',$,(#1639));
#1641=PRESENTATION_STYLE_ASSIGNMENT((#1642));
#1642=SURFACE_STYLE_USAGE(.BOTH.,#1643);
#1643=SURFACE_SIDE_STYLE('',(#1644));
#1644=SURFACE_STYLE_FILL_AREA(#1645);
#1645=FILL_AREA_STYLE('Steel - Satin',(#1646));
#1646=FILL_AREA_STYLE_COLOUR('Steel - Satin',#1647);
#1647=COLOUR_RGB('Steel - Satin',0.627450980392157,0.627450980392157,0.627450980392157);
ENDSEC;
END-ISO-10303-21;
