ISO-10303-21;
HEADER;
/* Generated by software containing ST-Developer
 * from STEP Tools, Inc. (www.steptools.com) 
 */

FILE_DESCRIPTION(
/* description */ (''),
/* implementation_level */ '2;1');

FILE_NAME(
/* name */ 'Top.step',
/* time_stamp */ '2026-10-04T18:26:55+03:00',
/* author */ (''),
/* organization */ (''),
/* preprocessor_version */ 'ST-DEVELOPER v20.2',
/* originating_system */ 'Autodesk Translation Framework v15.15.0.0',
/* authorisation */ '');

FILE_SCHEMA (('AUTOMOTIVE_DESIGN { 1 0 10303 214 3 1 1 }'));
ENDSEC;

DATA;
#10=MECHANICAL_DESIGN_GEOMETRIC_PRESENTATION_REPRESENTATION('',(#13),#2149);
#11=SHAPE_REPRESENTATION_RELATIONSHIP('SRR','None',#2156,#12);
#12=ADVANCED_BREP_SHAPE_REPRESENTATION('',(#14),#2148);
#13=STYLED_ITEM('',(#2165),#14);
#14=MANIFOLD_SOLID_BREP('Body1',#1363);
#15=FACE_BOUND('',#521,.T.);
#16=FACE_BOUND('',#522,.T.);
#17=FACE_BOUND('',#523,.T.);
#18=FACE_BOUND('',#524,.T.);
#19=FACE_BOUND('',#525,.T.);
#20=FACE_BOUND('',#526,.T.);
#21=FACE_BOUND('',#527,.T.);
#22=FACE_BOUND('',#528,.T.);
#23=FACE_BOUND('',#529,.T.);
#24=FACE_BOUND('',#530,.T.);
#25=FACE_BOUND('',#531,.T.);
#26=FACE_BOUND('',#532,.T.);
#27=FACE_BOUND('',#533,.T.);
#28=FACE_BOUND('',#534,.T.);
#29=FACE_BOUND('',#535,.T.);
#30=FACE_BOUND('',#536,.T.);
#31=FACE_BOUND('',#537,.T.);
#32=FACE_BOUND('',#538,.T.);
#33=FACE_BOUND('',#544,.T.);
#34=FACE_BOUND('',#545,.T.);
#35=FACE_BOUND('',#546,.T.);
#36=FACE_BOUND('',#547,.T.);
#37=FACE_BOUND('',#548,.T.);
#38=FACE_BOUND('',#549,.T.);
#39=FACE_BOUND('',#550,.T.);
#40=FACE_BOUND('',#551,.T.);
#41=FACE_BOUND('',#552,.T.);
#42=FACE_BOUND('',#553,.T.);
#43=FACE_BOUND('',#554,.T.);
#44=FACE_BOUND('',#555,.T.);
#45=FACE_BOUND('',#556,.T.);
#46=FACE_BOUND('',#557,.T.);
#47=FACE_BOUND('',#558,.T.);
#48=LINE('',#1784,#220);
#49=LINE('',#1790,#221);
#50=LINE('',#1799,#222);
#51=LINE('',#1805,#223);
#52=LINE('',#1810,#224);
#53=LINE('',#1812,#225);
#54=LINE('',#1814,#226);
#55=LINE('',#1815,#227);
#56=LINE('',#1818,#228);
#57=LINE('',#1820,#229);
#58=LINE('',#1821,#230);
#59=LINE('',#1825,#231);
#60=LINE('',#1827,#232);
#61=LINE('',#1829,#233);
#62=LINE('',#1830,#234);
#63=LINE('',#1833,#235);
#64=LINE('',#1835,#236);
#65=LINE('',#1836,#237);
#66=LINE('',#1840,#238);
#67=LINE('',#1842,#239);
#68=LINE('',#1844,#240);
#69=LINE('',#1845,#241);
#70=LINE('',#1848,#242);
#71=LINE('',#1850,#243);
#72=LINE('',#1851,#244);
#73=LINE('',#1854,#245);
#74=LINE('',#1856,#246);
#75=LINE('',#1857,#247);
#76=LINE('',#1859,#248);
#77=LINE('',#1860,#249);
#78=LINE('',#1865,#250);
#79=LINE('',#1867,#251);
#80=LINE('',#1869,#252);
#81=LINE('',#1870,#253);
#82=LINE('',#1873,#254);
#83=LINE('',#1875,#255);
#84=LINE('',#1876,#256);
#85=LINE('',#1879,#257);
#86=LINE('',#1881,#258);
#87=LINE('',#1882,#259);
#88=LINE('',#1884,#260);
#89=LINE('',#1885,#261);
#90=LINE('',#1888,#262);
#91=LINE('',#1890,#263);
#92=LINE('',#1891,#264);
#93=LINE('',#1893,#265);
#94=LINE('',#1894,#266);
#95=LINE('',#1897,#267);
#96=LINE('',#1899,#268);
#97=LINE('',#1900,#269);
#98=LINE('',#1902,#270);
#99=LINE('',#1903,#271);
#100=LINE('',#1907,#272);
#101=LINE('',#1909,#273);
#102=LINE('',#1911,#274);
#103=LINE('',#1912,#275);
#104=LINE('',#1916,#276);
#105=LINE('',#1918,#277);
#106=LINE('',#1920,#278);
#107=LINE('',#1921,#279);
#108=LINE('',#1923,#280);
#109=LINE('',#1924,#281);
#110=LINE('',#1926,#282);
#111=LINE('',#1927,#283);
#112=LINE('',#1931,#284);
#113=LINE('',#1933,#285);
#114=LINE('',#1935,#286);
#115=LINE('',#1936,#287);
#116=LINE('',#1939,#288);
#117=LINE('',#1941,#289);
#118=LINE('',#1942,#290);
#119=LINE('',#1945,#291);
#120=LINE('',#1947,#292);
#121=LINE('',#1948,#293);
#122=LINE('',#1950,#294);
#123=LINE('',#1951,#295);
#124=LINE('',#1955,#296);
#125=LINE('',#1957,#297);
#126=LINE('',#1959,#298);
#127=LINE('',#1960,#299);
#128=LINE('',#1963,#300);
#129=LINE('',#1965,#301);
#130=LINE('',#1966,#302);
#131=LINE('',#1969,#303);
#132=LINE('',#1971,#304);
#133=LINE('',#1972,#305);
#134=LINE('',#1974,#306);
#135=LINE('',#1975,#307);
#136=LINE('',#1979,#308);
#137=LINE('',#1981,#309);
#138=LINE('',#1983,#310);
#139=LINE('',#1984,#311);
#140=LINE('',#1987,#312);
#141=LINE('',#1989,#313);
#142=LINE('',#1990,#314);
#143=LINE('',#1993,#315);
#144=LINE('',#1995,#316);
#145=LINE('',#1996,#317);
#146=LINE('',#1998,#318);
#147=LINE('',#1999,#319);
#148=LINE('',#2003,#320);
#149=LINE('',#2005,#321);
#150=LINE('',#2007,#322);
#151=LINE('',#2008,#323);
#152=LINE('',#2011,#324);
#153=LINE('',#2013,#325);
#154=LINE('',#2014,#326);
#155=LINE('',#2017,#327);
#156=LINE('',#2019,#328);
#157=LINE('',#2020,#329);
#158=LINE('',#2022,#330);
#159=LINE('',#2023,#331);
#160=LINE('',#2027,#332);
#161=LINE('',#2029,#333);
#162=LINE('',#2031,#334);
#163=LINE('',#2032,#335);
#164=LINE('',#2035,#336);
#165=LINE('',#2037,#337);
#166=LINE('',#2038,#338);
#167=LINE('',#2041,#339);
#168=LINE('',#2043,#340);
#169=LINE('',#2044,#341);
#170=LINE('',#2046,#342);
#171=LINE('',#2047,#343);
#172=LINE('',#2051,#344);
#173=LINE('',#2053,#345);
#174=LINE('',#2055,#346);
#175=LINE('',#2056,#347);
#176=LINE('',#2059,#348);
#177=LINE('',#2061,#349);
#178=LINE('',#2062,#350);
#179=LINE('',#2065,#351);
#180=LINE('',#2067,#352);
#181=LINE('',#2068,#353);
#182=LINE('',#2070,#354);
#183=LINE('',#2071,#355);
#184=LINE('',#2075,#356);
#185=LINE('',#2077,#357);
#186=LINE('',#2079,#358);
#187=LINE('',#2080,#359);
#188=LINE('',#2083,#360);
#189=LINE('',#2085,#361);
#190=LINE('',#2086,#362);
#191=LINE('',#2089,#363);
#192=LINE('',#2091,#364);
#193=LINE('',#2092,#365);
#194=LINE('',#2094,#366);
#195=LINE('',#2095,#367);
#196=LINE('',#2099,#368);
#197=LINE('',#2101,#369);
#198=LINE('',#2103,#370);
#199=LINE('',#2104,#371);
#200=LINE('',#2107,#372);
#201=LINE('',#2109,#373);
#202=LINE('',#2110,#374);
#203=LINE('',#2113,#375);
#204=LINE('',#2115,#376);
#205=LINE('',#2116,#377);
#206=LINE('',#2118,#378);
#207=LINE('',#2119,#379);
#208=LINE('',#2123,#380);
#209=LINE('',#2125,#381);
#210=LINE('',#2127,#382);
#211=LINE('',#2128,#383);
#212=LINE('',#2131,#384);
#213=LINE('',#2133,#385);
#214=LINE('',#2134,#386);
#215=LINE('',#2137,#387);
#216=LINE('',#2138,#388);
#217=LINE('',#2141,#389);
#218=LINE('',#2142,#390);
#219=LINE('',#2144,#391);
#220=VECTOR('',#1462,1.09999997541308);
#221=VECTOR('',#1469,1.09999997541308);
#222=VECTOR('',#1480,1.09999997541308);
#223=VECTOR('',#1487,1.09999997541308);
#224=VECTOR('',#1492,10.);
#225=VECTOR('',#1493,10.);
#226=VECTOR('',#1494,10.);
#227=VECTOR('',#1495,10.);
#228=VECTOR('',#1498,10.);
#229=VECTOR('',#1499,10.);
#230=VECTOR('',#1500,10.);
#231=VECTOR('',#1503,10.);
#232=VECTOR('',#1504,10.);
#233=VECTOR('',#1505,10.);
#234=VECTOR('',#1506,10.);
#235=VECTOR('',#1509,10.);
#236=VECTOR('',#1510,10.);
#237=VECTOR('',#1511,10.);
#238=VECTOR('',#1514,10.);
#239=VECTOR('',#1515,10.);
#240=VECTOR('',#1516,10.);
#241=VECTOR('',#1517,10.);
#242=VECTOR('',#1520,10.);
#243=VECTOR('',#1521,10.);
#244=VECTOR('',#1522,10.);
#245=VECTOR('',#1525,10.);
#246=VECTOR('',#1526,10.);
#247=VECTOR('',#1527,10.);
#248=VECTOR('',#1530,10.);
#249=VECTOR('',#1531,10.);
#250=VECTOR('',#1536,10.);
#251=VECTOR('',#1537,10.);
#252=VECTOR('',#1538,10.);
#253=VECTOR('',#1539,10.);
#254=VECTOR('',#1542,10.);
#255=VECTOR('',#1543,10.);
#256=VECTOR('',#1544,10.);
#257=VECTOR('',#1547,10.);
#258=VECTOR('',#1548,10.);
#259=VECTOR('',#1549,10.);
#260=VECTOR('',#1552,10.);
#261=VECTOR('',#1553,10.);
#262=VECTOR('',#1556,10.);
#263=VECTOR('',#1557,10.);
#264=VECTOR('',#1558,10.);
#265=VECTOR('',#1561,10.);
#266=VECTOR('',#1562,10.);
#267=VECTOR('',#1565,10.);
#268=VECTOR('',#1566,10.);
#269=VECTOR('',#1567,10.);
#270=VECTOR('',#1570,10.);
#271=VECTOR('',#1571,10.);
#272=VECTOR('',#1574,10.);
#273=VECTOR('',#1575,10.);
#274=VECTOR('',#1576,10.);
#275=VECTOR('',#1577,10.);
#276=VECTOR('',#1580,10.);
#277=VECTOR('',#1581,10.);
#278=VECTOR('',#1582,10.);
#279=VECTOR('',#1583,10.);
#280=VECTOR('',#1586,10.);
#281=VECTOR('',#1587,10.);
#282=VECTOR('',#1590,10.);
#283=VECTOR('',#1591,10.);
#284=VECTOR('',#1594,10.);
#285=VECTOR('',#1595,10.);
#286=VECTOR('',#1596,10.);
#287=VECTOR('',#1597,10.);
#288=VECTOR('',#1600,10.);
#289=VECTOR('',#1601,10.);
#290=VECTOR('',#1602,10.);
#291=VECTOR('',#1605,10.);
#292=VECTOR('',#1606,10.);
#293=VECTOR('',#1607,10.);
#294=VECTOR('',#1610,10.);
#295=VECTOR('',#1611,10.);
#296=VECTOR('',#1614,10.);
#297=VECTOR('',#1615,10.);
#298=VECTOR('',#1616,10.);
#299=VECTOR('',#1617,10.);
#300=VECTOR('',#1620,10.);
#301=VECTOR('',#1621,10.);
#302=VECTOR('',#1622,10.);
#303=VECTOR('',#1625,10.);
#304=VECTOR('',#1626,10.);
#305=VECTOR('',#1627,10.);
#306=VECTOR('',#1630,10.);
#307=VECTOR('',#1631,10.);
#308=VECTOR('',#1634,10.);
#309=VECTOR('',#1635,10.);
#310=VECTOR('',#1636,10.);
#311=VECTOR('',#1637,10.);
#312=VECTOR('',#1640,10.);
#313=VECTOR('',#1641,10.);
#314=VECTOR('',#1642,10.);
#315=VECTOR('',#1645,10.);
#316=VECTOR('',#1646,10.);
#317=VECTOR('',#1647,10.);
#318=VECTOR('',#1650,10.);
#319=VECTOR('',#1651,10.);
#320=VECTOR('',#1654,10.);
#321=VECTOR('',#1655,10.);
#322=VECTOR('',#1656,10.);
#323=VECTOR('',#1657,10.);
#324=VECTOR('',#1660,10.);
#325=VECTOR('',#1661,10.);
#326=VECTOR('',#1662,10.);
#327=VECTOR('',#1665,10.);
#328=VECTOR('',#1666,10.);
#329=VECTOR('',#1667,10.);
#330=VECTOR('',#1670,10.);
#331=VECTOR('',#1671,10.);
#332=VECTOR('',#1674,10.);
#333=VECTOR('',#1675,10.);
#334=VECTOR('',#1676,10.);
#335=VECTOR('',#1677,10.);
#336=VECTOR('',#1680,10.);
#337=VECTOR('',#1681,10.);
#338=VECTOR('',#1682,10.);
#339=VECTOR('',#1685,10.);
#340=VECTOR('',#1686,10.);
#341=VECTOR('',#1687,10.);
#342=VECTOR('',#1690,10.);
#343=VECTOR('',#1691,10.);
#344=VECTOR('',#1694,10.);
#345=VECTOR('',#1695,10.);
#346=VECTOR('',#1696,10.);
#347=VECTOR('',#1697,10.);
#348=VECTOR('',#1700,10.);
#349=VECTOR('',#1701,10.);
#350=VECTOR('',#1702,10.);
#351=VECTOR('',#1705,10.);
#352=VECTOR('',#1706,10.);
#353=VECTOR('',#1707,10.);
#354=VECTOR('',#1710,10.);
#355=VECTOR('',#1711,10.);
#356=VECTOR('',#1714,10.);
#357=VECTOR('',#1715,10.);
#358=VECTOR('',#1716,10.);
#359=VECTOR('',#1717,10.);
#360=VECTOR('',#1720,10.);
#361=VECTOR('',#1721,10.);
#362=VECTOR('',#1722,10.);
#363=VECTOR('',#1725,10.);
#364=VECTOR('',#1726,10.);
#365=VECTOR('',#1727,10.);
#366=VECTOR('',#1730,10.);
#367=VECTOR('',#1731,10.);
#368=VECTOR('',#1734,10.);
#369=VECTOR('',#1735,10.);
#370=VECTOR('',#1736,10.);
#371=VECTOR('',#1737,10.);
#372=VECTOR('',#1740,10.);
#373=VECTOR('',#1741,10.);
#374=VECTOR('',#1742,10.);
#375=VECTOR('',#1745,10.);
#376=VECTOR('',#1746,10.);
#377=VECTOR('',#1747,10.);
#378=VECTOR('',#1750,10.);
#379=VECTOR('',#1751,10.);
#380=VECTOR('',#1754,10.);
#381=VECTOR('',#1755,10.);
#382=VECTOR('',#1756,10.);
#383=VECTOR('',#1757,10.);
#384=VECTOR('',#1760,10.);
#385=VECTOR('',#1761,10.);
#386=VECTOR('',#1762,10.);
#387=VECTOR('',#1765,10.);
#388=VECTOR('',#1766,10.);
#389=VECTOR('',#1769,10.);
#390=VECTOR('',#1770,10.);
#391=VECTOR('',#1773,10.);
#392=CYLINDRICAL_SURFACE('',#1379,1.09999997541308);
#393=CYLINDRICAL_SURFACE('',#1382,1.09999997541308);
#394=CYLINDRICAL_SURFACE('',#1387,1.09999997541308);
#395=CYLINDRICAL_SURFACE('',#1390,1.09999997541308);
#396=FACE_OUTER_BOUND('',#461,.T.);
#397=FACE_OUTER_BOUND('',#462,.T.);
#398=FACE_OUTER_BOUND('',#463,.T.);
#399=FACE_OUTER_BOUND('',#464,.T.);
#400=FACE_OUTER_BOUND('',#465,.T.);
#401=FACE_OUTER_BOUND('',#466,.T.);
#402=FACE_OUTER_BOUND('',#467,.T.);
#403=FACE_OUTER_BOUND('',#468,.T.);
#404=FACE_OUTER_BOUND('',#469,.T.);
#405=FACE_OUTER_BOUND('',#470,.T.);
#406=FACE_OUTER_BOUND('',#471,.T.);
#407=FACE_OUTER_BOUND('',#472,.T.);
#408=FACE_OUTER_BOUND('',#473,.T.);
#409=FACE_OUTER_BOUND('',#474,.T.);
#410=FACE_OUTER_BOUND('',#475,.T.);
#411=FACE_OUTER_BOUND('',#476,.T.);
#412=FACE_OUTER_BOUND('',#477,.T.);
#413=FACE_OUTER_BOUND('',#478,.T.);
#414=FACE_OUTER_BOUND('',#479,.T.);
#415=FACE_OUTER_BOUND('',#480,.T.);
#416=FACE_OUTER_BOUND('',#481,.T.);
#417=FACE_OUTER_BOUND('',#482,.T.);
#418=FACE_OUTER_BOUND('',#483,.T.);
#419=FACE_OUTER_BOUND('',#484,.T.);
#420=FACE_OUTER_BOUND('',#485,.T.);
#421=FACE_OUTER_BOUND('',#486,.T.);
#422=FACE_OUTER_BOUND('',#487,.T.);
#423=FACE_OUTER_BOUND('',#488,.T.);
#424=FACE_OUTER_BOUND('',#489,.T.);
#425=FACE_OUTER_BOUND('',#490,.T.);
#426=FACE_OUTER_BOUND('',#491,.T.);
#427=FACE_OUTER_BOUND('',#492,.T.);
#428=FACE_OUTER_BOUND('',#493,.T.);
#429=FACE_OUTER_BOUND('',#494,.T.);
#430=FACE_OUTER_BOUND('',#495,.T.);
#431=FACE_OUTER_BOUND('',#496,.T.);
#432=FACE_OUTER_BOUND('',#497,.T.);
#433=FACE_OUTER_BOUND('',#498,.T.);
#434=FACE_OUTER_BOUND('',#499,.T.);
#435=FACE_OUTER_BOUND('',#500,.T.);
#436=FACE_OUTER_BOUND('',#501,.T.);
#437=FACE_OUTER_BOUND('',#502,.T.);
#438=FACE_OUTER_BOUND('',#503,.T.);
#439=FACE_OUTER_BOUND('',#504,.T.);
#440=FACE_OUTER_BOUND('',#505,.T.);
#441=FACE_OUTER_BOUND('',#506,.T.);
#442=FACE_OUTER_BOUND('',#507,.T.);
#443=FACE_OUTER_BOUND('',#508,.T.);
#444=FACE_OUTER_BOUND('',#509,.T.);
#445=FACE_OUTER_BOUND('',#510,.T.);
#446=FACE_OUTER_BOUND('',#511,.T.);
#447=FACE_OUTER_BOUND('',#512,.T.);
#448=FACE_OUTER_BOUND('',#513,.T.);
#449=FACE_OUTER_BOUND('',#514,.T.);
#450=FACE_OUTER_BOUND('',#515,.T.);
#451=FACE_OUTER_BOUND('',#516,.T.);
#452=FACE_OUTER_BOUND('',#517,.T.);
#453=FACE_OUTER_BOUND('',#518,.T.);
#454=FACE_OUTER_BOUND('',#519,.T.);
#455=FACE_OUTER_BOUND('',#520,.T.);
#456=FACE_OUTER_BOUND('',#539,.T.);
#457=FACE_OUTER_BOUND('',#540,.T.);
#458=FACE_OUTER_BOUND('',#541,.T.);
#459=FACE_OUTER_BOUND('',#542,.T.);
#460=FACE_OUTER_BOUND('',#543,.T.);
#461=EDGE_LOOP('',(#873));
#462=EDGE_LOOP('',(#874,#875,#876,#877));
#463=EDGE_LOOP('',(#878,#879,#880,#881));
#464=EDGE_LOOP('',(#882));
#465=EDGE_LOOP('',(#883,#884,#885,#886));
#466=EDGE_LOOP('',(#887,#888,#889,#890));
#467=EDGE_LOOP('',(#891,#892,#893,#894));
#468=EDGE_LOOP('',(#895,#896,#897,#898));
#469=EDGE_LOOP('',(#899,#900,#901,#902));
#470=EDGE_LOOP('',(#903,#904,#905,#906));
#471=EDGE_LOOP('',(#907,#908,#909,#910));
#472=EDGE_LOOP('',(#911,#912,#913,#914));
#473=EDGE_LOOP('',(#915,#916,#917,#918));
#474=EDGE_LOOP('',(#919,#920,#921,#922));
#475=EDGE_LOOP('',(#923,#924,#925,#926));
#476=EDGE_LOOP('',(#927,#928,#929,#930));
#477=EDGE_LOOP('',(#931,#932,#933,#934));
#478=EDGE_LOOP('',(#935,#936,#937,#938));
#479=EDGE_LOOP('',(#939,#940,#941,#942));
#480=EDGE_LOOP('',(#943,#944,#945,#946));
#481=EDGE_LOOP('',(#947,#948,#949,#950));
#482=EDGE_LOOP('',(#951,#952,#953,#954));
#483=EDGE_LOOP('',(#955,#956,#957,#958));
#484=EDGE_LOOP('',(#959,#960,#961,#962));
#485=EDGE_LOOP('',(#963,#964,#965,#966));
#486=EDGE_LOOP('',(#967,#968,#969,#970));
#487=EDGE_LOOP('',(#971,#972,#973,#974));
#488=EDGE_LOOP('',(#975,#976,#977,#978));
#489=EDGE_LOOP('',(#979,#980,#981,#982));
#490=EDGE_LOOP('',(#983,#984,#985,#986));
#491=EDGE_LOOP('',(#987,#988,#989,#990));
#492=EDGE_LOOP('',(#991,#992,#993,#994));
#493=EDGE_LOOP('',(#995,#996,#997,#998));
#494=EDGE_LOOP('',(#999,#1000,#1001,#1002));
#495=EDGE_LOOP('',(#1003,#1004,#1005,#1006));
#496=EDGE_LOOP('',(#1007,#1008,#1009,#1010));
#497=EDGE_LOOP('',(#1011,#1012,#1013,#1014));
#498=EDGE_LOOP('',(#1015,#1016,#1017,#1018));
#499=EDGE_LOOP('',(#1019,#1020,#1021,#1022));
#500=EDGE_LOOP('',(#1023,#1024,#1025,#1026));
#501=EDGE_LOOP('',(#1027,#1028,#1029,#1030));
#502=EDGE_LOOP('',(#1031,#1032,#1033,#1034));
#503=EDGE_LOOP('',(#1035,#1036,#1037,#1038));
#504=EDGE_LOOP('',(#1039,#1040,#1041,#1042));
#505=EDGE_LOOP('',(#1043,#1044,#1045,#1046));
#506=EDGE_LOOP('',(#1047,#1048,#1049,#1050));
#507=EDGE_LOOP('',(#1051,#1052,#1053,#1054));
#508=EDGE_LOOP('',(#1055,#1056,#1057,#1058));
#509=EDGE_LOOP('',(#1059,#1060,#1061,#1062));
#510=EDGE_LOOP('',(#1063,#1064,#1065,#1066));
#511=EDGE_LOOP('',(#1067,#1068,#1069,#1070));
#512=EDGE_LOOP('',(#1071,#1072,#1073,#1074));
#513=EDGE_LOOP('',(#1075,#1076,#1077,#1078));
#514=EDGE_LOOP('',(#1079,#1080,#1081,#1082));
#515=EDGE_LOOP('',(#1083,#1084,#1085,#1086));
#516=EDGE_LOOP('',(#1087,#1088,#1089,#1090));
#517=EDGE_LOOP('',(#1091,#1092,#1093,#1094));
#518=EDGE_LOOP('',(#1095,#1096,#1097,#1098));
#519=EDGE_LOOP('',(#1099,#1100,#1101,#1102));
#520=EDGE_LOOP('',(#1103,#1104,#1105,#1106));
#521=EDGE_LOOP('',(#1107));
#522=EDGE_LOOP('',(#1108));
#523=EDGE_LOOP('',(#1109));
#524=EDGE_LOOP('',(#1110));
#525=EDGE_LOOP('',(#1111,#1112,#1113,#1114));
#526=EDGE_LOOP('',(#1115,#1116,#1117,#1118));
#527=EDGE_LOOP('',(#1119,#1120,#1121,#1122));
#528=EDGE_LOOP('',(#1123,#1124,#1125,#1126));
#529=EDGE_LOOP('',(#1127,#1128,#1129,#1130));
#530=EDGE_LOOP('',(#1131,#1132,#1133,#1134));
#531=EDGE_LOOP('',(#1135,#1136,#1137,#1138));
#532=EDGE_LOOP('',(#1139,#1140,#1141,#1142));
#533=EDGE_LOOP('',(#1143,#1144,#1145,#1146));
#534=EDGE_LOOP('',(#1147,#1148,#1149,#1150));
#535=EDGE_LOOP('',(#1151,#1152,#1153,#1154));
#536=EDGE_LOOP('',(#1155,#1156,#1157,#1158,#1159,#1160,#1161,#1162));
#537=EDGE_LOOP('',(#1163));
#538=EDGE_LOOP('',(#1164));
#539=EDGE_LOOP('',(#1165,#1166,#1167,#1168));
#540=EDGE_LOOP('',(#1169,#1170,#1171,#1172));
#541=EDGE_LOOP('',(#1173,#1174,#1175,#1176));
#542=EDGE_LOOP('',(#1177,#1178,#1179,#1180));
#543=EDGE_LOOP('',(#1181,#1182,#1183,#1184));
#544=EDGE_LOOP('',(#1185));
#545=EDGE_LOOP('',(#1186));
#546=EDGE_LOOP('',(#1187,#1188,#1189,#1190));
#547=EDGE_LOOP('',(#1191,#1192,#1193,#1194));
#548=EDGE_LOOP('',(#1195,#1196,#1197,#1198));
#549=EDGE_LOOP('',(#1199,#1200,#1201,#1202));
#550=EDGE_LOOP('',(#1203,#1204,#1205,#1206));
#551=EDGE_LOOP('',(#1207,#1208,#1209,#1210));
#552=EDGE_LOOP('',(#1211,#1212,#1213,#1214));
#553=EDGE_LOOP('',(#1215,#1216,#1217,#1218));
#554=EDGE_LOOP('',(#1219,#1220,#1221,#1222));
#555=EDGE_LOOP('',(#1223,#1224,#1225,#1226,#1227,#1228,#1229,#1230));
#556=EDGE_LOOP('',(#1231,#1232,#1233,#1234));
#557=EDGE_LOOP('',(#1235));
#558=EDGE_LOOP('',(#1236));
#559=CIRCLE('',#1378,1.09999997541308);
#560=CIRCLE('',#1380,1.09999997541308);
#561=CIRCLE('',#1381,1.09999997541308);
#562=CIRCLE('',#1383,1.09999997541308);
#563=CIRCLE('',#1384,1.09999997541308);
#564=CIRCLE('',#1386,1.09999997541308);
#565=CIRCLE('',#1388,1.09999997541308);
#566=CIRCLE('',#1389,1.09999997541308);
#567=CIRCLE('',#1391,1.09999997541308);
#568=CIRCLE('',#1392,1.09999997541308);
#569=VERTEX_POINT('',#1778);
#570=VERTEX_POINT('',#1781);
#571=VERTEX_POINT('',#1783);
#572=VERTEX_POINT('',#1787);
#573=VERTEX_POINT('',#1789);
#574=VERTEX_POINT('',#1793);
#575=VERTEX_POINT('',#1796);
#576=VERTEX_POINT('',#1798);
#577=VERTEX_POINT('',#1802);
#578=VERTEX_POINT('',#1804);
#579=VERTEX_POINT('',#1808);
#580=VERTEX_POINT('',#1809);
#581=VERTEX_POINT('',#1811);
#582=VERTEX_POINT('',#1813);
#583=VERTEX_POINT('',#1817);
#584=VERTEX_POINT('',#1819);
#585=VERTEX_POINT('',#1823);
#586=VERTEX_POINT('',#1824);
#587=VERTEX_POINT('',#1826);
#588=VERTEX_POINT('',#1828);
#589=VERTEX_POINT('',#1832);
#590=VERTEX_POINT('',#1834);
#591=VERTEX_POINT('',#1838);
#592=VERTEX_POINT('',#1839);
#593=VERTEX_POINT('',#1841);
#594=VERTEX_POINT('',#1843);
#595=VERTEX_POINT('',#1847);
#596=VERTEX_POINT('',#1849);
#597=VERTEX_POINT('',#1853);
#598=VERTEX_POINT('',#1855);
#599=VERTEX_POINT('',#1863);
#600=VERTEX_POINT('',#1864);
#601=VERTEX_POINT('',#1866);
#602=VERTEX_POINT('',#1868);
#603=VERTEX_POINT('',#1872);
#604=VERTEX_POINT('',#1874);
#605=VERTEX_POINT('',#1878);
#606=VERTEX_POINT('',#1880);
#607=VERTEX_POINT('',#1887);
#608=VERTEX_POINT('',#1889);
#609=VERTEX_POINT('',#1896);
#610=VERTEX_POINT('',#1898);
#611=VERTEX_POINT('',#1905);
#612=VERTEX_POINT('',#1906);
#613=VERTEX_POINT('',#1908);
#614=VERTEX_POINT('',#1910);
#615=VERTEX_POINT('',#1914);
#616=VERTEX_POINT('',#1915);
#617=VERTEX_POINT('',#1917);
#618=VERTEX_POINT('',#1919);
#619=VERTEX_POINT('',#1929);
#620=VERTEX_POINT('',#1930);
#621=VERTEX_POINT('',#1932);
#622=VERTEX_POINT('',#1934);
#623=VERTEX_POINT('',#1938);
#624=VERTEX_POINT('',#1940);
#625=VERTEX_POINT('',#1944);
#626=VERTEX_POINT('',#1946);
#627=VERTEX_POINT('',#1953);
#628=VERTEX_POINT('',#1954);
#629=VERTEX_POINT('',#1956);
#630=VERTEX_POINT('',#1958);
#631=VERTEX_POINT('',#1962);
#632=VERTEX_POINT('',#1964);
#633=VERTEX_POINT('',#1968);
#634=VERTEX_POINT('',#1970);
#635=VERTEX_POINT('',#1977);
#636=VERTEX_POINT('',#1978);
#637=VERTEX_POINT('',#1980);
#638=VERTEX_POINT('',#1982);
#639=VERTEX_POINT('',#1986);
#640=VERTEX_POINT('',#1988);
#641=VERTEX_POINT('',#1992);
#642=VERTEX_POINT('',#1994);
#643=VERTEX_POINT('',#2001);
#644=VERTEX_POINT('',#2002);
#645=VERTEX_POINT('',#2004);
#646=VERTEX_POINT('',#2006);
#647=VERTEX_POINT('',#2010);
#648=VERTEX_POINT('',#2012);
#649=VERTEX_POINT('',#2016);
#650=VERTEX_POINT('',#2018);
#651=VERTEX_POINT('',#2025);
#652=VERTEX_POINT('',#2026);
#653=VERTEX_POINT('',#2028);
#654=VERTEX_POINT('',#2030);
#655=VERTEX_POINT('',#2034);
#656=VERTEX_POINT('',#2036);
#657=VERTEX_POINT('',#2040);
#658=VERTEX_POINT('',#2042);
#659=VERTEX_POINT('',#2049);
#660=VERTEX_POINT('',#2050);
#661=VERTEX_POINT('',#2052);
#662=VERTEX_POINT('',#2054);
#663=VERTEX_POINT('',#2058);
#664=VERTEX_POINT('',#2060);
#665=VERTEX_POINT('',#2064);
#666=VERTEX_POINT('',#2066);
#667=VERTEX_POINT('',#2073);
#668=VERTEX_POINT('',#2074);
#669=VERTEX_POINT('',#2076);
#670=VERTEX_POINT('',#2078);
#671=VERTEX_POINT('',#2082);
#672=VERTEX_POINT('',#2084);
#673=VERTEX_POINT('',#2088);
#674=VERTEX_POINT('',#2090);
#675=VERTEX_POINT('',#2097);
#676=VERTEX_POINT('',#2098);
#677=VERTEX_POINT('',#2100);
#678=VERTEX_POINT('',#2102);
#679=VERTEX_POINT('',#2106);
#680=VERTEX_POINT('',#2108);
#681=VERTEX_POINT('',#2112);
#682=VERTEX_POINT('',#2114);
#683=VERTEX_POINT('',#2121);
#684=VERTEX_POINT('',#2122);
#685=VERTEX_POINT('',#2124);
#686=VERTEX_POINT('',#2126);
#687=VERTEX_POINT('',#2130);
#688=VERTEX_POINT('',#2132);
#689=VERTEX_POINT('',#2136);
#690=VERTEX_POINT('',#2140);
#691=EDGE_CURVE('',#569,#569,#559,.T.);
#692=EDGE_CURVE('',#570,#570,#560,.T.);
#693=EDGE_CURVE('',#570,#571,#48,.T.);
#694=EDGE_CURVE('',#571,#571,#561,.T.);
#695=EDGE_CURVE('',#572,#572,#562,.T.);
#696=EDGE_CURVE('',#572,#573,#49,.T.);
#697=EDGE_CURVE('',#573,#573,#563,.T.);
#698=EDGE_CURVE('',#574,#574,#564,.T.);
#699=EDGE_CURVE('',#575,#575,#565,.T.);
#700=EDGE_CURVE('',#575,#576,#50,.T.);
#701=EDGE_CURVE('',#576,#576,#566,.T.);
#702=EDGE_CURVE('',#577,#577,#567,.T.);
#703=EDGE_CURVE('',#577,#578,#51,.T.);
#704=EDGE_CURVE('',#578,#578,#568,.T.);
#705=EDGE_CURVE('',#579,#580,#52,.T.);
#706=EDGE_CURVE('',#581,#579,#53,.T.);
#707=EDGE_CURVE('',#582,#581,#54,.T.);
#708=EDGE_CURVE('',#580,#582,#55,.T.);
#709=EDGE_CURVE('',#583,#579,#56,.T.);
#710=EDGE_CURVE('',#584,#583,#57,.T.);
#711=EDGE_CURVE('',#581,#584,#58,.T.);
#712=EDGE_CURVE('',#585,#586,#59,.T.);
#713=EDGE_CURVE('',#587,#585,#60,.T.);
#714=EDGE_CURVE('',#588,#587,#61,.T.);
#715=EDGE_CURVE('',#586,#588,#62,.T.);
#716=EDGE_CURVE('',#586,#589,#63,.T.);
#717=EDGE_CURVE('',#590,#588,#64,.T.);
#718=EDGE_CURVE('',#589,#590,#65,.T.);
#719=EDGE_CURVE('',#591,#592,#66,.T.);
#720=EDGE_CURVE('',#591,#593,#67,.T.);
#721=EDGE_CURVE('',#593,#594,#68,.T.);
#722=EDGE_CURVE('',#592,#594,#69,.T.);
#723=EDGE_CURVE('',#595,#591,#70,.T.);
#724=EDGE_CURVE('',#595,#596,#71,.T.);
#725=EDGE_CURVE('',#596,#593,#72,.T.);
#726=EDGE_CURVE('',#597,#595,#73,.T.);
#727=EDGE_CURVE('',#597,#598,#74,.T.);
#728=EDGE_CURVE('',#598,#596,#75,.T.);
#729=EDGE_CURVE('',#592,#597,#76,.T.);
#730=EDGE_CURVE('',#594,#598,#77,.T.);
#731=EDGE_CURVE('',#599,#600,#78,.T.);
#732=EDGE_CURVE('',#601,#599,#79,.T.);
#733=EDGE_CURVE('',#602,#601,#80,.T.);
#734=EDGE_CURVE('',#602,#600,#81,.T.);
#735=EDGE_CURVE('',#600,#603,#82,.T.);
#736=EDGE_CURVE('',#604,#602,#83,.T.);
#737=EDGE_CURVE('',#604,#603,#84,.T.);
#738=EDGE_CURVE('',#603,#605,#85,.T.);
#739=EDGE_CURVE('',#606,#604,#86,.T.);
#740=EDGE_CURVE('',#606,#605,#87,.T.);
#741=EDGE_CURVE('',#605,#599,#88,.T.);
#742=EDGE_CURVE('',#601,#606,#89,.T.);
#743=EDGE_CURVE('',#589,#607,#90,.T.);
#744=EDGE_CURVE('',#608,#590,#91,.T.);
#745=EDGE_CURVE('',#608,#607,#92,.T.);
#746=EDGE_CURVE('',#607,#583,#93,.T.);
#747=EDGE_CURVE('',#584,#608,#94,.T.);
#748=EDGE_CURVE('',#580,#609,#95,.T.);
#749=EDGE_CURVE('',#610,#582,#96,.T.);
#750=EDGE_CURVE('',#610,#609,#97,.T.);
#751=EDGE_CURVE('',#609,#585,#98,.T.);
#752=EDGE_CURVE('',#587,#610,#99,.T.);
#753=EDGE_CURVE('',#611,#612,#100,.T.);
#754=EDGE_CURVE('',#612,#613,#101,.T.);
#755=EDGE_CURVE('',#613,#614,#102,.T.);
#756=EDGE_CURVE('',#614,#611,#103,.T.);
#757=EDGE_CURVE('',#615,#616,#104,.T.);
#758=EDGE_CURVE('',#616,#617,#105,.T.);
#759=EDGE_CURVE('',#617,#618,#106,.T.);
#760=EDGE_CURVE('',#618,#615,#107,.T.);
#761=EDGE_CURVE('',#611,#616,#108,.T.);
#762=EDGE_CURVE('',#617,#614,#109,.T.);
#763=EDGE_CURVE('',#615,#612,#110,.T.);
#764=EDGE_CURVE('',#613,#618,#111,.T.);
#765=EDGE_CURVE('',#619,#620,#112,.T.);
#766=EDGE_CURVE('',#621,#619,#113,.T.);
#767=EDGE_CURVE('',#622,#621,#114,.T.);
#768=EDGE_CURVE('',#622,#620,#115,.T.);
#769=EDGE_CURVE('',#620,#623,#116,.T.);
#770=EDGE_CURVE('',#624,#622,#117,.T.);
#771=EDGE_CURVE('',#624,#623,#118,.T.);
#772=EDGE_CURVE('',#623,#625,#119,.T.);
#773=EDGE_CURVE('',#626,#624,#120,.T.);
#774=EDGE_CURVE('',#626,#625,#121,.T.);
#775=EDGE_CURVE('',#625,#619,#122,.T.);
#776=EDGE_CURVE('',#621,#626,#123,.T.);
#777=EDGE_CURVE('',#627,#628,#124,.T.);
#778=EDGE_CURVE('',#629,#627,#125,.T.);
#779=EDGE_CURVE('',#630,#629,#126,.T.);
#780=EDGE_CURVE('',#630,#628,#127,.T.);
#781=EDGE_CURVE('',#628,#631,#128,.T.);
#782=EDGE_CURVE('',#632,#630,#129,.T.);
#783=EDGE_CURVE('',#632,#631,#130,.T.);
#784=EDGE_CURVE('',#631,#633,#131,.T.);
#785=EDGE_CURVE('',#634,#632,#132,.T.);
#786=EDGE_CURVE('',#634,#633,#133,.T.);
#787=EDGE_CURVE('',#633,#627,#134,.T.);
#788=EDGE_CURVE('',#629,#634,#135,.T.);
#789=EDGE_CURVE('',#635,#636,#136,.T.);
#790=EDGE_CURVE('',#637,#635,#137,.T.);
#791=EDGE_CURVE('',#638,#637,#138,.T.);
#792=EDGE_CURVE('',#638,#636,#139,.T.);
#793=EDGE_CURVE('',#636,#639,#140,.T.);
#794=EDGE_CURVE('',#640,#638,#141,.T.);
#795=EDGE_CURVE('',#640,#639,#142,.T.);
#796=EDGE_CURVE('',#639,#641,#143,.T.);
#797=EDGE_CURVE('',#642,#640,#144,.T.);
#798=EDGE_CURVE('',#642,#641,#145,.T.);
#799=EDGE_CURVE('',#641,#635,#146,.T.);
#800=EDGE_CURVE('',#637,#642,#147,.T.);
#801=EDGE_CURVE('',#643,#644,#148,.T.);
#802=EDGE_CURVE('',#645,#643,#149,.T.);
#803=EDGE_CURVE('',#646,#645,#150,.T.);
#804=EDGE_CURVE('',#646,#644,#151,.T.);
#805=EDGE_CURVE('',#644,#647,#152,.T.);
#806=EDGE_CURVE('',#648,#646,#153,.T.);
#807=EDGE_CURVE('',#648,#647,#154,.T.);
#808=EDGE_CURVE('',#647,#649,#155,.T.);
#809=EDGE_CURVE('',#650,#648,#156,.T.);
#810=EDGE_CURVE('',#650,#649,#157,.T.);
#811=EDGE_CURVE('',#649,#643,#158,.T.);
#812=EDGE_CURVE('',#645,#650,#159,.T.);
#813=EDGE_CURVE('',#651,#652,#160,.T.);
#814=EDGE_CURVE('',#653,#651,#161,.T.);
#815=EDGE_CURVE('',#654,#653,#162,.T.);
#816=EDGE_CURVE('',#654,#652,#163,.T.);
#817=EDGE_CURVE('',#652,#655,#164,.T.);
#818=EDGE_CURVE('',#656,#654,#165,.T.);
#819=EDGE_CURVE('',#656,#655,#166,.T.);
#820=EDGE_CURVE('',#655,#657,#167,.T.);
#821=EDGE_CURVE('',#658,#656,#168,.T.);
#822=EDGE_CURVE('',#658,#657,#169,.T.);
#823=EDGE_CURVE('',#657,#651,#170,.T.);
#824=EDGE_CURVE('',#653,#658,#171,.T.);
#825=EDGE_CURVE('',#659,#660,#172,.T.);
#826=EDGE_CURVE('',#661,#659,#173,.T.);
#827=EDGE_CURVE('',#662,#661,#174,.T.);
#828=EDGE_CURVE('',#662,#660,#175,.T.);
#829=EDGE_CURVE('',#660,#663,#176,.T.);
#830=EDGE_CURVE('',#664,#662,#177,.T.);
#831=EDGE_CURVE('',#664,#663,#178,.T.);
#832=EDGE_CURVE('',#663,#665,#179,.T.);
#833=EDGE_CURVE('',#666,#664,#180,.T.);
#834=EDGE_CURVE('',#666,#665,#181,.T.);
#835=EDGE_CURVE('',#665,#659,#182,.T.);
#836=EDGE_CURVE('',#661,#666,#183,.T.);
#837=EDGE_CURVE('',#667,#668,#184,.T.);
#838=EDGE_CURVE('',#669,#667,#185,.T.);
#839=EDGE_CURVE('',#670,#669,#186,.T.);
#840=EDGE_CURVE('',#670,#668,#187,.T.);
#841=EDGE_CURVE('',#668,#671,#188,.T.);
#842=EDGE_CURVE('',#672,#670,#189,.T.);
#843=EDGE_CURVE('',#672,#671,#190,.T.);
#844=EDGE_CURVE('',#671,#673,#191,.T.);
#845=EDGE_CURVE('',#674,#672,#192,.T.);
#846=EDGE_CURVE('',#674,#673,#193,.T.);
#847=EDGE_CURVE('',#673,#667,#194,.T.);
#848=EDGE_CURVE('',#669,#674,#195,.T.);
#849=EDGE_CURVE('',#675,#676,#196,.T.);
#850=EDGE_CURVE('',#677,#675,#197,.T.);
#851=EDGE_CURVE('',#678,#677,#198,.T.);
#852=EDGE_CURVE('',#678,#676,#199,.T.);
#853=EDGE_CURVE('',#676,#679,#200,.T.);
#854=EDGE_CURVE('',#680,#678,#201,.T.);
#855=EDGE_CURVE('',#680,#679,#202,.T.);
#856=EDGE_CURVE('',#679,#681,#203,.T.);
#857=EDGE_CURVE('',#682,#680,#204,.T.);
#858=EDGE_CURVE('',#682,#681,#205,.T.);
#859=EDGE_CURVE('',#681,#675,#206,.T.);
#860=EDGE_CURVE('',#677,#682,#207,.T.);
#861=EDGE_CURVE('',#683,#684,#208,.T.);
#862=EDGE_CURVE('',#685,#683,#209,.T.);
#863=EDGE_CURVE('',#686,#685,#210,.T.);
#864=EDGE_CURVE('',#684,#686,#211,.T.);
#865=EDGE_CURVE('',#683,#687,#212,.T.);
#866=EDGE_CURVE('',#688,#687,#213,.T.);
#867=EDGE_CURVE('',#685,#688,#214,.T.);
#868=EDGE_CURVE('',#684,#689,#215,.T.);
#869=EDGE_CURVE('',#687,#689,#216,.T.);
#870=EDGE_CURVE('',#690,#688,#217,.T.);
#871=EDGE_CURVE('',#686,#690,#218,.T.);
#872=EDGE_CURVE('',#689,#690,#219,.T.);
#873=ORIENTED_EDGE('',*,*,#691,.F.);
#874=ORIENTED_EDGE('',*,*,#692,.F.);
#875=ORIENTED_EDGE('',*,*,#693,.T.);
#876=ORIENTED_EDGE('',*,*,#694,.F.);
#877=ORIENTED_EDGE('',*,*,#693,.F.);
#878=ORIENTED_EDGE('',*,*,#695,.F.);
#879=ORIENTED_EDGE('',*,*,#696,.T.);
#880=ORIENTED_EDGE('',*,*,#697,.F.);
#881=ORIENTED_EDGE('',*,*,#696,.F.);
#882=ORIENTED_EDGE('',*,*,#698,.F.);
#883=ORIENTED_EDGE('',*,*,#699,.F.);
#884=ORIENTED_EDGE('',*,*,#700,.T.);
#885=ORIENTED_EDGE('',*,*,#701,.F.);
#886=ORIENTED_EDGE('',*,*,#700,.F.);
#887=ORIENTED_EDGE('',*,*,#702,.F.);
#888=ORIENTED_EDGE('',*,*,#703,.T.);
#889=ORIENTED_EDGE('',*,*,#704,.F.);
#890=ORIENTED_EDGE('',*,*,#703,.F.);
#891=ORIENTED_EDGE('',*,*,#705,.F.);
#892=ORIENTED_EDGE('',*,*,#706,.F.);
#893=ORIENTED_EDGE('',*,*,#707,.F.);
#894=ORIENTED_EDGE('',*,*,#708,.F.);
#895=ORIENTED_EDGE('',*,*,#709,.F.);
#896=ORIENTED_EDGE('',*,*,#710,.F.);
#897=ORIENTED_EDGE('',*,*,#711,.F.);
#898=ORIENTED_EDGE('',*,*,#706,.T.);
#899=ORIENTED_EDGE('',*,*,#712,.F.);
#900=ORIENTED_EDGE('',*,*,#713,.F.);
#901=ORIENTED_EDGE('',*,*,#714,.F.);
#902=ORIENTED_EDGE('',*,*,#715,.F.);
#903=ORIENTED_EDGE('',*,*,#716,.F.);
#904=ORIENTED_EDGE('',*,*,#715,.T.);
#905=ORIENTED_EDGE('',*,*,#717,.F.);
#906=ORIENTED_EDGE('',*,*,#718,.F.);
#907=ORIENTED_EDGE('',*,*,#719,.F.);
#908=ORIENTED_EDGE('',*,*,#720,.T.);
#909=ORIENTED_EDGE('',*,*,#721,.T.);
#910=ORIENTED_EDGE('',*,*,#722,.F.);
#911=ORIENTED_EDGE('',*,*,#723,.F.);
#912=ORIENTED_EDGE('',*,*,#724,.T.);
#913=ORIENTED_EDGE('',*,*,#725,.T.);
#914=ORIENTED_EDGE('',*,*,#720,.F.);
#915=ORIENTED_EDGE('',*,*,#726,.F.);
#916=ORIENTED_EDGE('',*,*,#727,.T.);
#917=ORIENTED_EDGE('',*,*,#728,.T.);
#918=ORIENTED_EDGE('',*,*,#724,.F.);
#919=ORIENTED_EDGE('',*,*,#729,.F.);
#920=ORIENTED_EDGE('',*,*,#722,.T.);
#921=ORIENTED_EDGE('',*,*,#730,.T.);
#922=ORIENTED_EDGE('',*,*,#727,.F.);
#923=ORIENTED_EDGE('',*,*,#730,.F.);
#924=ORIENTED_EDGE('',*,*,#721,.F.);
#925=ORIENTED_EDGE('',*,*,#725,.F.);
#926=ORIENTED_EDGE('',*,*,#728,.F.);
#927=ORIENTED_EDGE('',*,*,#731,.F.);
#928=ORIENTED_EDGE('',*,*,#732,.F.);
#929=ORIENTED_EDGE('',*,*,#733,.F.);
#930=ORIENTED_EDGE('',*,*,#734,.T.);
#931=ORIENTED_EDGE('',*,*,#735,.F.);
#932=ORIENTED_EDGE('',*,*,#734,.F.);
#933=ORIENTED_EDGE('',*,*,#736,.F.);
#934=ORIENTED_EDGE('',*,*,#737,.T.);
#935=ORIENTED_EDGE('',*,*,#738,.F.);
#936=ORIENTED_EDGE('',*,*,#737,.F.);
#937=ORIENTED_EDGE('',*,*,#739,.F.);
#938=ORIENTED_EDGE('',*,*,#740,.T.);
#939=ORIENTED_EDGE('',*,*,#741,.F.);
#940=ORIENTED_EDGE('',*,*,#740,.F.);
#941=ORIENTED_EDGE('',*,*,#742,.F.);
#942=ORIENTED_EDGE('',*,*,#732,.T.);
#943=ORIENTED_EDGE('',*,*,#743,.F.);
#944=ORIENTED_EDGE('',*,*,#718,.T.);
#945=ORIENTED_EDGE('',*,*,#744,.F.);
#946=ORIENTED_EDGE('',*,*,#745,.T.);
#947=ORIENTED_EDGE('',*,*,#746,.F.);
#948=ORIENTED_EDGE('',*,*,#745,.F.);
#949=ORIENTED_EDGE('',*,*,#747,.F.);
#950=ORIENTED_EDGE('',*,*,#710,.T.);
#951=ORIENTED_EDGE('',*,*,#748,.F.);
#952=ORIENTED_EDGE('',*,*,#708,.T.);
#953=ORIENTED_EDGE('',*,*,#749,.F.);
#954=ORIENTED_EDGE('',*,*,#750,.T.);
#955=ORIENTED_EDGE('',*,*,#751,.F.);
#956=ORIENTED_EDGE('',*,*,#750,.F.);
#957=ORIENTED_EDGE('',*,*,#752,.F.);
#958=ORIENTED_EDGE('',*,*,#713,.T.);
#959=ORIENTED_EDGE('',*,*,#753,.T.);
#960=ORIENTED_EDGE('',*,*,#754,.T.);
#961=ORIENTED_EDGE('',*,*,#755,.T.);
#962=ORIENTED_EDGE('',*,*,#756,.T.);
#963=ORIENTED_EDGE('',*,*,#757,.T.);
#964=ORIENTED_EDGE('',*,*,#758,.T.);
#965=ORIENTED_EDGE('',*,*,#759,.T.);
#966=ORIENTED_EDGE('',*,*,#760,.T.);
#967=ORIENTED_EDGE('',*,*,#761,.F.);
#968=ORIENTED_EDGE('',*,*,#756,.F.);
#969=ORIENTED_EDGE('',*,*,#762,.F.);
#970=ORIENTED_EDGE('',*,*,#758,.F.);
#971=ORIENTED_EDGE('',*,*,#763,.F.);
#972=ORIENTED_EDGE('',*,*,#760,.F.);
#973=ORIENTED_EDGE('',*,*,#764,.F.);
#974=ORIENTED_EDGE('',*,*,#754,.F.);
#975=ORIENTED_EDGE('',*,*,#765,.F.);
#976=ORIENTED_EDGE('',*,*,#766,.F.);
#977=ORIENTED_EDGE('',*,*,#767,.F.);
#978=ORIENTED_EDGE('',*,*,#768,.T.);
#979=ORIENTED_EDGE('',*,*,#769,.F.);
#980=ORIENTED_EDGE('',*,*,#768,.F.);
#981=ORIENTED_EDGE('',*,*,#770,.F.);
#982=ORIENTED_EDGE('',*,*,#771,.T.);
#983=ORIENTED_EDGE('',*,*,#772,.F.);
#984=ORIENTED_EDGE('',*,*,#771,.F.);
#985=ORIENTED_EDGE('',*,*,#773,.F.);
#986=ORIENTED_EDGE('',*,*,#774,.T.);
#987=ORIENTED_EDGE('',*,*,#775,.F.);
#988=ORIENTED_EDGE('',*,*,#774,.F.);
#989=ORIENTED_EDGE('',*,*,#776,.F.);
#990=ORIENTED_EDGE('',*,*,#766,.T.);
#991=ORIENTED_EDGE('',*,*,#777,.F.);
#992=ORIENTED_EDGE('',*,*,#778,.F.);
#993=ORIENTED_EDGE('',*,*,#779,.F.);
#994=ORIENTED_EDGE('',*,*,#780,.T.);
#995=ORIENTED_EDGE('',*,*,#781,.F.);
#996=ORIENTED_EDGE('',*,*,#780,.F.);
#997=ORIENTED_EDGE('',*,*,#782,.F.);
#998=ORIENTED_EDGE('',*,*,#783,.T.);
#999=ORIENTED_EDGE('',*,*,#784,.F.);
#1000=ORIENTED_EDGE('',*,*,#783,.F.);
#1001=ORIENTED_EDGE('',*,*,#785,.F.);
#1002=ORIENTED_EDGE('',*,*,#786,.T.);
#1003=ORIENTED_EDGE('',*,*,#787,.F.);
#1004=ORIENTED_EDGE('',*,*,#786,.F.);
#1005=ORIENTED_EDGE('',*,*,#788,.F.);
#1006=ORIENTED_EDGE('',*,*,#778,.T.);
#1007=ORIENTED_EDGE('',*,*,#789,.F.);
#1008=ORIENTED_EDGE('',*,*,#790,.F.);
#1009=ORIENTED_EDGE('',*,*,#791,.F.);
#1010=ORIENTED_EDGE('',*,*,#792,.T.);
#1011=ORIENTED_EDGE('',*,*,#793,.F.);
#1012=ORIENTED_EDGE('',*,*,#792,.F.);
#1013=ORIENTED_EDGE('',*,*,#794,.F.);
#1014=ORIENTED_EDGE('',*,*,#795,.T.);
#1015=ORIENTED_EDGE('',*,*,#796,.F.);
#1016=ORIENTED_EDGE('',*,*,#795,.F.);
#1017=ORIENTED_EDGE('',*,*,#797,.F.);
#1018=ORIENTED_EDGE('',*,*,#798,.T.);
#1019=ORIENTED_EDGE('',*,*,#799,.F.);
#1020=ORIENTED_EDGE('',*,*,#798,.F.);
#1021=ORIENTED_EDGE('',*,*,#800,.F.);
#1022=ORIENTED_EDGE('',*,*,#790,.T.);
#1023=ORIENTED_EDGE('',*,*,#801,.F.);
#1024=ORIENTED_EDGE('',*,*,#802,.F.);
#1025=ORIENTED_EDGE('',*,*,#803,.F.);
#1026=ORIENTED_EDGE('',*,*,#804,.T.);
#1027=ORIENTED_EDGE('',*,*,#805,.F.);
#1028=ORIENTED_EDGE('',*,*,#804,.F.);
#1029=ORIENTED_EDGE('',*,*,#806,.F.);
#1030=ORIENTED_EDGE('',*,*,#807,.T.);
#1031=ORIENTED_EDGE('',*,*,#808,.F.);
#1032=ORIENTED_EDGE('',*,*,#807,.F.);
#1033=ORIENTED_EDGE('',*,*,#809,.F.);
#1034=ORIENTED_EDGE('',*,*,#810,.T.);
#1035=ORIENTED_EDGE('',*,*,#811,.F.);
#1036=ORIENTED_EDGE('',*,*,#810,.F.);
#1037=ORIENTED_EDGE('',*,*,#812,.F.);
#1038=ORIENTED_EDGE('',*,*,#802,.T.);
#1039=ORIENTED_EDGE('',*,*,#813,.F.);
#1040=ORIENTED_EDGE('',*,*,#814,.F.);
#1041=ORIENTED_EDGE('',*,*,#815,.F.);
#1042=ORIENTED_EDGE('',*,*,#816,.T.);
#1043=ORIENTED_EDGE('',*,*,#817,.F.);
#1044=ORIENTED_EDGE('',*,*,#816,.F.);
#1045=ORIENTED_EDGE('',*,*,#818,.F.);
#1046=ORIENTED_EDGE('',*,*,#819,.T.);
#1047=ORIENTED_EDGE('',*,*,#820,.F.);
#1048=ORIENTED_EDGE('',*,*,#819,.F.);
#1049=ORIENTED_EDGE('',*,*,#821,.F.);
#1050=ORIENTED_EDGE('',*,*,#822,.T.);
#1051=ORIENTED_EDGE('',*,*,#823,.F.);
#1052=ORIENTED_EDGE('',*,*,#822,.F.);
#1053=ORIENTED_EDGE('',*,*,#824,.F.);
#1054=ORIENTED_EDGE('',*,*,#814,.T.);
#1055=ORIENTED_EDGE('',*,*,#825,.F.);
#1056=ORIENTED_EDGE('',*,*,#826,.F.);
#1057=ORIENTED_EDGE('',*,*,#827,.F.);
#1058=ORIENTED_EDGE('',*,*,#828,.T.);
#1059=ORIENTED_EDGE('',*,*,#829,.F.);
#1060=ORIENTED_EDGE('',*,*,#828,.F.);
#1061=ORIENTED_EDGE('',*,*,#830,.F.);
#1062=ORIENTED_EDGE('',*,*,#831,.T.);
#1063=ORIENTED_EDGE('',*,*,#832,.F.);
#1064=ORIENTED_EDGE('',*,*,#831,.F.);
#1065=ORIENTED_EDGE('',*,*,#833,.F.);
#1066=ORIENTED_EDGE('',*,*,#834,.T.);
#1067=ORIENTED_EDGE('',*,*,#835,.F.);
#1068=ORIENTED_EDGE('',*,*,#834,.F.);
#1069=ORIENTED_EDGE('',*,*,#836,.F.);
#1070=ORIENTED_EDGE('',*,*,#826,.T.);
#1071=ORIENTED_EDGE('',*,*,#837,.F.);
#1072=ORIENTED_EDGE('',*,*,#838,.F.);
#1073=ORIENTED_EDGE('',*,*,#839,.F.);
#1074=ORIENTED_EDGE('',*,*,#840,.T.);
#1075=ORIENTED_EDGE('',*,*,#841,.F.);
#1076=ORIENTED_EDGE('',*,*,#840,.F.);
#1077=ORIENTED_EDGE('',*,*,#842,.F.);
#1078=ORIENTED_EDGE('',*,*,#843,.T.);
#1079=ORIENTED_EDGE('',*,*,#844,.F.);
#1080=ORIENTED_EDGE('',*,*,#843,.F.);
#1081=ORIENTED_EDGE('',*,*,#845,.F.);
#1082=ORIENTED_EDGE('',*,*,#846,.T.);
#1083=ORIENTED_EDGE('',*,*,#847,.F.);
#1084=ORIENTED_EDGE('',*,*,#846,.F.);
#1085=ORIENTED_EDGE('',*,*,#848,.F.);
#1086=ORIENTED_EDGE('',*,*,#838,.T.);
#1087=ORIENTED_EDGE('',*,*,#849,.F.);
#1088=ORIENTED_EDGE('',*,*,#850,.F.);
#1089=ORIENTED_EDGE('',*,*,#851,.F.);
#1090=ORIENTED_EDGE('',*,*,#852,.T.);
#1091=ORIENTED_EDGE('',*,*,#853,.F.);
#1092=ORIENTED_EDGE('',*,*,#852,.F.);
#1093=ORIENTED_EDGE('',*,*,#854,.F.);
#1094=ORIENTED_EDGE('',*,*,#855,.T.);
#1095=ORIENTED_EDGE('',*,*,#856,.F.);
#1096=ORIENTED_EDGE('',*,*,#855,.F.);
#1097=ORIENTED_EDGE('',*,*,#857,.F.);
#1098=ORIENTED_EDGE('',*,*,#858,.T.);
#1099=ORIENTED_EDGE('',*,*,#859,.F.);
#1100=ORIENTED_EDGE('',*,*,#858,.F.);
#1101=ORIENTED_EDGE('',*,*,#860,.F.);
#1102=ORIENTED_EDGE('',*,*,#850,.T.);
#1103=ORIENTED_EDGE('',*,*,#763,.T.);
#1104=ORIENTED_EDGE('',*,*,#753,.F.);
#1105=ORIENTED_EDGE('',*,*,#761,.T.);
#1106=ORIENTED_EDGE('',*,*,#757,.F.);
#1107=ORIENTED_EDGE('',*,*,#698,.T.);
#1108=ORIENTED_EDGE('',*,*,#701,.T.);
#1109=ORIENTED_EDGE('',*,*,#691,.T.);
#1110=ORIENTED_EDGE('',*,*,#704,.T.);
#1111=ORIENTED_EDGE('',*,*,#738,.T.);
#1112=ORIENTED_EDGE('',*,*,#741,.T.);
#1113=ORIENTED_EDGE('',*,*,#731,.T.);
#1114=ORIENTED_EDGE('',*,*,#735,.T.);
#1115=ORIENTED_EDGE('',*,*,#861,.F.);
#1116=ORIENTED_EDGE('',*,*,#862,.F.);
#1117=ORIENTED_EDGE('',*,*,#863,.F.);
#1118=ORIENTED_EDGE('',*,*,#864,.F.);
#1119=ORIENTED_EDGE('',*,*,#857,.T.);
#1120=ORIENTED_EDGE('',*,*,#854,.T.);
#1121=ORIENTED_EDGE('',*,*,#851,.T.);
#1122=ORIENTED_EDGE('',*,*,#860,.T.);
#1123=ORIENTED_EDGE('',*,*,#845,.T.);
#1124=ORIENTED_EDGE('',*,*,#842,.T.);
#1125=ORIENTED_EDGE('',*,*,#839,.T.);
#1126=ORIENTED_EDGE('',*,*,#848,.T.);
#1127=ORIENTED_EDGE('',*,*,#833,.T.);
#1128=ORIENTED_EDGE('',*,*,#830,.T.);
#1129=ORIENTED_EDGE('',*,*,#827,.T.);
#1130=ORIENTED_EDGE('',*,*,#836,.T.);
#1131=ORIENTED_EDGE('',*,*,#821,.T.);
#1132=ORIENTED_EDGE('',*,*,#818,.T.);
#1133=ORIENTED_EDGE('',*,*,#815,.T.);
#1134=ORIENTED_EDGE('',*,*,#824,.T.);
#1135=ORIENTED_EDGE('',*,*,#809,.T.);
#1136=ORIENTED_EDGE('',*,*,#806,.T.);
#1137=ORIENTED_EDGE('',*,*,#803,.T.);
#1138=ORIENTED_EDGE('',*,*,#812,.T.);
#1139=ORIENTED_EDGE('',*,*,#797,.T.);
#1140=ORIENTED_EDGE('',*,*,#794,.T.);
#1141=ORIENTED_EDGE('',*,*,#791,.T.);
#1142=ORIENTED_EDGE('',*,*,#800,.T.);
#1143=ORIENTED_EDGE('',*,*,#785,.T.);
#1144=ORIENTED_EDGE('',*,*,#782,.T.);
#1145=ORIENTED_EDGE('',*,*,#779,.T.);
#1146=ORIENTED_EDGE('',*,*,#788,.T.);
#1147=ORIENTED_EDGE('',*,*,#773,.T.);
#1148=ORIENTED_EDGE('',*,*,#770,.T.);
#1149=ORIENTED_EDGE('',*,*,#767,.T.);
#1150=ORIENTED_EDGE('',*,*,#776,.T.);
#1151=ORIENTED_EDGE('',*,*,#719,.T.);
#1152=ORIENTED_EDGE('',*,*,#729,.T.);
#1153=ORIENTED_EDGE('',*,*,#726,.T.);
#1154=ORIENTED_EDGE('',*,*,#723,.T.);
#1155=ORIENTED_EDGE('',*,*,#748,.T.);
#1156=ORIENTED_EDGE('',*,*,#751,.T.);
#1157=ORIENTED_EDGE('',*,*,#712,.T.);
#1158=ORIENTED_EDGE('',*,*,#716,.T.);
#1159=ORIENTED_EDGE('',*,*,#743,.T.);
#1160=ORIENTED_EDGE('',*,*,#746,.T.);
#1161=ORIENTED_EDGE('',*,*,#709,.T.);
#1162=ORIENTED_EDGE('',*,*,#705,.T.);
#1163=ORIENTED_EDGE('',*,*,#695,.T.);
#1164=ORIENTED_EDGE('',*,*,#692,.T.);
#1165=ORIENTED_EDGE('',*,*,#862,.T.);
#1166=ORIENTED_EDGE('',*,*,#865,.T.);
#1167=ORIENTED_EDGE('',*,*,#866,.F.);
#1168=ORIENTED_EDGE('',*,*,#867,.F.);
#1169=ORIENTED_EDGE('',*,*,#861,.T.);
#1170=ORIENTED_EDGE('',*,*,#868,.T.);
#1171=ORIENTED_EDGE('',*,*,#869,.F.);
#1172=ORIENTED_EDGE('',*,*,#865,.F.);
#1173=ORIENTED_EDGE('',*,*,#863,.T.);
#1174=ORIENTED_EDGE('',*,*,#867,.T.);
#1175=ORIENTED_EDGE('',*,*,#870,.F.);
#1176=ORIENTED_EDGE('',*,*,#871,.F.);
#1177=ORIENTED_EDGE('',*,*,#864,.T.);
#1178=ORIENTED_EDGE('',*,*,#871,.T.);
#1179=ORIENTED_EDGE('',*,*,#872,.F.);
#1180=ORIENTED_EDGE('',*,*,#868,.F.);
#1181=ORIENTED_EDGE('',*,*,#762,.T.);
#1182=ORIENTED_EDGE('',*,*,#755,.F.);
#1183=ORIENTED_EDGE('',*,*,#764,.T.);
#1184=ORIENTED_EDGE('',*,*,#759,.F.);
#1185=ORIENTED_EDGE('',*,*,#699,.T.);
#1186=ORIENTED_EDGE('',*,*,#702,.T.);
#1187=ORIENTED_EDGE('',*,*,#772,.T.);
#1188=ORIENTED_EDGE('',*,*,#775,.T.);
#1189=ORIENTED_EDGE('',*,*,#765,.T.);
#1190=ORIENTED_EDGE('',*,*,#769,.T.);
#1191=ORIENTED_EDGE('',*,*,#784,.T.);
#1192=ORIENTED_EDGE('',*,*,#787,.T.);
#1193=ORIENTED_EDGE('',*,*,#777,.T.);
#1194=ORIENTED_EDGE('',*,*,#781,.T.);
#1195=ORIENTED_EDGE('',*,*,#796,.T.);
#1196=ORIENTED_EDGE('',*,*,#799,.T.);
#1197=ORIENTED_EDGE('',*,*,#789,.T.);
#1198=ORIENTED_EDGE('',*,*,#793,.T.);
#1199=ORIENTED_EDGE('',*,*,#808,.T.);
#1200=ORIENTED_EDGE('',*,*,#811,.T.);
#1201=ORIENTED_EDGE('',*,*,#801,.T.);
#1202=ORIENTED_EDGE('',*,*,#805,.T.);
#1203=ORIENTED_EDGE('',*,*,#820,.T.);
#1204=ORIENTED_EDGE('',*,*,#823,.T.);
#1205=ORIENTED_EDGE('',*,*,#813,.T.);
#1206=ORIENTED_EDGE('',*,*,#817,.T.);
#1207=ORIENTED_EDGE('',*,*,#832,.T.);
#1208=ORIENTED_EDGE('',*,*,#835,.T.);
#1209=ORIENTED_EDGE('',*,*,#825,.T.);
#1210=ORIENTED_EDGE('',*,*,#829,.T.);
#1211=ORIENTED_EDGE('',*,*,#844,.T.);
#1212=ORIENTED_EDGE('',*,*,#847,.T.);
#1213=ORIENTED_EDGE('',*,*,#837,.T.);
#1214=ORIENTED_EDGE('',*,*,#841,.T.);
#1215=ORIENTED_EDGE('',*,*,#856,.T.);
#1216=ORIENTED_EDGE('',*,*,#859,.T.);
#1217=ORIENTED_EDGE('',*,*,#849,.T.);
#1218=ORIENTED_EDGE('',*,*,#853,.T.);
#1219=ORIENTED_EDGE('',*,*,#869,.T.);
#1220=ORIENTED_EDGE('',*,*,#872,.T.);
#1221=ORIENTED_EDGE('',*,*,#870,.T.);
#1222=ORIENTED_EDGE('',*,*,#866,.T.);
#1223=ORIENTED_EDGE('',*,*,#749,.T.);
#1224=ORIENTED_EDGE('',*,*,#707,.T.);
#1225=ORIENTED_EDGE('',*,*,#711,.T.);
#1226=ORIENTED_EDGE('',*,*,#747,.T.);
#1227=ORIENTED_EDGE('',*,*,#744,.T.);
#1228=ORIENTED_EDGE('',*,*,#717,.T.);
#1229=ORIENTED_EDGE('',*,*,#714,.T.);
#1230=ORIENTED_EDGE('',*,*,#752,.T.);
#1231=ORIENTED_EDGE('',*,*,#739,.T.);
#1232=ORIENTED_EDGE('',*,*,#736,.T.);
#1233=ORIENTED_EDGE('',*,*,#733,.T.);
#1234=ORIENTED_EDGE('',*,*,#742,.T.);
#1235=ORIENTED_EDGE('',*,*,#697,.T.);
#1236=ORIENTED_EDGE('',*,*,#694,.T.);
#1237=PLANE('',#1377);
#1238=PLANE('',#1385);
#1239=PLANE('',#1393);
#1240=PLANE('',#1394);
#1241=PLANE('',#1395);
#1242=PLANE('',#1396);
#1243=PLANE('',#1397);
#1244=PLANE('',#1398);
#1245=PLANE('',#1399);
#1246=PLANE('',#1400);
#1247=PLANE('',#1401);
#1248=PLANE('',#1402);
#1249=PLANE('',#1403);
#1250=PLANE('',#1404);
#1251=PLANE('',#1405);
#1252=PLANE('',#1406);
#1253=PLANE('',#1407);
#1254=PLANE('',#1408);
#1255=PLANE('',#1409);
#1256=PLANE('',#1410);
#1257=PLANE('',#1411);
#1258=PLANE('',#1412);
#1259=PLANE('',#1413);
#1260=PLANE('',#1414);
#1261=PLANE('',#1415);
#1262=PLANE('',#1416);
#1263=PLANE('',#1417);
#1264=PLANE('',#1418);
#1265=PLANE('',#1419);
#1266=PLANE('',#1420);
#1267=PLANE('',#1421);
#1268=PLANE('',#1422);
#1269=PLANE('',#1423);
#1270=PLANE('',#1424);
#1271=PLANE('',#1425);
#1272=PLANE('',#1426);
#1273=PLANE('',#1427);
#1274=PLANE('',#1428);
#1275=PLANE('',#1429);
#1276=PLANE('',#1430);
#1277=PLANE('',#1431);
#1278=PLANE('',#1432);
#1279=PLANE('',#1433);
#1280=PLANE('',#1434);
#1281=PLANE('',#1435);
#1282=PLANE('',#1436);
#1283=PLANE('',#1437);
#1284=PLANE('',#1438);
#1285=PLANE('',#1439);
#1286=PLANE('',#1440);
#1287=PLANE('',#1441);
#1288=PLANE('',#1442);
#1289=PLANE('',#1443);
#1290=PLANE('',#1444);
#1291=PLANE('',#1445);
#1292=PLANE('',#1446);
#1293=PLANE('',#1447);
#1294=PLANE('',#1448);
#1295=PLANE('',#1449);
#1296=PLANE('',#1450);
#1297=PLANE('',#1451);
#1298=ADVANCED_FACE('',(#396),#1237,.F.);
#1299=ADVANCED_FACE('',(#397),#392,.F.);
#1300=ADVANCED_FACE('',(#398),#393,.F.);
#1301=ADVANCED_FACE('',(#399),#1238,.F.);
#1302=ADVANCED_FACE('',(#400),#394,.F.);
#1303=ADVANCED_FACE('',(#401),#395,.F.);
#1304=ADVANCED_FACE('',(#402),#1239,.F.);
#1305=ADVANCED_FACE('',(#403),#1240,.F.);
#1306=ADVANCED_FACE('',(#404),#1241,.F.);
#1307=ADVANCED_FACE('',(#405),#1242,.F.);
#1308=ADVANCED_FACE('',(#406),#1243,.F.);
#1309=ADVANCED_FACE('',(#407),#1244,.F.);
#1310=ADVANCED_FACE('',(#408),#1245,.F.);
#1311=ADVANCED_FACE('',(#409),#1246,.F.);
#1312=ADVANCED_FACE('',(#410),#1247,.F.);
#1313=ADVANCED_FACE('',(#411),#1248,.F.);
#1314=ADVANCED_FACE('',(#412),#1249,.F.);
#1315=ADVANCED_FACE('',(#413),#1250,.F.);
#1316=ADVANCED_FACE('',(#414),#1251,.F.);
#1317=ADVANCED_FACE('',(#415),#1252,.F.);
#1318=ADVANCED_FACE('',(#416),#1253,.F.);
#1319=ADVANCED_FACE('',(#417),#1254,.F.);
#1320=ADVANCED_FACE('',(#418),#1255,.F.);
#1321=ADVANCED_FACE('',(#419),#1256,.T.);
#1322=ADVANCED_FACE('',(#420),#1257,.T.);
#1323=ADVANCED_FACE('',(#421),#1258,.T.);
#1324=ADVANCED_FACE('',(#422),#1259,.T.);
#1325=ADVANCED_FACE('',(#423),#1260,.F.);
#1326=ADVANCED_FACE('',(#424),#1261,.F.);
#1327=ADVANCED_FACE('',(#425),#1262,.F.);
#1328=ADVANCED_FACE('',(#426),#1263,.F.);
#1329=ADVANCED_FACE('',(#427),#1264,.F.);
#1330=ADVANCED_FACE('',(#428),#1265,.F.);
#1331=ADVANCED_FACE('',(#429),#1266,.F.);
#1332=ADVANCED_FACE('',(#430),#1267,.F.);
#1333=ADVANCED_FACE('',(#431),#1268,.F.);
#1334=ADVANCED_FACE('',(#432),#1269,.F.);
#1335=ADVANCED_FACE('',(#433),#1270,.F.);
#1336=ADVANCED_FACE('',(#434),#1271,.F.);
#1337=ADVANCED_FACE('',(#435),#1272,.F.);
#1338=ADVANCED_FACE('',(#436),#1273,.F.);
#1339=ADVANCED_FACE('',(#437),#1274,.F.);
#1340=ADVANCED_FACE('',(#438),#1275,.F.);
#1341=ADVANCED_FACE('',(#439),#1276,.F.);
#1342=ADVANCED_FACE('',(#440),#1277,.F.);
#1343=ADVANCED_FACE('',(#441),#1278,.F.);
#1344=ADVANCED_FACE('',(#442),#1279,.F.);
#1345=ADVANCED_FACE('',(#443),#1280,.F.);
#1346=ADVANCED_FACE('',(#444),#1281,.F.);
#1347=ADVANCED_FACE('',(#445),#1282,.F.);
#1348=ADVANCED_FACE('',(#446),#1283,.F.);
#1349=ADVANCED_FACE('',(#447),#1284,.F.);
#1350=ADVANCED_FACE('',(#448),#1285,.F.);
#1351=ADVANCED_FACE('',(#449),#1286,.F.);
#1352=ADVANCED_FACE('',(#450),#1287,.F.);
#1353=ADVANCED_FACE('',(#451),#1288,.F.);
#1354=ADVANCED_FACE('',(#452),#1289,.F.);
#1355=ADVANCED_FACE('',(#453),#1290,.F.);
#1356=ADVANCED_FACE('',(#454),#1291,.F.);
#1357=ADVANCED_FACE('',(#455,#15,#16,#17,#18,#19,#20,#21,#22,#23,#24,#25,
#26,#27,#28,#29,#30,#31,#32),#1292,.F.);
#1358=ADVANCED_FACE('',(#456),#1293,.T.);
#1359=ADVANCED_FACE('',(#457),#1294,.T.);
#1360=ADVANCED_FACE('',(#458),#1295,.T.);
#1361=ADVANCED_FACE('',(#459),#1296,.T.);
#1362=ADVANCED_FACE('',(#460,#33,#34,#35,#36,#37,#38,#39,#40,#41,#42,#43,
#44,#45,#46,#47),#1297,.T.);
#1363=CLOSED_SHELL('',(#1298,#1299,#1300,#1301,#1302,#1303,#1304,#1305,
#1306,#1307,#1308,#1309,#1310,#1311,#1312,#1313,#1314,#1315,#1316,#1317,
#1318,#1319,#1320,#1321,#1322,#1323,#1324,#1325,#1326,#1327,#1328,#1329,
#1330,#1331,#1332,#1333,#1334,#1335,#1336,#1337,#1338,#1339,#1340,#1341,
#1342,#1343,#1344,#1345,#1346,#1347,#1348,#1349,#1350,#1351,#1352,#1353,
#1354,#1355,#1356,#1357,#1358,#1359,#1360,#1361,#1362));
#1364=DERIVED_UNIT_ELEMENT(#1366,1.);
#1365=DERIVED_UNIT_ELEMENT(#2151,-3.);
#1366=(
MASS_UNIT()
NAMED_UNIT(*)
SI_UNIT(.KILO.,.GRAM.)
);
#1367=DERIVED_UNIT((#1364,#1365));
#1368=MEASURE_REPRESENTATION_ITEM('density measure',
POSITIVE_RATIO_MEASURE(7850.),#1367);
#1369=PROPERTY_DEFINITION_REPRESENTATION(#1374,#1371);
#1370=PROPERTY_DEFINITION_REPRESENTATION(#1375,#1372);
#1371=REPRESENTATION('material name',(#1373),#2148);
#1372=REPRESENTATION('density',(#1368),#2148);
#1373=DESCRIPTIVE_REPRESENTATION_ITEM('Steel','Steel');
#1374=PROPERTY_DEFINITION('material property','material name',#2158);
#1375=PROPERTY_DEFINITION('material property','density of part',#2158);
#1376=AXIS2_PLACEMENT_3D('',#1776,#1452,#1453);
#1377=AXIS2_PLACEMENT_3D('',#1777,#1454,#1455);
#1378=AXIS2_PLACEMENT_3D('',#1779,#1456,#1457);
#1379=AXIS2_PLACEMENT_3D('',#1780,#1458,#1459);
#1380=AXIS2_PLACEMENT_3D('',#1782,#1460,#1461);
#1381=AXIS2_PLACEMENT_3D('',#1785,#1463,#1464);
#1382=AXIS2_PLACEMENT_3D('',#1786,#1465,#1466);
#1383=AXIS2_PLACEMENT_3D('',#1788,#1467,#1468);
#1384=AXIS2_PLACEMENT_3D('',#1791,#1470,#1471);
#1385=AXIS2_PLACEMENT_3D('',#1792,#1472,#1473);
#1386=AXIS2_PLACEMENT_3D('',#1794,#1474,#1475);
#1387=AXIS2_PLACEMENT_3D('',#1795,#1476,#1477);
#1388=AXIS2_PLACEMENT_3D('',#1797,#1478,#1479);
#1389=AXIS2_PLACEMENT_3D('',#1800,#1481,#1482);
#1390=AXIS2_PLACEMENT_3D('',#1801,#1483,#1484);
#1391=AXIS2_PLACEMENT_3D('',#1803,#1485,#1486);
#1392=AXIS2_PLACEMENT_3D('',#1806,#1488,#1489);
#1393=AXIS2_PLACEMENT_3D('',#1807,#1490,#1491);
#1394=AXIS2_PLACEMENT_3D('',#1816,#1496,#1497);
#1395=AXIS2_PLACEMENT_3D('',#1822,#1501,#1502);
#1396=AXIS2_PLACEMENT_3D('',#1831,#1507,#1508);
#1397=AXIS2_PLACEMENT_3D('',#1837,#1512,#1513);
#1398=AXIS2_PLACEMENT_3D('',#1846,#1518,#1519);
#1399=AXIS2_PLACEMENT_3D('',#1852,#1523,#1524);
#1400=AXIS2_PLACEMENT_3D('',#1858,#1528,#1529);
#1401=AXIS2_PLACEMENT_3D('',#1861,#1532,#1533);
#1402=AXIS2_PLACEMENT_3D('',#1862,#1534,#1535);
#1403=AXIS2_PLACEMENT_3D('',#1871,#1540,#1541);
#1404=AXIS2_PLACEMENT_3D('',#1877,#1545,#1546);
#1405=AXIS2_PLACEMENT_3D('',#1883,#1550,#1551);
#1406=AXIS2_PLACEMENT_3D('',#1886,#1554,#1555);
#1407=AXIS2_PLACEMENT_3D('',#1892,#1559,#1560);
#1408=AXIS2_PLACEMENT_3D('',#1895,#1563,#1564);
#1409=AXIS2_PLACEMENT_3D('',#1901,#1568,#1569);
#1410=AXIS2_PLACEMENT_3D('',#1904,#1572,#1573);
#1411=AXIS2_PLACEMENT_3D('',#1913,#1578,#1579);
#1412=AXIS2_PLACEMENT_3D('',#1922,#1584,#1585);
#1413=AXIS2_PLACEMENT_3D('',#1925,#1588,#1589);
#1414=AXIS2_PLACEMENT_3D('',#1928,#1592,#1593);
#1415=AXIS2_PLACEMENT_3D('',#1937,#1598,#1599);
#1416=AXIS2_PLACEMENT_3D('',#1943,#1603,#1604);
#1417=AXIS2_PLACEMENT_3D('',#1949,#1608,#1609);
#1418=AXIS2_PLACEMENT_3D('',#1952,#1612,#1613);
#1419=AXIS2_PLACEMENT_3D('',#1961,#1618,#1619);
#1420=AXIS2_PLACEMENT_3D('',#1967,#1623,#1624);
#1421=AXIS2_PLACEMENT_3D('',#1973,#1628,#1629);
#1422=AXIS2_PLACEMENT_3D('',#1976,#1632,#1633);
#1423=AXIS2_PLACEMENT_3D('',#1985,#1638,#1639);
#1424=AXIS2_PLACEMENT_3D('',#1991,#1643,#1644);
#1425=AXIS2_PLACEMENT_3D('',#1997,#1648,#1649);
#1426=AXIS2_PLACEMENT_3D('',#2000,#1652,#1653);
#1427=AXIS2_PLACEMENT_3D('',#2009,#1658,#1659);
#1428=AXIS2_PLACEMENT_3D('',#2015,#1663,#1664);
#1429=AXIS2_PLACEMENT_3D('',#2021,#1668,#1669);
#1430=AXIS2_PLACEMENT_3D('',#2024,#1672,#1673);
#1431=AXIS2_PLACEMENT_3D('',#2033,#1678,#1679);
#1432=AXIS2_PLACEMENT_3D('',#2039,#1683,#1684);
#1433=AXIS2_PLACEMENT_3D('',#2045,#1688,#1689);
#1434=AXIS2_PLACEMENT_3D('',#2048,#1692,#1693);
#1435=AXIS2_PLACEMENT_3D('',#2057,#1698,#1699);
#1436=AXIS2_PLACEMENT_3D('',#2063,#1703,#1704);
#1437=AXIS2_PLACEMENT_3D('',#2069,#1708,#1709);
#1438=AXIS2_PLACEMENT_3D('',#2072,#1712,#1713);
#1439=AXIS2_PLACEMENT_3D('',#2081,#1718,#1719);
#1440=AXIS2_PLACEMENT_3D('',#2087,#1723,#1724);
#1441=AXIS2_PLACEMENT_3D('',#2093,#1728,#1729);
#1442=AXIS2_PLACEMENT_3D('',#2096,#1732,#1733);
#1443=AXIS2_PLACEMENT_3D('',#2105,#1738,#1739);
#1444=AXIS2_PLACEMENT_3D('',#2111,#1743,#1744);
#1445=AXIS2_PLACEMENT_3D('',#2117,#1748,#1749);
#1446=AXIS2_PLACEMENT_3D('',#2120,#1752,#1753);
#1447=AXIS2_PLACEMENT_3D('',#2129,#1758,#1759);
#1448=AXIS2_PLACEMENT_3D('',#2135,#1763,#1764);
#1449=AXIS2_PLACEMENT_3D('',#2139,#1767,#1768);
#1450=AXIS2_PLACEMENT_3D('',#2143,#1771,#1772);
#1451=AXIS2_PLACEMENT_3D('',#2145,#1774,#1775);
#1452=DIRECTION('axis',(0.,0.,1.));
#1453=DIRECTION('refdir',(1.,0.,0.));
#1454=DIRECTION('center_axis',(-1.51929082234217E-64,1.,2.53479465281407E-10));
#1455=DIRECTION('ref_axis',(-1.,-3.81562920750659E-57,1.50530105124748E-47));
#1456=DIRECTION('center_axis',(0.,1.,0.));
#1457=DIRECTION('ref_axis',(-1.,0.,0.));
#1458=DIRECTION('center_axis',(0.,1.,2.53481680090317E-10));
#1459=DIRECTION('ref_axis',(1.,3.81566239511932E-57,-1.50530105124748E-47));
#1460=DIRECTION('center_axis',(0.,1.,0.));
#1461=DIRECTION('ref_axis',(1.,0.,-1.50530105124748E-47));
#1462=DIRECTION('',(0.,1.,2.53481680090317E-10));
#1463=DIRECTION('center_axis',(0.,-1.,0.));
#1464=DIRECTION('ref_axis',(1.,0.,-1.50530105124748E-47));
#1465=DIRECTION('center_axis',(0.,1.,2.53479459644268E-10));
#1466=DIRECTION('ref_axis',(1.,3.81562897072159E-57,-1.50530105124748E-47));
#1467=DIRECTION('center_axis',(0.,1.,0.));
#1468=DIRECTION('ref_axis',(1.,0.,-1.50530105124748E-47));
#1469=DIRECTION('',(0.,1.,2.53479459644268E-10));
#1470=DIRECTION('center_axis',(0.,-1.,0.));
#1471=DIRECTION('ref_axis',(1.,0.,-1.50530105124748E-47));
#1472=DIRECTION('center_axis',(-1.51929082234217E-64,1.,2.53479465281407E-10));
#1473=DIRECTION('ref_axis',(-1.,-3.81562920750659E-57,1.50530105124748E-47));
#1474=DIRECTION('center_axis',(0.,1.,0.));
#1475=DIRECTION('ref_axis',(-1.,0.,0.));
#1476=DIRECTION('center_axis',(0.,-1.,0.));
#1477=DIRECTION('ref_axis',(-1.,0.,0.));
#1478=DIRECTION('center_axis',(0.,-1.,0.));
#1479=DIRECTION('ref_axis',(-1.,0.,0.));
#1480=DIRECTION('',(0.,-1.,0.));
#1481=DIRECTION('center_axis',(0.,1.,0.));
#1482=DIRECTION('ref_axis',(-1.,0.,0.));
#1483=DIRECTION('center_axis',(0.,-1.,0.));
#1484=DIRECTION('ref_axis',(-1.,0.,0.));
#1485=DIRECTION('center_axis',(0.,-1.,0.));
#1486=DIRECTION('ref_axis',(-1.,0.,0.));
#1487=DIRECTION('',(0.,-1.,0.));
#1488=DIRECTION('center_axis',(0.,1.,0.));
#1489=DIRECTION('ref_axis',(-1.,0.,0.));
#1490=DIRECTION('center_axis',(1.,0.,0.));
#1491=DIRECTION('ref_axis',(0.,0.,-1.));
#1492=DIRECTION('',(0.,0.,-1.));
#1493=DIRECTION('',(0.,-1.,0.));
#1494=DIRECTION('',(0.,0.,1.));
#1495=DIRECTION('',(0.,1.,0.));
#1496=DIRECTION('center_axis',(0.,0.,1.));
#1497=DIRECTION('ref_axis',(1.,0.,0.));
#1498=DIRECTION('',(1.,0.,0.));
#1499=DIRECTION('',(0.,-1.,0.));
#1500=DIRECTION('',(-1.,0.,0.));
#1501=DIRECTION('center_axis',(0.,0.,-1.));
#1502=DIRECTION('ref_axis',(-1.,0.,0.));
#1503=DIRECTION('',(-1.,0.,0.));
#1504=DIRECTION('',(0.,-1.,0.));
#1505=DIRECTION('',(1.,0.,0.));
#1506=DIRECTION('',(0.,1.,0.));
#1507=DIRECTION('center_axis',(-1.,0.,0.));
#1508=DIRECTION('ref_axis',(0.,0.,1.));
#1509=DIRECTION('',(0.,0.,1.));
#1510=DIRECTION('',(0.,0.,-1.));
#1511=DIRECTION('',(0.,1.,0.));
#1512=DIRECTION('center_axis',(1.,0.,0.));
#1513=DIRECTION('ref_axis',(0.,0.,-1.));
#1514=DIRECTION('',(0.,0.,-1.));
#1515=DIRECTION('',(0.,1.,0.));
#1516=DIRECTION('',(0.,0.,-1.));
#1517=DIRECTION('',(0.,1.,0.));
#1518=DIRECTION('center_axis',(0.,0.,1.));
#1519=DIRECTION('ref_axis',(1.,0.,0.));
#1520=DIRECTION('',(1.,0.,0.));
#1521=DIRECTION('',(0.,1.,0.));
#1522=DIRECTION('',(1.,0.,0.));
#1523=DIRECTION('center_axis',(-1.,0.,0.));
#1524=DIRECTION('ref_axis',(0.,0.,1.));
#1525=DIRECTION('',(0.,0.,1.));
#1526=DIRECTION('',(0.,1.,0.));
#1527=DIRECTION('',(0.,0.,1.));
#1528=DIRECTION('center_axis',(0.,0.,-1.));
#1529=DIRECTION('ref_axis',(-1.,0.,0.));
#1530=DIRECTION('',(-1.,0.,0.));
#1531=DIRECTION('',(-1.,0.,0.));
#1532=DIRECTION('center_axis',(0.,1.,0.));
#1533=DIRECTION('ref_axis',(0.,0.,1.));
#1534=DIRECTION('center_axis',(0.,0.,1.));
#1535=DIRECTION('ref_axis',(-1.,0.,0.));
#1536=DIRECTION('',(1.,0.,0.));
#1537=DIRECTION('',(0.,-1.,0.));
#1538=DIRECTION('',(-1.,0.,0.));
#1539=DIRECTION('',(0.,-1.,0.));
#1540=DIRECTION('center_axis',(1.,0.,0.));
#1541=DIRECTION('ref_axis',(0.,0.,1.));
#1542=DIRECTION('',(0.,0.,-1.));
#1543=DIRECTION('',(0.,0.,1.));
#1544=DIRECTION('',(0.,-1.,0.));
#1545=DIRECTION('center_axis',(0.,0.,-1.));
#1546=DIRECTION('ref_axis',(1.,0.,0.));
#1547=DIRECTION('',(-1.,0.,0.));
#1548=DIRECTION('',(1.,0.,0.));
#1549=DIRECTION('',(0.,-1.,0.));
#1550=DIRECTION('center_axis',(-1.,0.,0.));
#1551=DIRECTION('ref_axis',(0.,0.,-1.));
#1552=DIRECTION('',(0.,0.,1.));
#1553=DIRECTION('',(0.,0.,-1.));
#1554=DIRECTION('center_axis',(0.,0.,1.));
#1555=DIRECTION('ref_axis',(-1.,0.,0.));
#1556=DIRECTION('',(1.,0.,0.));
#1557=DIRECTION('',(-1.,0.,0.));
#1558=DIRECTION('',(0.,-1.,0.));
#1559=DIRECTION('center_axis',(-1.,0.,0.));
#1560=DIRECTION('ref_axis',(0.,0.,-1.));
#1561=DIRECTION('',(0.,0.,1.));
#1562=DIRECTION('',(0.,0.,-1.));
#1563=DIRECTION('center_axis',(0.,0.,-1.));
#1564=DIRECTION('ref_axis',(1.,0.,0.));
#1565=DIRECTION('',(-1.,0.,0.));
#1566=DIRECTION('',(1.,0.,0.));
#1567=DIRECTION('',(0.,-1.,0.));
#1568=DIRECTION('center_axis',(1.,0.,0.));
#1569=DIRECTION('ref_axis',(0.,0.,1.));
#1570=DIRECTION('',(0.,0.,-1.));
#1571=DIRECTION('',(0.,0.,1.));
#1572=DIRECTION('center_axis',(0.,0.,1.));
#1573=DIRECTION('ref_axis',(1.,0.,0.));
#1574=DIRECTION('',(1.,0.,0.));
#1575=DIRECTION('',(0.,1.,0.));
#1576=DIRECTION('',(-1.,0.,0.));
#1577=DIRECTION('',(0.,-1.,0.));
#1578=DIRECTION('center_axis',(0.,0.,-1.));
#1579=DIRECTION('ref_axis',(-1.,0.,0.));
#1580=DIRECTION('',(-1.,0.,0.));
#1581=DIRECTION('',(0.,1.,0.));
#1582=DIRECTION('',(1.,0.,0.));
#1583=DIRECTION('',(0.,-1.,0.));
#1584=DIRECTION('center_axis',(-1.,0.,0.));
#1585=DIRECTION('ref_axis',(0.,0.,1.));
#1586=DIRECTION('',(0.,0.,-1.));
#1587=DIRECTION('',(0.,0.,1.));
#1588=DIRECTION('center_axis',(1.,0.,0.));
#1589=DIRECTION('ref_axis',(0.,0.,-1.));
#1590=DIRECTION('',(0.,0.,1.));
#1591=DIRECTION('',(0.,0.,-1.));
#1592=DIRECTION('center_axis',(0.,0.,-1.));
#1593=DIRECTION('ref_axis',(-1.,0.,0.));
#1594=DIRECTION('',(1.,0.,0.));
#1595=DIRECTION('',(0.,1.,0.));
#1596=DIRECTION('',(-1.,0.,0.));
#1597=DIRECTION('',(0.,1.,0.));
#1598=DIRECTION('center_axis',(1.,0.,0.));
#1599=DIRECTION('ref_axis',(0.,0.,-1.));
#1600=DIRECTION('',(0.,0.,1.));
#1601=DIRECTION('',(0.,0.,-1.));
#1602=DIRECTION('',(0.,1.,0.));
#1603=DIRECTION('center_axis',(0.,0.,1.));
#1604=DIRECTION('ref_axis',(1.,0.,0.));
#1605=DIRECTION('',(-1.,0.,0.));
#1606=DIRECTION('',(1.,0.,0.));
#1607=DIRECTION('',(0.,1.,0.));
#1608=DIRECTION('center_axis',(-1.,0.,0.));
#1609=DIRECTION('ref_axis',(0.,0.,1.));
#1610=DIRECTION('',(0.,0.,-1.));
#1611=DIRECTION('',(0.,0.,1.));
#1612=DIRECTION('center_axis',(-1.,0.,0.));
#1613=DIRECTION('ref_axis',(0.,0.,1.));
#1614=DIRECTION('',(0.,0.,-1.));
#1615=DIRECTION('',(0.,1.,0.));
#1616=DIRECTION('',(0.,0.,1.));
#1617=DIRECTION('',(0.,1.,0.));
#1618=DIRECTION('center_axis',(0.,0.,-1.));
#1619=DIRECTION('ref_axis',(-1.,0.,0.));
#1620=DIRECTION('',(1.,0.,0.));
#1621=DIRECTION('',(-1.,0.,0.));
#1622=DIRECTION('',(0.,1.,0.));
#1623=DIRECTION('center_axis',(1.,0.,0.));
#1624=DIRECTION('ref_axis',(0.,0.,-1.));
#1625=DIRECTION('',(0.,0.,1.));
#1626=DIRECTION('',(0.,0.,-1.));
#1627=DIRECTION('',(0.,1.,0.));
#1628=DIRECTION('center_axis',(0.,0.,1.));
#1629=DIRECTION('ref_axis',(1.,0.,0.));
#1630=DIRECTION('',(-1.,0.,0.));
#1631=DIRECTION('',(1.,0.,0.));
#1632=DIRECTION('center_axis',(0.,0.,1.));
#1633=DIRECTION('ref_axis',(1.,0.,0.));
#1634=DIRECTION('',(-1.,0.,0.));
#1635=DIRECTION('',(0.,1.,0.));
#1636=DIRECTION('',(1.,0.,0.));
#1637=DIRECTION('',(0.,1.,0.));
#1638=DIRECTION('center_axis',(-1.,0.,0.));
#1639=DIRECTION('ref_axis',(0.,0.,1.));
#1640=DIRECTION('',(0.,0.,-1.));
#1641=DIRECTION('',(0.,0.,1.));
#1642=DIRECTION('',(0.,1.,0.));
#1643=DIRECTION('center_axis',(0.,0.,-1.));
#1644=DIRECTION('ref_axis',(-1.,0.,0.));
#1645=DIRECTION('',(1.,0.,0.));
#1646=DIRECTION('',(-1.,0.,0.));
#1647=DIRECTION('',(0.,1.,0.));
#1648=DIRECTION('center_axis',(1.,0.,0.));
#1649=DIRECTION('ref_axis',(0.,0.,-1.));
#1650=DIRECTION('',(0.,0.,1.));
#1651=DIRECTION('',(0.,0.,-1.));
#1652=DIRECTION('center_axis',(0.,0.,1.));
#1653=DIRECTION('ref_axis',(1.,0.,0.));
#1654=DIRECTION('',(-1.,0.,0.));
#1655=DIRECTION('',(0.,1.,0.));
#1656=DIRECTION('',(1.,0.,0.));
#1657=DIRECTION('',(0.,1.,0.));
#1658=DIRECTION('center_axis',(-1.,0.,0.));
#1659=DIRECTION('ref_axis',(0.,0.,1.));
#1660=DIRECTION('',(0.,0.,-1.));
#1661=DIRECTION('',(0.,0.,1.));
#1662=DIRECTION('',(0.,1.,0.));
#1663=DIRECTION('center_axis',(0.,0.,-1.));
#1664=DIRECTION('ref_axis',(-1.,0.,0.));
#1665=DIRECTION('',(1.,0.,0.));
#1666=DIRECTION('',(-1.,0.,0.));
#1667=DIRECTION('',(0.,1.,0.));
#1668=DIRECTION('center_axis',(1.,0.,0.));
#1669=DIRECTION('ref_axis',(0.,0.,-1.));
#1670=DIRECTION('',(0.,0.,1.));
#1671=DIRECTION('',(0.,0.,-1.));
#1672=DIRECTION('center_axis',(0.,0.,-1.));
#1673=DIRECTION('ref_axis',(-1.,0.,0.));
#1674=DIRECTION('',(1.,0.,0.));
#1675=DIRECTION('',(0.,1.,0.));
#1676=DIRECTION('',(-1.,0.,0.));
#1677=DIRECTION('',(0.,1.,0.));
#1678=DIRECTION('center_axis',(1.,0.,0.));
#1679=DIRECTION('ref_axis',(0.,0.,-1.));
#1680=DIRECTION('',(0.,0.,1.));
#1681=DIRECTION('',(0.,0.,-1.));
#1682=DIRECTION('',(0.,1.,0.));
#1683=DIRECTION('center_axis',(0.,0.,1.));
#1684=DIRECTION('ref_axis',(1.,0.,0.));
#1685=DIRECTION('',(-1.,0.,0.));
#1686=DIRECTION('',(1.,0.,0.));
#1687=DIRECTION('',(0.,1.,0.));
#1688=DIRECTION('center_axis',(-1.,0.,0.));
#1689=DIRECTION('ref_axis',(0.,0.,1.));
#1690=DIRECTION('',(0.,0.,-1.));
#1691=DIRECTION('',(0.,0.,1.));
#1692=DIRECTION('center_axis',(0.,0.,1.));
#1693=DIRECTION('ref_axis',(1.,0.,0.));
#1694=DIRECTION('',(-1.,0.,0.));
#1695=DIRECTION('',(0.,1.,0.));
#1696=DIRECTION('',(1.,0.,0.));
#1697=DIRECTION('',(0.,1.,0.));
#1698=DIRECTION('center_axis',(-1.,0.,0.));
#1699=DIRECTION('ref_axis',(0.,0.,1.));
#1700=DIRECTION('',(0.,0.,-1.));
#1701=DIRECTION('',(0.,0.,1.));
#1702=DIRECTION('',(0.,1.,0.));
#1703=DIRECTION('center_axis',(0.,0.,-1.));
#1704=DIRECTION('ref_axis',(-1.,0.,0.));
#1705=DIRECTION('',(1.,0.,0.));
#1706=DIRECTION('',(-1.,0.,0.));
#1707=DIRECTION('',(0.,1.,0.));
#1708=DIRECTION('center_axis',(1.,0.,0.));
#1709=DIRECTION('ref_axis',(0.,0.,-1.));
#1710=DIRECTION('',(0.,0.,1.));
#1711=DIRECTION('',(0.,0.,-1.));
#1712=DIRECTION('center_axis',(-1.,0.,0.));
#1713=DIRECTION('ref_axis',(0.,0.,1.));
#1714=DIRECTION('',(0.,0.,-1.));
#1715=DIRECTION('',(0.,1.,0.));
#1716=DIRECTION('',(0.,0.,1.));
#1717=DIRECTION('',(0.,1.,0.));
#1718=DIRECTION('center_axis',(0.,0.,-1.));
#1719=DIRECTION('ref_axis',(-1.,0.,0.));
#1720=DIRECTION('',(1.,0.,0.));
#1721=DIRECTION('',(-1.,0.,0.));
#1722=DIRECTION('',(0.,1.,0.));
#1723=DIRECTION('center_axis',(1.,0.,0.));
#1724=DIRECTION('ref_axis',(0.,0.,-1.));
#1725=DIRECTION('',(0.,0.,1.));
#1726=DIRECTION('',(0.,0.,-1.));
#1727=DIRECTION('',(0.,1.,0.));
#1728=DIRECTION('center_axis',(0.,0.,1.));
#1729=DIRECTION('ref_axis',(1.,0.,0.));
#1730=DIRECTION('',(-1.,0.,0.));
#1731=DIRECTION('',(1.,0.,0.));
#1732=DIRECTION('center_axis',(-1.,0.,0.));
#1733=DIRECTION('ref_axis',(0.,0.,1.));
#1734=DIRECTION('',(0.,0.,-1.));
#1735=DIRECTION('',(0.,1.,0.));
#1736=DIRECTION('',(0.,0.,1.));
#1737=DIRECTION('',(0.,1.,0.));
#1738=DIRECTION('center_axis',(0.,0.,-1.));
#1739=DIRECTION('ref_axis',(-1.,0.,0.));
#1740=DIRECTION('',(1.,0.,0.));
#1741=DIRECTION('',(-1.,0.,0.));
#1742=DIRECTION('',(0.,1.,0.));
#1743=DIRECTION('center_axis',(1.,0.,0.));
#1744=DIRECTION('ref_axis',(0.,0.,-1.));
#1745=DIRECTION('',(0.,0.,1.));
#1746=DIRECTION('',(0.,0.,-1.));
#1747=DIRECTION('',(0.,1.,0.));
#1748=DIRECTION('center_axis',(0.,0.,1.));
#1749=DIRECTION('ref_axis',(1.,0.,0.));
#1750=DIRECTION('',(-1.,0.,0.));
#1751=DIRECTION('',(1.,0.,0.));
#1752=DIRECTION('center_axis',(0.,1.,0.));
#1753=DIRECTION('ref_axis',(0.,0.,1.));
#1754=DIRECTION('',(0.,0.,1.));
#1755=DIRECTION('',(1.,0.,0.));
#1756=DIRECTION('',(0.,0.,-1.));
#1757=DIRECTION('',(-1.,0.,0.));
#1758=DIRECTION('center_axis',(0.,0.,1.));
#1759=DIRECTION('ref_axis',(1.,0.,0.));
#1760=DIRECTION('',(0.,1.,0.));
#1761=DIRECTION('',(1.,0.,0.));
#1762=DIRECTION('',(0.,1.,0.));
#1763=DIRECTION('center_axis',(-1.,0.,0.));
#1764=DIRECTION('ref_axis',(0.,0.,1.));
#1765=DIRECTION('',(0.,1.,0.));
#1766=DIRECTION('',(0.,0.,1.));
#1767=DIRECTION('center_axis',(1.,0.,0.));
#1768=DIRECTION('ref_axis',(0.,0.,-1.));
#1769=DIRECTION('',(0.,0.,-1.));
#1770=DIRECTION('',(0.,1.,0.));
#1771=DIRECTION('center_axis',(0.,0.,-1.));
#1772=DIRECTION('ref_axis',(-1.,0.,0.));
#1773=DIRECTION('',(-1.,0.,0.));
#1774=DIRECTION('center_axis',(0.,1.,0.));
#1775=DIRECTION('ref_axis',(0.,0.,1.));
#1776=CARTESIAN_POINT('',(0.,0.,0.));
#1777=CARTESIAN_POINT('Origin',(184.899995867163,13.5499999943981,22.0999995057604));
#1778=CARTESIAN_POINT('',(185.999995842576,13.55,22.0999995060265));
#1779=CARTESIAN_POINT('Origin',(184.899995867163,13.55,22.0999995060265));
#1780=CARTESIAN_POINT('Origin',(165.832594734638,13.5499999895685,41.153426765578));
#1781=CARTESIAN_POINT('',(164.732594759225,13.5499999895685,41.153426765578));
#1782=CARTESIAN_POINT('Origin',(165.832594734638,13.55,41.153426765578));
#1783=CARTESIAN_POINT('',(164.732594759225,14.6,41.1534267658441));
#1784=CARTESIAN_POINT('',(164.732594759225,13.5499999895685,41.153426765578));
#1785=CARTESIAN_POINT('Origin',(165.832594734638,14.6,41.1534267658441));
#1786=CARTESIAN_POINT('Origin',(165.825950945427,13.5499999944076,22.0626435445758));
#1787=CARTESIAN_POINT('',(164.725950970014,13.5499999944076,22.0626435445758));
#1788=CARTESIAN_POINT('Origin',(165.825950945427,13.55,22.0626435445758));
#1789=CARTESIAN_POINT('',(164.725950970014,14.6,22.0626435448419));
#1790=CARTESIAN_POINT('',(164.725950970014,13.5499999944076,22.0626435445758));
#1791=CARTESIAN_POINT('Origin',(165.825950945427,14.6,22.0626435448419));
#1792=CARTESIAN_POINT('Origin',(184.899995867163,13.549999989582,41.0999990810773));
#1793=CARTESIAN_POINT('',(185.999995842576,13.55,41.0999990813434));
#1794=CARTESIAN_POINT('Origin',(184.899995867163,13.55,41.0999990813434));
#1795=CARTESIAN_POINT('Origin',(146.799996718764,14.6,41.1999990791082));
#1796=CARTESIAN_POINT('',(147.899996694177,14.6,41.1999990791082));
#1797=CARTESIAN_POINT('Origin',(146.799996718764,14.6,41.1999990791082));
#1798=CARTESIAN_POINT('',(147.899996694177,13.55,41.1999990791082));
#1799=CARTESIAN_POINT('',(147.899996694177,14.6,41.1999990791082));
#1800=CARTESIAN_POINT('Origin',(146.799996718764,13.55,41.1999990791082));
#1801=CARTESIAN_POINT('Origin',(146.699996720999,14.6,22.0999995060265));
#1802=CARTESIAN_POINT('',(147.799996696413,14.6,22.0999995060265));
#1803=CARTESIAN_POINT('Origin',(146.699996720999,14.6,22.0999995060265));
#1804=CARTESIAN_POINT('',(147.799996696413,13.55,22.0999995060265));
#1805=CARTESIAN_POINT('',(147.799996696413,14.6,22.0999995060265));
#1806=CARTESIAN_POINT('Origin',(146.699996720999,13.55,22.0999995060265));
#1807=CARTESIAN_POINT('Origin',(204.465009706104,14.6,6.55000031110831));
#1808=CARTESIAN_POINT('',(204.465009706104,13.55,37.165001760493));
#1809=CARTESIAN_POINT('',(204.465009706104,13.55,6.55000031110831));
#1810=CARTESIAN_POINT('',(204.465009706104,13.55,19.2750003939727));
#1811=CARTESIAN_POINT('',(204.465009706104,14.6,37.165001760493));
#1812=CARTESIAN_POINT('',(204.465009706104,14.6,37.165001760493));
#1813=CARTESIAN_POINT('',(204.465009706104,14.6,6.55000031110831));
#1814=CARTESIAN_POINT('',(204.465009706104,14.6,19.2750003939727));
#1815=CARTESIAN_POINT('',(204.465009706104,14.6,6.55000031110831));
#1816=CARTESIAN_POINT('Origin',(204.365009706104,14.6,37.165001760493));
#1817=CARTESIAN_POINT('',(192.550009145634,13.55,37.165001760493));
#1818=CARTESIAN_POINT('',(180.432506019068,13.55,37.165001760493));
#1819=CARTESIAN_POINT('',(192.550009145634,14.6,37.165001760493));
#1820=CARTESIAN_POINT('',(192.550009145634,14.6,37.165001760493));
#1821=CARTESIAN_POINT('',(180.432506019068,14.6,37.165001760493));
#1822=CARTESIAN_POINT('Origin',(192.535009144922,14.6,6.43500031110831));
#1823=CARTESIAN_POINT('',(204.350009706104,13.55,6.43500031110831));
#1824=CARTESIAN_POINT('',(192.435009144922,13.55,6.43500031110831));
#1825=CARTESIAN_POINT('',(174.517505738477,13.55,6.43500031110831));
#1826=CARTESIAN_POINT('',(204.350009706104,14.6,6.43500031110831));
#1827=CARTESIAN_POINT('',(204.350009706104,14.6,6.43500031110831));
#1828=CARTESIAN_POINT('',(192.435009144922,14.6,6.43500031110831));
#1829=CARTESIAN_POINT('',(174.517505738477,14.6,6.43500031110831));
#1830=CARTESIAN_POINT('',(192.435009144922,14.6,6.43500031110831));
#1831=CARTESIAN_POINT('Origin',(192.435009144922,14.6,37.0500017597806));
#1832=CARTESIAN_POINT('',(192.435009144922,13.55,37.0500017597806));
#1833=CARTESIAN_POINT('',(192.435009144922,13.55,19.2675003939727));
#1834=CARTESIAN_POINT('',(192.435009144922,14.6,37.0500017597806));
#1835=CARTESIAN_POINT('',(192.435009144922,14.6,19.2675003939727));
#1836=CARTESIAN_POINT('',(192.435009144922,14.6,37.0500017597806));
#1837=CARTESIAN_POINT('Origin',(202.499995473772,13.55,40.8999990858138));
#1838=CARTESIAN_POINT('',(202.499995473772,13.55,40.8999990858138));
#1839=CARTESIAN_POINT('',(202.499995473772,13.55,40.19999910146));
#1840=CARTESIAN_POINT('',(202.499995473772,13.55,36.4499997813255));
#1841=CARTESIAN_POINT('',(202.499995473772,14.05,40.8999990858138));
#1842=CARTESIAN_POINT('',(202.499995473772,13.55,40.8999990858138));
#1843=CARTESIAN_POINT('',(202.499995473772,14.05,40.19999910146));
#1844=CARTESIAN_POINT('',(202.499995473772,14.05,40.8999990858138));
#1845=CARTESIAN_POINT('',(202.499995473772,13.55,40.19999910146));
#1846=CARTESIAN_POINT('Origin',(194.299995657057,13.55,40.8999990858138));
#1847=CARTESIAN_POINT('',(194.299995657057,13.55,40.8999990858138));
#1848=CARTESIAN_POINT('',(175.399998994544,13.55,40.8999990858138));
#1849=CARTESIAN_POINT('',(194.299995657057,14.05,40.8999990858138));
#1850=CARTESIAN_POINT('',(194.299995657057,13.55,40.8999990858138));
#1851=CARTESIAN_POINT('',(194.299995657057,14.05,40.8999990858138));
#1852=CARTESIAN_POINT('Origin',(194.299995657057,13.55,40.19999910146));
#1853=CARTESIAN_POINT('',(194.299995657057,13.55,40.19999910146));
#1854=CARTESIAN_POINT('',(194.299995657057,13.55,36.0999997891486));
#1855=CARTESIAN_POINT('',(194.299995657057,14.05,40.19999910146));
#1856=CARTESIAN_POINT('',(194.299995657057,13.55,40.19999910146));
#1857=CARTESIAN_POINT('',(194.299995657057,14.05,40.19999910146));
#1858=CARTESIAN_POINT('Origin',(202.499995473772,13.55,40.19999910146));
#1859=CARTESIAN_POINT('',(179.499998902902,13.55,40.19999910146));
#1860=CARTESIAN_POINT('',(202.499995473772,14.05,40.19999910146));
#1861=CARTESIAN_POINT('Origin',(198.399995565414,14.05,40.5499990936369));
#1862=CARTESIAN_POINT('Origin',(204.599995426834,14.6,57.0999987237155));
#1863=CARTESIAN_POINT('',(192.349995700642,13.55,57.0999987237155));
#1864=CARTESIAN_POINT('',(204.599995426834,13.55,57.0999987237155));
#1865=CARTESIAN_POINT('',(180.549998879433,13.55,57.0999987237155));
#1866=CARTESIAN_POINT('',(192.349995700642,14.6,57.0999987237155));
#1867=CARTESIAN_POINT('',(192.349995700642,14.6,57.0999987237155));
#1868=CARTESIAN_POINT('',(204.599995426834,14.6,57.0999987237155));
#1869=CARTESIAN_POINT('',(180.549998879433,14.6,57.0999987237155));
#1870=CARTESIAN_POINT('',(204.599995426834,14.6,57.0999987237155));
#1871=CARTESIAN_POINT('Origin',(204.599995426834,14.6,44.8999989964068));
#1872=CARTESIAN_POINT('',(204.599995426834,13.55,44.8999989964068));
#1873=CARTESIAN_POINT('',(204.599995426834,13.55,38.449999736622));
#1874=CARTESIAN_POINT('',(204.599995426834,14.6,44.8999989964068));
#1875=CARTESIAN_POINT('',(204.599995426834,14.6,38.449999736622));
#1876=CARTESIAN_POINT('',(204.599995426834,14.6,44.8999989964068));
#1877=CARTESIAN_POINT('Origin',(192.349995700642,14.6,44.8999989964068));
#1878=CARTESIAN_POINT('',(192.349995700642,13.55,44.8999989964068));
#1879=CARTESIAN_POINT('',(174.424999016337,13.55,44.8999989964068));
#1880=CARTESIAN_POINT('',(192.349995700642,14.6,44.8999989964068));
#1881=CARTESIAN_POINT('',(174.424999016337,14.6,44.8999989964068));
#1882=CARTESIAN_POINT('',(192.349995700642,14.6,44.8999989964068));
#1883=CARTESIAN_POINT('Origin',(192.349995700642,14.6,57.0999987237155));
#1884=CARTESIAN_POINT('',(192.349995700642,13.55,44.5499996002764));
#1885=CARTESIAN_POINT('',(192.349995700642,14.6,44.5499996002764));
#1886=CARTESIAN_POINT('Origin',(192.550009145634,14.6,37.0500017597806));
#1887=CARTESIAN_POINT('',(192.550009145634,13.55,37.0500017597806));
#1888=CARTESIAN_POINT('',(174.517505738477,13.55,37.0500017597806));
#1889=CARTESIAN_POINT('',(192.550009145634,14.6,37.0500017597806));
#1890=CARTESIAN_POINT('',(174.517505738477,14.6,37.0500017597806));
#1891=CARTESIAN_POINT('',(192.550009145634,14.6,37.0500017597806));
#1892=CARTESIAN_POINT('Origin',(192.550009145634,14.6,37.065001760493));
#1893=CARTESIAN_POINT('',(192.550009145634,13.55,34.5325011186651));
#1894=CARTESIAN_POINT('',(192.550009145634,14.6,34.5325011186651));
#1895=CARTESIAN_POINT('Origin',(204.350009706104,14.6,6.55000031110831));
#1896=CARTESIAN_POINT('',(204.350009706104,13.55,6.55000031110831));
#1897=CARTESIAN_POINT('',(180.432506019068,13.55,6.55000031110831));
#1898=CARTESIAN_POINT('',(204.350009706104,14.6,6.55000031110831));
#1899=CARTESIAN_POINT('',(180.432506019068,14.6,6.55000031110831));
#1900=CARTESIAN_POINT('',(204.350009706104,14.6,6.55000031110831));
#1901=CARTESIAN_POINT('Origin',(204.350009706104,14.6,6.53500031110831));
#1902=CARTESIAN_POINT('',(204.350009706104,13.55,19.2675003939727));
#1903=CARTESIAN_POINT('',(204.350009706104,14.6,19.2675003939727));
#1904=CARTESIAN_POINT('Origin',(128.000001907349,0.,61.5000008940697));
#1905=CARTESIAN_POINT('',(126.000001907349,13.55,61.5000008940697));
#1906=CARTESIAN_POINT('',(211.000002756715,13.55,61.5000008940697));
#1907=CARTESIAN_POINT('',(185.000002756715,13.55,61.5000008940697));
#1908=CARTESIAN_POINT('',(211.000002756715,14.6,61.5000008940697));
#1909=CARTESIAN_POINT('',(211.000002756715,0.,61.5000008940697));
#1910=CARTESIAN_POINT('',(126.000001907349,14.6,61.5000008940697));
#1911=CARTESIAN_POINT('',(128.000001907349,14.6,61.5000008940697));
#1912=CARTESIAN_POINT('',(126.000001907349,0.,61.5000008940697));
#1913=CARTESIAN_POINT('Origin',(185.000002756715,0.,1.50000005960464));
#1914=CARTESIAN_POINT('',(211.000002756715,13.55,1.50000005960464));
#1915=CARTESIAN_POINT('',(126.000001907349,13.55,1.50000005960464));
#1916=CARTESIAN_POINT('',(128.000001907349,13.55,1.50000005960464));
#1917=CARTESIAN_POINT('',(126.000001907349,14.6,1.50000005960464));
#1918=CARTESIAN_POINT('',(126.000001907349,0.,1.50000005960464));
#1919=CARTESIAN_POINT('',(211.000002756715,14.6,1.50000005960464));
#1920=CARTESIAN_POINT('',(185.000002756715,14.6,1.50000005960464));
#1921=CARTESIAN_POINT('',(211.000002756715,0.,1.50000005960464));
#1922=CARTESIAN_POINT('Origin',(126.000001907349,0.,4.00000005960464));
#1923=CARTESIAN_POINT('',(126.000001907349,13.55,4.00000005960464));
#1924=CARTESIAN_POINT('',(126.000001907349,14.6,60.0000008940697));
#1925=CARTESIAN_POINT('Origin',(211.000002756715,0.,60.0000008940697));
#1926=CARTESIAN_POINT('',(211.000002756715,13.55,60.0000008940697));
#1927=CARTESIAN_POINT('',(211.000002756715,14.6,4.00000005960464));
#1928=CARTESIAN_POINT('Origin',(182.264002145767,13.55,43.714000089407));
#1929=CARTESIAN_POINT('',(168.264002145767,14.6,43.714000089407));
#1930=CARTESIAN_POINT('',(182.264002145767,14.6,43.714000089407));
#1931=CARTESIAN_POINT('',(169.382002238899,14.6,43.714000089407));
#1932=CARTESIAN_POINT('',(168.264002145767,13.55,43.714000089407));
#1933=CARTESIAN_POINT('',(168.264002145767,13.55,43.714000089407));
#1934=CARTESIAN_POINT('',(182.264002145767,13.55,43.714000089407));
#1935=CARTESIAN_POINT('',(169.382002238899,13.55,43.714000089407));
#1936=CARTESIAN_POINT('',(182.264002145767,13.55,43.714000089407));
#1937=CARTESIAN_POINT('Origin',(182.264002145767,13.55,57.714000089407));
#1938=CARTESIAN_POINT('',(182.264002145767,14.6,57.714000089407));
#1939=CARTESIAN_POINT('',(182.264002145767,14.6,44.8570002831221));
#1940=CARTESIAN_POINT('',(182.264002145767,13.55,57.714000089407));
#1941=CARTESIAN_POINT('',(182.264002145767,13.55,44.8570002831221));
#1942=CARTESIAN_POINT('',(182.264002145767,13.55,57.714000089407));
#1943=CARTESIAN_POINT('Origin',(168.264002145767,13.55,57.714000089407));
#1944=CARTESIAN_POINT('',(168.264002145767,14.6,57.714000089407));
#1945=CARTESIAN_POINT('',(162.382002238899,14.6,57.714000089407));
#1946=CARTESIAN_POINT('',(168.264002145767,13.55,57.714000089407));
#1947=CARTESIAN_POINT('',(162.382002238899,13.55,57.714000089407));
#1948=CARTESIAN_POINT('',(168.264002145767,13.55,57.714000089407));
#1949=CARTESIAN_POINT('Origin',(168.264002145767,13.55,43.714000089407));
#1950=CARTESIAN_POINT('',(168.264002145767,14.6,37.8570002831221));
#1951=CARTESIAN_POINT('',(168.264002145767,13.55,37.8570002831221));
#1952=CARTESIAN_POINT('Origin',(130.150002145767,13.55,24.657000089407));
#1953=CARTESIAN_POINT('',(130.150002145767,14.6,38.657000089407));
#1954=CARTESIAN_POINT('',(130.150002145767,14.6,24.657000089407));
#1955=CARTESIAN_POINT('',(130.150002145767,14.6,28.3285002831221));
#1956=CARTESIAN_POINT('',(130.150002145767,13.55,38.657000089407));
#1957=CARTESIAN_POINT('',(130.150002145767,13.55,38.657000089407));
#1958=CARTESIAN_POINT('',(130.150002145767,13.55,24.657000089407));
#1959=CARTESIAN_POINT('',(130.150002145767,13.55,28.3285002831221));
#1960=CARTESIAN_POINT('',(130.150002145767,13.55,24.657000089407));
#1961=CARTESIAN_POINT('Origin',(144.150002145767,13.55,24.657000089407));
#1962=CARTESIAN_POINT('',(144.150002145767,14.6,24.657000089407));
#1963=CARTESIAN_POINT('',(150.325002238899,14.6,24.657000089407));
#1964=CARTESIAN_POINT('',(144.150002145767,13.55,24.657000089407));
#1965=CARTESIAN_POINT('',(150.325002238899,13.55,24.657000089407));
#1966=CARTESIAN_POINT('',(144.150002145767,13.55,24.657000089407));
#1967=CARTESIAN_POINT('Origin',(144.150002145767,13.55,38.657000089407));
#1968=CARTESIAN_POINT('',(144.150002145767,14.6,38.657000089407));
#1969=CARTESIAN_POINT('',(144.150002145767,14.6,35.3285002831221));
#1970=CARTESIAN_POINT('',(144.150002145767,13.55,38.657000089407));
#1971=CARTESIAN_POINT('',(144.150002145767,13.55,35.3285002831221));
#1972=CARTESIAN_POINT('',(144.150002145767,13.55,38.657000089407));
#1973=CARTESIAN_POINT('Origin',(130.150002145767,13.55,38.657000089407));
#1974=CARTESIAN_POINT('',(143.325002238899,14.6,38.657000089407));
#1975=CARTESIAN_POINT('',(143.325002238899,13.55,38.657000089407));
#1976=CARTESIAN_POINT('Origin',(149.207002145767,13.55,19.600000089407));
#1977=CARTESIAN_POINT('',(163.207002145767,14.6,19.600000089407));
#1978=CARTESIAN_POINT('',(149.207002145767,14.6,19.600000089407));
#1979=CARTESIAN_POINT('',(152.853502238899,14.6,19.600000089407));
#1980=CARTESIAN_POINT('',(163.207002145767,13.55,19.600000089407));
#1981=CARTESIAN_POINT('',(163.207002145767,13.55,19.600000089407));
#1982=CARTESIAN_POINT('',(149.207002145767,13.55,19.600000089407));
#1983=CARTESIAN_POINT('',(152.853502238899,13.55,19.600000089407));
#1984=CARTESIAN_POINT('',(149.207002145767,13.55,19.600000089407));
#1985=CARTESIAN_POINT('Origin',(149.207002145767,13.55,5.60000008940697));
#1986=CARTESIAN_POINT('',(149.207002145767,14.6,5.60000008940697));
#1987=CARTESIAN_POINT('',(149.207002145767,14.6,18.8000002831221));
#1988=CARTESIAN_POINT('',(149.207002145767,13.55,5.60000008940697));
#1989=CARTESIAN_POINT('',(149.207002145767,13.55,18.8000002831221));
#1990=CARTESIAN_POINT('',(149.207002145767,13.55,5.60000008940697));
#1991=CARTESIAN_POINT('Origin',(163.207002145767,13.55,5.60000008940697));
#1992=CARTESIAN_POINT('',(163.207002145767,14.6,5.60000008940697));
#1993=CARTESIAN_POINT('',(159.853502238899,14.6,5.60000008940697));
#1994=CARTESIAN_POINT('',(163.207002145767,13.55,5.60000008940697));
#1995=CARTESIAN_POINT('',(159.853502238899,13.55,5.60000008940697));
#1996=CARTESIAN_POINT('',(163.207002145767,13.55,5.60000008940697));
#1997=CARTESIAN_POINT('Origin',(163.207002145767,13.55,19.600000089407));
#1998=CARTESIAN_POINT('',(163.207002145767,14.6,25.8000002831221));
#1999=CARTESIAN_POINT('',(163.207002145767,13.55,25.8000002831221));
#2000=CARTESIAN_POINT('Origin',(149.207002145767,13.55,57.714000089407));
#2001=CARTESIAN_POINT('',(163.207002145767,14.6,57.714000089407));
#2002=CARTESIAN_POINT('',(149.207002145767,14.6,57.714000089407));
#2003=CARTESIAN_POINT('',(152.853502238899,14.6,57.714000089407));
#2004=CARTESIAN_POINT('',(163.207002145767,13.55,57.714000089407));
#2005=CARTESIAN_POINT('',(163.207002145767,13.55,57.714000089407));
#2006=CARTESIAN_POINT('',(149.207002145767,13.55,57.714000089407));
#2007=CARTESIAN_POINT('',(152.853502238899,13.55,57.714000089407));
#2008=CARTESIAN_POINT('',(149.207002145767,13.55,57.714000089407));
#2009=CARTESIAN_POINT('Origin',(149.207002145767,13.55,43.714000089407));
#2010=CARTESIAN_POINT('',(149.207002145767,14.6,43.714000089407));
#2011=CARTESIAN_POINT('',(149.207002145767,14.6,37.8570002831221));
#2012=CARTESIAN_POINT('',(149.207002145767,13.55,43.714000089407));
#2013=CARTESIAN_POINT('',(149.207002145767,13.55,37.8570002831221));
#2014=CARTESIAN_POINT('',(149.207002145767,13.55,43.714000089407));
#2015=CARTESIAN_POINT('Origin',(163.207002145767,13.55,43.714000089407));
#2016=CARTESIAN_POINT('',(163.207002145767,14.6,43.714000089407));
#2017=CARTESIAN_POINT('',(159.853502238899,14.6,43.714000089407));
#2018=CARTESIAN_POINT('',(163.207002145767,13.55,43.714000089407));
#2019=CARTESIAN_POINT('',(159.853502238899,13.55,43.714000089407));
#2020=CARTESIAN_POINT('',(163.207002145767,13.55,43.714000089407));
#2021=CARTESIAN_POINT('Origin',(163.207002145767,13.55,57.714000089407));
#2022=CARTESIAN_POINT('',(163.207002145767,14.6,44.8570002831221));
#2023=CARTESIAN_POINT('',(163.207002145767,13.55,44.8570002831221));
#2024=CARTESIAN_POINT('Origin',(182.264002145767,13.55,24.657000089407));
#2025=CARTESIAN_POINT('',(168.264002145767,14.6,24.657000089407));
#2026=CARTESIAN_POINT('',(182.264002145767,14.6,24.657000089407));
#2027=CARTESIAN_POINT('',(169.382002238899,14.6,24.657000089407));
#2028=CARTESIAN_POINT('',(168.264002145767,13.55,24.657000089407));
#2029=CARTESIAN_POINT('',(168.264002145767,13.55,24.657000089407));
#2030=CARTESIAN_POINT('',(182.264002145767,13.55,24.657000089407));
#2031=CARTESIAN_POINT('',(169.382002238899,13.55,24.657000089407));
#2032=CARTESIAN_POINT('',(182.264002145767,13.55,24.657000089407));
#2033=CARTESIAN_POINT('Origin',(182.264002145767,13.55,38.657000089407));
#2034=CARTESIAN_POINT('',(182.264002145767,14.6,38.657000089407));
#2035=CARTESIAN_POINT('',(182.264002145767,14.6,35.3285002831221));
#2036=CARTESIAN_POINT('',(182.264002145767,13.55,38.657000089407));
#2037=CARTESIAN_POINT('',(182.264002145767,13.55,35.3285002831221));
#2038=CARTESIAN_POINT('',(182.264002145767,13.55,38.657000089407));
#2039=CARTESIAN_POINT('Origin',(168.264002145767,13.55,38.657000089407));
#2040=CARTESIAN_POINT('',(168.264002145767,14.6,38.657000089407));
#2041=CARTESIAN_POINT('',(162.382002238899,14.6,38.657000089407));
#2042=CARTESIAN_POINT('',(168.264002145767,13.55,38.657000089407));
#2043=CARTESIAN_POINT('',(162.382002238899,13.55,38.657000089407));
#2044=CARTESIAN_POINT('',(168.264002145767,13.55,38.657000089407));
#2045=CARTESIAN_POINT('Origin',(168.264002145767,13.55,24.657000089407));
#2046=CARTESIAN_POINT('',(168.264002145767,14.6,28.3285002831221));
#2047=CARTESIAN_POINT('',(168.264002145767,13.55,28.3285002831221));
#2048=CARTESIAN_POINT('Origin',(149.207002145767,13.55,38.657000089407));
#2049=CARTESIAN_POINT('',(163.207002145767,14.6,38.657000089407));
#2050=CARTESIAN_POINT('',(149.207002145767,14.6,38.657000089407));
#2051=CARTESIAN_POINT('',(152.853502238899,14.6,38.657000089407));
#2052=CARTESIAN_POINT('',(163.207002145767,13.55,38.657000089407));
#2053=CARTESIAN_POINT('',(163.207002145767,13.55,38.657000089407));
#2054=CARTESIAN_POINT('',(149.207002145767,13.55,38.657000089407));
#2055=CARTESIAN_POINT('',(152.853502238899,13.55,38.657000089407));
#2056=CARTESIAN_POINT('',(149.207002145767,13.55,38.657000089407));
#2057=CARTESIAN_POINT('Origin',(149.207002145767,13.55,24.657000089407));
#2058=CARTESIAN_POINT('',(149.207002145767,14.6,24.657000089407));
#2059=CARTESIAN_POINT('',(149.207002145767,14.6,28.3285002831221));
#2060=CARTESIAN_POINT('',(149.207002145767,13.55,24.657000089407));
#2061=CARTESIAN_POINT('',(149.207002145767,13.55,28.3285002831221));
#2062=CARTESIAN_POINT('',(149.207002145767,13.55,24.657000089407));
#2063=CARTESIAN_POINT('Origin',(163.207002145767,13.55,24.657000089407));
#2064=CARTESIAN_POINT('',(163.207002145767,14.6,24.657000089407));
#2065=CARTESIAN_POINT('',(159.853502238899,14.6,24.657000089407));
#2066=CARTESIAN_POINT('',(163.207002145767,13.55,24.657000089407));
#2067=CARTESIAN_POINT('',(159.853502238899,13.55,24.657000089407));
#2068=CARTESIAN_POINT('',(163.207002145767,13.55,24.657000089407));
#2069=CARTESIAN_POINT('Origin',(163.207002145767,13.55,38.657000089407));
#2070=CARTESIAN_POINT('',(163.207002145767,14.6,35.3285002831221));
#2071=CARTESIAN_POINT('',(163.207002145767,13.55,35.3285002831221));
#2072=CARTESIAN_POINT('Origin',(168.264002145767,13.55,5.60000008940697));
#2073=CARTESIAN_POINT('',(168.264002145767,14.6,19.600000089407));
#2074=CARTESIAN_POINT('',(168.264002145767,14.6,5.60000008940697));
#2075=CARTESIAN_POINT('',(168.264002145767,14.6,18.8000002831221));
#2076=CARTESIAN_POINT('',(168.264002145767,13.55,19.600000089407));
#2077=CARTESIAN_POINT('',(168.264002145767,13.55,19.600000089407));
#2078=CARTESIAN_POINT('',(168.264002145767,13.55,5.60000008940697));
#2079=CARTESIAN_POINT('',(168.264002145767,13.55,18.8000002831221));
#2080=CARTESIAN_POINT('',(168.264002145767,13.55,5.60000008940697));
#2081=CARTESIAN_POINT('Origin',(182.264002145767,13.55,5.60000008940697));
#2082=CARTESIAN_POINT('',(182.264002145767,14.6,5.60000008940697));
#2083=CARTESIAN_POINT('',(169.382002238899,14.6,5.60000008940697));
#2084=CARTESIAN_POINT('',(182.264002145767,13.55,5.60000008940697));
#2085=CARTESIAN_POINT('',(169.382002238899,13.55,5.60000008940697));
#2086=CARTESIAN_POINT('',(182.264002145767,13.55,5.60000008940697));
#2087=CARTESIAN_POINT('Origin',(182.264002145767,13.55,19.600000089407));
#2088=CARTESIAN_POINT('',(182.264002145767,14.6,19.600000089407));
#2089=CARTESIAN_POINT('',(182.264002145767,14.6,25.8000002831221));
#2090=CARTESIAN_POINT('',(182.264002145767,13.55,19.600000089407));
#2091=CARTESIAN_POINT('',(182.264002145767,13.55,25.8000002831221));
#2092=CARTESIAN_POINT('',(182.264002145767,13.55,19.600000089407));
#2093=CARTESIAN_POINT('Origin',(168.264002145767,13.55,19.600000089407));
#2094=CARTESIAN_POINT('',(162.382002238899,14.6,19.600000089407));
#2095=CARTESIAN_POINT('',(162.382002238899,13.55,19.600000089407));
#2096=CARTESIAN_POINT('Origin',(130.150002145767,13.55,43.714000089407));
#2097=CARTESIAN_POINT('',(130.150002145767,14.6,57.714000089407));
#2098=CARTESIAN_POINT('',(130.150002145767,14.6,43.714000089407));
#2099=CARTESIAN_POINT('',(130.150002145767,14.6,37.8570002831221));
#2100=CARTESIAN_POINT('',(130.150002145767,13.55,57.714000089407));
#2101=CARTESIAN_POINT('',(130.150002145767,13.55,57.714000089407));
#2102=CARTESIAN_POINT('',(130.150002145767,13.55,43.714000089407));
#2103=CARTESIAN_POINT('',(130.150002145767,13.55,37.8570002831221));
#2104=CARTESIAN_POINT('',(130.150002145767,13.55,43.714000089407));
#2105=CARTESIAN_POINT('Origin',(144.150002145767,13.55,43.714000089407));
#2106=CARTESIAN_POINT('',(144.150002145767,14.6,43.714000089407));
#2107=CARTESIAN_POINT('',(150.325002238899,14.6,43.714000089407));
#2108=CARTESIAN_POINT('',(144.150002145767,13.55,43.714000089407));
#2109=CARTESIAN_POINT('',(150.325002238899,13.55,43.714000089407));
#2110=CARTESIAN_POINT('',(144.150002145767,13.55,43.714000089407));
#2111=CARTESIAN_POINT('Origin',(144.150002145767,13.55,57.714000089407));
#2112=CARTESIAN_POINT('',(144.150002145767,14.6,57.714000089407));
#2113=CARTESIAN_POINT('',(144.150002145767,14.6,44.8570002831221));
#2114=CARTESIAN_POINT('',(144.150002145767,13.55,57.714000089407));
#2115=CARTESIAN_POINT('',(144.150002145767,13.55,44.8570002831221));
#2116=CARTESIAN_POINT('',(144.150002145767,13.55,57.714000089407));
#2117=CARTESIAN_POINT('Origin',(130.150002145767,13.55,57.714000089407));
#2118=CARTESIAN_POINT('',(143.325002238899,14.6,57.714000089407));
#2119=CARTESIAN_POINT('',(143.325002238899,13.55,57.714000089407));
#2120=CARTESIAN_POINT('Origin',(156.500002332032,13.55,32.0000004768372));
#2121=CARTESIAN_POINT('',(144.150002145767,13.55,5.60000008940697));
#2122=CARTESIAN_POINT('',(144.150002145767,13.55,19.600000089407));
#2123=CARTESIAN_POINT('',(144.150002145767,13.55,18.8000002831221));
#2124=CARTESIAN_POINT('',(130.150002145767,13.55,5.60000008940697));
#2125=CARTESIAN_POINT('',(143.325002238899,13.55,5.60000008940697));
#2126=CARTESIAN_POINT('',(130.150002145767,13.55,19.600000089407));
#2127=CARTESIAN_POINT('',(130.150002145767,13.55,25.8000002831221));
#2128=CARTESIAN_POINT('',(150.325002238899,13.55,19.600000089407));
#2129=CARTESIAN_POINT('Origin',(130.150002145767,0.,5.60000008940697));
#2130=CARTESIAN_POINT('',(144.150002145767,14.6,5.60000008940697));
#2131=CARTESIAN_POINT('',(144.150002145767,0.,5.60000008940697));
#2132=CARTESIAN_POINT('',(130.150002145767,14.6,5.60000008940697));
#2133=CARTESIAN_POINT('',(144.150002145767,14.6,5.60000008940697));
#2134=CARTESIAN_POINT('',(130.150002145767,0.,5.60000008940697));
#2135=CARTESIAN_POINT('Origin',(144.150002145767,0.,5.60000008940697));
#2136=CARTESIAN_POINT('',(144.150002145767,14.6,19.600000089407));
#2137=CARTESIAN_POINT('',(144.150002145767,0.,19.600000089407));
#2138=CARTESIAN_POINT('',(144.150002145767,14.6,19.600000089407));
#2139=CARTESIAN_POINT('Origin',(130.150002145767,0.,19.600000089407));
#2140=CARTESIAN_POINT('',(130.150002145767,14.6,19.600000089407));
#2141=CARTESIAN_POINT('',(130.150002145767,14.6,5.60000008940697));
#2142=CARTESIAN_POINT('',(130.150002145767,0.,19.600000089407));
#2143=CARTESIAN_POINT('Origin',(144.150002145767,0.,19.600000089407));
#2144=CARTESIAN_POINT('',(130.150002145767,14.6,19.600000089407));
#2145=CARTESIAN_POINT('Origin',(156.500002332032,14.6,32.0000004768372));
#2146=UNCERTAINTY_MEASURE_WITH_UNIT(LENGTH_MEASURE(0.01),#2150,
'DISTANCE_ACCURACY_VALUE',
'Maximum model space distance between geometric entities at asserted c
onnectivities');
#2147=UNCERTAINTY_MEASURE_WITH_UNIT(LENGTH_MEASURE(0.01),#2150,
'DISTANCE_ACCURACY_VALUE',
'Maximum model space distance between geometric entities at asserted c
onnectivities');
#2148=(
GEOMETRIC_REPRESENTATION_CONTEXT(3)
GLOBAL_UNCERTAINTY_ASSIGNED_CONTEXT((#2146))
GLOBAL_UNIT_ASSIGNED_CONTEXT((#2150,#2152,#2153))
REPRESENTATION_CONTEXT('','3D')
);
#2149=(
GEOMETRIC_REPRESENTATION_CONTEXT(3)
GLOBAL_UNCERTAINTY_ASSIGNED_CONTEXT((#2147))
GLOBAL_UNIT_ASSIGNED_CONTEXT((#2150,#2152,#2153))
REPRESENTATION_CONTEXT('','3D')
);
#2150=(
LENGTH_UNIT()
NAMED_UNIT(*)
SI_UNIT(.MILLI.,.METRE.)
);
#2151=(
LENGTH_UNIT()
NAMED_UNIT(*)
SI_UNIT($,.METRE.)
);
#2152=(
NAMED_UNIT(*)
PLANE_ANGLE_UNIT()
SI_UNIT($,.RADIAN.)
);
#2153=(
NAMED_UNIT(*)
SI_UNIT($,.STERADIAN.)
SOLID_ANGLE_UNIT()
);
#2154=SHAPE_DEFINITION_REPRESENTATION(#2155,#2156);
#2155=PRODUCT_DEFINITION_SHAPE('',$,#2158);
#2156=SHAPE_REPRESENTATION('',(#1376),#2148);
#2157=PRODUCT_DEFINITION_CONTEXT('part definition',#2162,'design');
#2158=PRODUCT_DEFINITION('2026-10-04-12-23-14-962','Top',#2159,#2157);
#2159=PRODUCT_DEFINITION_FORMATION('',$,#2164);
#2160=PRODUCT_RELATED_PRODUCT_CATEGORY('Top','Top',(#2164));
#2161=APPLICATION_PROTOCOL_DEFINITION('international standard',
'automotive_design',2009,#2162);
#2162=APPLICATION_CONTEXT(
'Core Data for Automotive Mechanical Design Process');
#2163=PRODUCT_CONTEXT('part definition',#2162,'mechanical');
#2164=PRODUCT('2026-10-04-12-23-14-962','Top',$,(#2163));
#2165=PRESENTATION_STYLE_ASSIGNMENT((#2166));
#2166=SURFACE_STYLE_USAGE(.BOTH.,#2167);
#2167=SURFACE_SIDE_STYLE('',(#2168));
#2168=SURFACE_STYLE_FILL_AREA(#2169);
#2169=FILL_AREA_STYLE('Steel - Satin',(#2170));
#2170=FILL_AREA_STYLE_COLOUR('Steel - Satin',#2171);
#2171=COLOUR_RGB('Steel - Satin',0.627450980392157,0.627450980392157,0.627450980392157);
ENDSEC;
END-ISO-10303-21;
